<svg xmlns="http://www.w3.org/2000/svg" id="Layer_1" x="0" y="0" enable-background="new 0 0 68 68" version="1.1" viewBox="0 0 68 68" xml:space="preserve"><g><g><path fill="#e8edf2" d="M63.206707,12v44c0,5.5200195-4.4799805,10-10,10H19.376627c-5.5200186,0-9.999999-4.4799805-9.999999-10V12
			c0-5.5302734,4.4799805-10,9.999999-10H53.206707C58.7267265,2,63.206707,6.4697266,63.206707,12z"/><path fill="#c4d3e4" d="M9.3766279,33.003418V56c0,5.5200195,4.4799805,10,9.999999,10H53.206707c5.5200195,0,10-4.4799805,10-10
			V33.003418H9.3766279z"/><path fill="#108be1" d="M24.2067051,2v64H19.376627c-5.5200186,0-9.999999-4.4799805-9.999999-10V12
			c0-5.5302734,4.4799805-10,9.999999-10H24.2067051z"/><path fill="#0c6bc3" d="M24.2067051,33v33H19.376627c-5.5200186,0-9.999999-4.4799805-9.999999-10V33H24.2067051z"/><g><g><path fill="#454545" d="M18.7965488,15.9999866c0,0.8023357-0.3207245,1.5294514-0.8556137,2.053894
					c-0.5244446,0.5244427-1.2411137,0.8451691-2.0434484,0.8451691H7.6923566
					c-1.5939617,0-2.8990622-1.2943916-2.8990622-2.8990631c0-0.7918873,0.3316946-1.5190039,0.8556151-2.0434465
					c0.5244427-0.523921,1.2518201-0.8556156,2.043447-0.8556156h8.2051296
					C17.4914494,13.1009245,18.7965488,14.4057636,18.7965488,15.9999866z"/><path fill="#2c2c2c" d="M4.7997231,16.0641136c0.0351563,1.5742188,1.3205566,2.8349609,2.8925781,2.8349609h8.2053223
					c0.8022451,0,1.5187979-0.3208008,2.0434561-0.8452148c0.5200195-0.5102539,0.8320313-1.2133789,0.8491211-1.9897461H4.7997231z
					"/></g><g><path fill="#454545" d="M18.7965488,27.9999866c0,0.8023357-0.3207245,1.5294514-0.8556137,2.053894
					c-0.5244446,0.5244427-1.2411137,0.8451691-2.0434484,0.8451691H7.6923566
					c-1.5939617,0-2.8990622-1.2943916-2.8990622-2.8990631c0-0.7918873,0.3316946-1.5190048,0.8556151-2.0434475
					c0.5244427-0.5239201,1.2518201-0.8556137,2.043447-0.8556137h8.2051296
					C17.4914494,25.1009254,18.7965488,26.4057636,18.7965488,27.9999866z"/><path fill="#2c2c2c" d="M4.7997231,28.0641136c0.0351563,1.5742188,1.3205566,2.8349609,2.8925781,2.8349609h8.2053223
					c0.8022451,0,1.5187979-0.3208008,2.0434561-0.8452148c0.5200195-0.5102539,0.8320313-1.2133789,0.8491211-1.9897461H4.7997231z
					"/></g><g><path fill="#454545" d="M18.7965488,39.9999886c0,0.8023338-0.3207245,1.5294495-0.8556137,2.053894
					c-0.5244446,0.5244408-1.2411137,0.8451653-2.0434484,0.8451653H7.6923566
					c-1.5939617,0-2.8990622-1.2943916-2.8990622-2.8990593c0-0.7918892,0.3316946-1.5190048,0.8556151-2.0434494
					c0.5244427-0.523922,1.2518201-0.8556137,2.043447-0.8556137h8.2051296
					C17.4914494,37.1009254,18.7965488,38.4057655,18.7965488,39.9999886z"/><path fill="#2c2c2c" d="M4.7997231,40.0641136c0.0351563,1.5742188,1.3205566,2.8349609,2.8925781,2.8349609h8.2053223
					c0.8022451,0,1.5187979-0.3208008,2.0434561-0.8452148c0.5200195-0.5102539,0.8320313-1.2133789,0.8491211-1.9897461H4.7997231z
					"/></g><g><path fill="#454545" d="M18.7965488,51.9999886c0,0.8023338-0.3207245,1.5294495-0.8556137,2.053894
					c-0.5244446,0.5244408-1.2411137,0.8451653-2.0434484,0.8451653H7.6923566
					c-1.5939617,0-2.8990622-1.2943916-2.8990622-2.8990593c0-0.7918892,0.3316946-1.5190048,0.8556151-2.0434494
					c0.5244427-0.523922,1.2518201-0.8556137,2.043447-0.8556137h8.2051296
					C17.4914494,49.1009254,18.7965488,50.4057655,18.7965488,51.9999886z"/><path fill="#2c2c2c" d="M4.7997231,52.0641136c0.0351563,1.5742188,1.3205566,2.8349609,2.8925781,2.8349609h8.2053223
					c0.8022451,0,1.5187979-0.3208008,2.0434561-0.8452148c0.5200195-0.5102539,0.8320313-1.2133789,0.8491211-1.9897461H4.7997231z
					"/></g></g><g><g><g><g><g><path fill="#fabb53" d="M55.6960907,28.7512321v1.1025715c0,2.2323971-1.8147697,4.0403118-4.0607071,4.0403118H35.7688713
								c-2.2392502,0-4.053854-1.8079147-4.053854-4.0403118v-1.1025715c0-3.6977558,2.2186871-6.8750706,5.3960018-8.2651978
								c1.1094246-0.4930229,2.3283577-0.7601814,3.6156654-0.7601814h5.9440269
								c1.2941666,0,2.5199509,0.2671585,3.6292114,0.7601814C53.4774055,21.8761616,55.6960907,25.0534763,55.6960907,28.7512321z"/><g><path fill="#ffd77f" d="M33.5919838,29.5435581c-0.5339851,0-0.9667664-0.4327774-0.9667664-0.9667645
									c0-2.2194023,0.9618568-4.3300438,2.638588-5.7909527c0.4029427-0.351017,1.0135918-0.3079662,1.3640404,0.0940342
									c0.3508301,0.4025669,0.3089142,1.0132141-0.0936546,1.3640423
									c-1.2556572,1.0934639-1.9754448,2.6727619-1.9754448,4.3328762
									C34.5587463,29.1107807,34.1259689,29.5435581,33.5919838,29.5435581z"/></g><path fill="#f99944" d="M55.6983948,28.7514534v1.1010838c0,2.2352619-1.8175926,4.0449238-4.0604095,4.0449238h-7.9353905
								V19.7258091h2.9699669C51.6610222,19.7258091,55.6983948,23.7628021,55.6983948,28.7514534z"/><path fill="#d8642a" d="M50.2999229,20.4860344c-0.9860458,2.6842918-3.5745392,4.6017151-6.594368,4.6017151
								c-3.0199966,0-5.6083221-1.9174232-6.5945358-4.6017151c1.1094246-0.4930229,2.3283577-0.7601814,3.6156654-0.7601814
								h5.9440269C47.9648781,19.725853,49.1906624,19.9930115,50.2999229,20.4860344z"/><path fill="#fabb53" d="M49.6957588,16.0582676v2.0140038c0,3.3134022-2.6777344,5.9908829-5.9908829,5.9908829
								s-5.9908829-2.6774807-5.9908829-5.9908829v-2.0140038c0-3.3128948,2.6777344-5.9908848,5.9908829-5.9908848
								c1.6567001,0,3.1569672,0.666954,4.2405739,1.7505636C49.0288048,12.9015551,49.6957588,14.4018202,49.6957588,16.0582676z"/><path fill="#f99944" d="M47.9454041,11.8181314c-1.0834579-1.0838327-2.583828-1.7507486-4.2405434-1.7507486
								c-0.0183182,0-0.0183182,13.9956455,0,13.9956455c3.3132401,0,5.9909134-2.6774826,5.9909134-5.9909153v-2.0138168
								C49.6957741,14.4019585,49.0288582,12.9015865,47.9454041,11.8181314z"/></g></g></g></g></g><g><path fill="#fff" d="M55.6966972 46.8774414c0 .6098633-.2399902 1.1499023-.6401367 1.5400391-.3999023.3999023-.9399414.6401367-1.5397949.6401367H33.8966484c-1.1999512 0-2.1799335-.9702148-2.1799335-2.1801758 0-.6098633.2399902-1.1499023.6398945-1.550293.3999023-.3999023.9399414-.6396484 1.5400391-.6396484h19.6201172C54.7167168 44.6875 55.6966972 45.6674805 55.6966972 46.8774414zM51.6966972 55.7524414c0 .6098633-.2399902 1.1499023-.6401367 1.5400391-.3999023.3999023-.9399414.6401367-1.5397949.6401367H37.8966484c-1.1999512 0-2.1799316-.9702148-2.1799316-2.1801758 0-.6098633.2399902-1.1499023.6398926-1.550293.3999023-.3999023.9399414-.6396484 1.5400391-.6396484h11.6201172C50.7167168 53.5625 51.6966972 54.5424805 51.6966972 55.7524414z"/></g></g><path fill="#4db6ff" d="M22.5465488,5.7965493v5.0800786c0,1.0400391-0.8398438,1.8798828-1.8798828,1.8798828
		c-1.0300293,0-1.8701172-0.8398438-1.8701172-1.8798828V5.7965493c0-1.0400391,0.8400879-1.8798826,1.8701172-1.8798826
		C21.7067051,3.9166667,22.5465488,4.7565103,22.5465488,5.7965493z"/></g></svg>