<svg xmlns="http://www.w3.org/2000/svg" id="Layer_1" x="0" y="0" enable-background="new 0 0 68 68" version="1.1" viewBox="0 0 68 68" xml:space="preserve"><g><g><path fill="#108be1" d="M66,13.1899414v41.6098633C66,60.9897461,60.9902344,66,54.8100586,66h-41.619873
			C7.0102539,66,2,60.9897461,2,54.7998047V13.1899414C2,7.0097656,7.0102539,2,13.1901855,2h41.619873
			C60.9902344,2,66,7.0097656,66,13.1899414z"/><path fill="#0c6bc3" d="M54.8100586,2H33.6201172v64h21.1899414C60.9902344,66,66,60.9897461,66,54.7998047V13.1899414
			C66,7.0097656,60.9902344,2,54.8100586,2z"/><g><path fill="#e8edf2" d="M30.2003613 14.9537086v11.2093601c0 2.270874-1.8439007 4.1152477-4.1150112 4.1152477H14.8757534c-2.270874 0-4.1247253-1.8443737-4.1247253-4.1152477V14.9537086c0-2.270874 1.8538513-4.1152487 4.1247253-4.1152487H26.08535C28.3564606 10.83846 30.2003613 12.6828346 30.2003613 14.9537086zM30.2003613 41.8369331v11.2098312c0 2.270874-1.8439007 4.1147766-4.1150112 4.1147766H14.8757534c-2.270874 0-4.1247253-1.8439026-4.1247253-4.1147766V41.8369331c0-2.270874 1.8538513-4.1147766 4.1247253-4.1147766H26.08535C28.3564606 37.7221565 30.2003613 39.5660591 30.2003613 41.8369331z"/><path fill="#c4d3e4" d="M57.2489738 41.8369331v11.2098312c0 2.270874-1.8441391 4.1147766-4.1150131 4.1147766H41.924366c-2.2711143 0-4.1150131-1.8439026-4.1150131-4.1147766V41.8369331c0-2.270874 1.8438988-4.1147766 4.1150131-4.1147766h11.2095947C55.4048347 37.7221565 57.2489738 39.5660591 57.2489738 41.8369331zM57.2489738 14.9537086v11.2093601c0 2.270874-1.8441391 4.1152477-4.1150131 4.1152477H41.924366c-2.2711143 0-4.1150131-1.8443737-4.1150131-4.1152477V14.9537086c0-2.270874 1.8438988-4.1152487 4.1150131-4.1152487h11.2095947C55.4048347 10.83846 57.2489738 12.6828346 57.2489738 14.9537086z"/></g></g><path fill="#4db6ff" d="M9,25.2299805v17.25c0,1.3500977-1.0998535,2.4399414-2.4399414,2.4399414
		c-1.3498535,0-2.4399414-1.0898438-2.4399414-2.4399414v-17.25c0-1.340332,1.0900879-2.4399414,2.4399414-2.4399414
		c0.6699219,0,1.2800293,0.2797852,1.7202148,0.7197266C8.7202148,23.9501953,9,24.5600586,9,25.2299805z"/></g></svg>