<svg xmlns="http://www.w3.org/2000/svg" xmlns:xlink="http://www.w3.org/1999/xlink" viewBox="0 0 64 64"><defs><linearGradient id="a" x1="36" x2="60" y1="41" y2="41" gradientUnits="userSpaceOnUse"><stop offset="0" stop-color="#fe9661"/><stop offset="1" stop-color="#ffb369"/></linearGradient><linearGradient id="c" x1="48" x2="48" y1="51" y2="31" xlink:href="#a"/><linearGradient id="b" x1="4" x2="48" y1="32" y2="32" gradientUnits="userSpaceOnUse"><stop offset="0" stop-color="#d3e6f5"/><stop offset="1" stop-color="#f0f7fc"/></linearGradient><linearGradient id="d" x1="48" y1="47" y2="35" xlink:href="#b"/></defs><path fill="url(#a)" d="M60,41a11.45,11.45,0,0,1-.08,1.33,12,12,0,0,1-23.84,0A11.45,11.45,0,0,1,36,41a10.28,10.28,0,0,1,.09-1.37c0-.12,0-.23,0-.35A11.51,11.51,0,0,1,36.69,37a12,12,0,0,1,22.62,0,11.51,11.51,0,0,1,.56,2.28A10.8,10.8,0,0,1,60,41Z"/><path fill="url(#c)" d="M58,41a8,8,0,0,1-.07,1.11,9.71,9.71,0,0,1-.9,3.18,10,10,0,0,1-18.06,0,9.71,9.71,0,0,1-.9-3.18A9.87,9.87,0,0,1,38,41a8.5,8.5,0,0,1,.08-1.14,2.85,2.85,0,0,1,0-.29,9.11,9.11,0,0,1,.47-1.9,10,10,0,0,1,18.84,0,9.11,9.11,0,0,1,.47,1.9A8.37,8.37,0,0,1,58,41Z"/><path fill="url(#b)" d="M36.09,39.63A10.28,10.28,0,0,0,36,41a11.45,11.45,0,0,0,.08,1.33A12,12,0,0,0,48,53v2.85A4.09,4.09,0,0,1,44,60H8a4.09,4.09,0,0,1-4-4.15V8.15A4.09,4.09,0,0,1,8,4H40l0,0v6a2,2,0,0,0,2,2h6V29a12,12,0,0,0-11.31,8,11.51,11.51,0,0,0-.56,2.28C36.12,39.4,36.09,39.51,36.09,39.63Z"/><rect width="29" height="10" x="11" y="18" fill="#54a5ff" rx="2.04" ry="2.04"/><path fill="#b4cde1" d="M27 39H12a1 1 0 0 1 0-2H27a1 1 0 0 1 0 2zM27 34H12a1 1 0 0 1 0-2H27a1 1 0 0 1 0 2zM27 44H12a1 1 0 0 1 0-2H27a1 1 0 0 1 0 2zM31 49H12a1 1 0 0 1 0-2H31a1 1 0 0 1 0 2z"/><path fill="#b4cde1" d="M32 49H12a1 1 0 0 1 0-2H32a1 1 0 0 1 0 2zM32 54H12a1 1 0 0 1 0-2H32a1 1 0 0 1 0 2z"/><path fill="#b4cde1" d="M32 54H12a1 1 0 0 1 0-2H32a1 1 0 0 1 0 2zM48 12H42a2 2 0 0 1-2-2V4.05z"/><path fill="url(#d)" d="M51,42.5A2.46,2.46,0,0,0,48.6,40h-.94a.51.51,0,0,1,0-1H50a1,1,0,0,0,0-2H49V36a1,1,0,0,0-2,0v1.11A2.51,2.51,0,0,0,47.66,42h.94a.51.51,0,0,1,0,1H46a1,1,0,0,0,0,2h1v1a1,1,0,0,0,2,0V45A2.47,2.47,0,0,0,51,42.5Z"/></svg>