<svg xmlns="http://www.w3.org/2000/svg" viewBox="0 0 32 32"><path fill="#798bc6" d="M19.5 25h-7a1 1 0 0 0-1 1v.5a4.5 4.5 0 0 0 9 0V26a1 1 0 0 0-1-1Z"/><path fill="#6b7eb5" d="M18 30a4.51 4.51 0 0 1-4.5-4.5V25h-1a1 1 0 0 0-1 1v.5A4.51 4.51 0 0 0 16 31a4.44 4.44 0 0 0 2.9-1.09 4.43 4.43 0 0 1-.9.09Z"/><path fill="#798bc6" d="M16 1a3.5 3.5 0 0 0-3.5 3.5V9a1 1 0 0 0 1 1h5a1 1 0 0 0 1-1V4.5A3.5 3.5 0 0 0 16 1Z"/><path fill="#6b7eb5" d="M14.5 9V4.5A3.5 3.5 0 0 1 17 1.16 3.67 3.67 0 0 0 16 1a3.5 3.5 0 0 0-3.5 3.5V9a1 1 0 0 0 1 1h2a1 1 0 0 1-1-1Z"/><path fill="#ffcd69" d="M26.89 25.55 24 19.76V13a8 8 0 0 0-16 0v6.76l-2.89 5.79A1 1 0 0 0 6 27h20a1 1 0 0 0 .89-1.45Z"/><path fill="#ffc144" d="M7.11 26.55 10 20.76V14a8 8 0 0 1 8-8 7.91 7.91 0 0 1 2.54.42A8 8 0 0 0 8 13v6.76l-2.89 5.79A1 1 0 0 0 6 27h1a.91.91 0 0 1 .11-.45Z"/><path fill="#ff5d7d" d="M30 9a1 1 0 0 1-1-1 3 3 0 0 0-3-3 1 1 0 0 1 0-2 5 5 0 0 1 5 5 1 1 0 0 1-1 1Z"/><path fill="#ff5d7d" d="M27 10a1 1 0 0 1-1-1 1 1 0 0 0-1-1 1 1 0 0 1 0-2 3 3 0 0 1 3 3 1 1 0 0 1-1 1zM2 9a1 1 0 0 1-1-1 5 5 0 0 1 5-5 1 1 0 0 1 0 2 3 3 0 0 0-3 3 1 1 0 0 1-1 1z"/><path fill="#ff5d7d" d="M5 10a1 1 0 0 1-1-1 3 3 0 0 1 3-3 1 1 0 0 1 0 2 1 1 0 0 0-1 1 1 1 0 0 1-1 1Z"/></svg>