<svg xmlns="http://www.w3.org/2000/svg" width="28" height="28"><defs><linearGradient id="a" x1="16.611" x2="13.611" y1="8.889" y2="23.014" gradientUnits="userSpaceOnUse"><stop offset="0" stop-color="#2d88e2"/><stop offset="1" stop-color="#72b5f7"/></linearGradient><linearGradient id="b" x1="15.786" x2="13.911" y1="-2.595" y2="8.656" gradientUnits="userSpaceOnUse"><stop offset="0" stop-color="#2d88e2"/><stop offset=".063" stop-color="#318be3"/><stop offset="1" stop-color="#72b5f7"/></linearGradient></defs><g data-name="Layer 2"><path fill="url(#a)" d="M14 14c-6.168 0-11 3.161-11 7.2C3 24.884 7.01 27 14 27s11-2.116 11-5.8c0-4.039-4.832-7.2-11-7.2Z"/><path fill="url(#b)" d="M14 1a6.959 6.959 0 0 0-7 6.9c0 4.921 2.748 8.1 7 8.1s7-3.179 7-8.1A6.959 6.959 0 0 0 14 1Z"/></g></svg>