<svg xmlns="http://www.w3.org/2000/svg" id="Layer_1" x="0" y="0" enable-background="new 0 0 68 68" version="1.1" viewBox="0 0 68 68" xml:space="preserve"><g><g><path fill="#e8edf2" d="M55.8078041,24.6899414v31C55.8078041,61.380127,51.1879311,66,45.4977455,66H12.307806
			C6.6178641,66,1.9977469,61.380127,1.9977469,55.6899414V12.3100586C1.9977469,6.619873,6.6178641,2,12.307806,2h21.3500957
			c2.8200684,0,5.5100098,1.1499023,7.4499512,3.1799316l11.8400879,12.380127
			C54.7877846,19.4799805,55.8078041,22.0300293,55.8078041,24.6899414z"/><path fill="#c4d3e4" d="M52.9479408,17.5600586L41.1078529,5.1799316C39.1679115,3.1499023,36.4779701,2,33.6579018,2h-6.3532696v64
			h18.1931133c5.6901855,0,10.3100586-4.619873,10.3100586-10.3100586v-31
			C55.8078041,22.0300293,54.7877846,19.4799805,52.9479408,17.5600586z"/><path fill="#abb8c2" d="M7.9977469 12.1999512c0-.5500488.2202153-1.0600586.5900884-1.4199219.3601074-.3701172.8701172-.5900879 1.420166-.5900879h20.25c1.1098633 0 1.9999981.9001465 1.9999981 2.0100098 0 .5500488-.2202148 1.0600586-.5800762 1.4199219-.3601074.3701172-.8601074.5900879-1.4199219.5900879h-20.25C8.8978939 14.2099609 7.9977469 13.3100586 7.9977469 12.1999512zM25.9777279 55.8000488c0 .5498047-.2299805 1.0600586-.5898438 1.4199219-.3601074.3701172-.8601074.5900879-1.420166.5900879H10.0080013c-1.1101074 0-2.0102544-.9001465-2.0102544-2.0100098 0-.5500488.2202153-1.0600586.5900884-1.4199219.3601074-.3701172.8701172-.5900879 1.420166-.5900879h13.9597168C25.0778255 53.7900391 25.9777279 54.6899414 25.9777279 55.8000488zM39.9025307 47.0800781c0 .5500488-.2299805 1.0598145-.5898438 1.4199219-.3601074.369873-.8601074.5900879-1.4199219.5900879H10.0080013c-1.1101074 0-2.0102544-.9001465-2.0102544-2.0100098 0-.5500488.2202153-1.0600586.5900884-1.420166.3601074-.369873.8701172-.5898438 1.420166-.5898438H37.892765C39.0026283 45.0700684 39.9025307 45.9699707 39.9025307 47.0800781zM7.9977469 20.9199219c0-.5500488.2202153-1.0598145.5900884-1.4199219.3601074-.369873.8701172-.5900879 1.420166-.5900879h37.7900391c1.1098633 0 2.0097656.9001465 2.0097656 2.0100098 0 .5500488-.2299805 1.0600586-.5898438 1.420166-.3601074.369873-.8601074.5898438-1.4199219.5898438H10.0080013C8.8978939 22.9299316 7.9977469 22.0300293 7.9977469 20.9199219z"/><g><path fill="#abb8c2" d="M39.9025307 38.3601074c0 .5498047-.2299805 1.0598145-.5898438 1.4199219-.3601074.369873-.8601074.5898438-1.4199219.5898438H10.0080013c-1.1101074 0-2.0102544-.8999023-2.0102544-2.0097656 0-.5500488.2202153-1.0600586.5900884-1.420166.3601074-.369873.8701172-.5900879 1.420166-.5900879H37.892765C39.0026283 36.3498535 39.9025307 37.25 39.9025307 38.3601074zM42.9171791 29.6398926c0 .5500488-.2299805 1.0600586-.5898438 1.420166-.3601074.369873-.8601074.5898438-1.4199219.5898438H10.0080013c-1.1101074 0-2.0102544-.8999023-2.0102544-2.0100098 0-.5498047.2202153-1.0598145.5900884-1.4199219.3601074-.3701172.8701172-.5898438 1.420166-.5898438h30.8994122C42.0172768 27.630127 42.9171791 28.5300293 42.9171791 29.6398926z"/></g></g><g><path fill="#e9293a" d="M51.8096313,19.5396233L43.0373917,39.592514c-0.3393974,0.7758446-0.4663544,1.619751-0.3894997,2.4525871
			l12.253334,5.3602829c0.6637802-0.5088425,1.1973534-1.1748734,1.5367508-1.9507141l8.7722359-20.0528927L51.8096313,19.5396233z"/><path fill="#d42032" d="M58.5896873,22.5055943l-9.735363,22.2545414l6.0469017,2.6452484
			c0.6637802-0.5088425,1.1973534-1.1748734,1.5367508-1.9507141l8.7722359-20.0528927L58.5896873,22.5055943z"/><path fill="#fabb53" d="M64.8961716,26.1196651l0.4885101-1.1167164c0.8095093-1.8504944,0.797226-3.8555775,0.1150513-5.5983753
			c-0.6820068-1.7427292-2.0337715-3.223484-3.8842659-4.0329924c-3.7011452-1.6190853-8.012352,0.0682259-9.6313667,3.7692156
			l-0.4885139,1.1167145L64.8961716,26.1196651z"/><path fill="#f99944" d="M65.499733,19.4045734c-0.6721725-1.717268-1.9969826-3.1773243-3.8062706-3.9940481l-3.41782,7.8129568
			l6.6205292,2.896183l0.4885101-1.1167164C66.194191,23.1524544,66.1819077,21.1473713,65.499733,19.4045734z"/><path fill="#fabb53" d="M42.9874268,39.7228546c-0.4355469,1.0775223-0.4820442,2.2754936-0.1282806,3.3879738l1.8914413,5.8599167
			c0.486393,1.5127525,2.1965179,2.2608566,3.6374283,1.5912132l5.5871849-2.588356
			c1.0570869-0.4952965,1.9052887-1.342556,2.4009705-2.3937721L42.9874268,39.7228546z"/><path fill="#f99944" d="M49.7615623,42.6862335l-3.4668846,7.9251289c0.650528,0.2597046,1.4016647,0.2720222,2.093338-0.0494041
			l5.5871849-2.588356c1.0570869-0.4952965,1.9052887-1.342556,2.4009705-2.3937721L49.7615623,42.6862335z"/><path fill="#454545" d="M43.8028107,46.0348778l0.9477768,2.9358673c0.486393,1.5127525,2.1965179,2.2608566,3.6374283,1.5912132
			l2.799324-1.2966843L43.8028107,46.0348778z"/><path fill="#2c2c2c" d="M47.5483589,47.6733856l-1.281395,2.9291954c0.6565666,0.2705116,1.419857,0.2851753,2.1210518-0.0406227
			l2.799324-1.2966843L47.5483589,47.6733856z"/><path fill="#fe6559" d="M53.5960503,28.4899559l-3.4920998,7.982769c-0.3851967,0.8805351-1.4099236,1.2763977-2.2904587,0.891201
			c-0.8805351-0.3851929-1.2853546-1.406414-0.9001579-2.2869492l3.4921036-7.9827709
			c0.3851929-0.8805351,1.4126472-1.2826271,2.2931824-0.8974323c0.4402657,0.1925964,0.7578773,0.544241,0.9257164,0.959919
			C53.785923,27.5692635,53.7886505,28.0496883,53.5960503,28.4899559z"/></g></g></svg>