<svg xmlns="http://www.w3.org/2000/svg" viewBox="0 0 4680 3120"><defs><style>.cls-1,.cls-6{fill:#fff;}.cls-1{opacity:0;}.cls-2{fill:#dbe7e9;}.cls-3{fill:#87aeb4;}.cls-4{fill:#8ab2b7;}.cls-5{fill:#ebf1f3;}.cls-7{opacity:0.5;}.cls-8{fill:#a9c7ca;}.cls-9{fill:#48828c;}.cls-10{fill:#296f7a;}.cls-11{fill:#f1c8aa;}.cls-12{fill:#f1a87f;}.cls-13{fill:#325680;}.cls-14{fill:#244164;}.cls-15{fill:#286691;}.cls-16{fill:#f3caac;}.cls-17{fill:#2b4b72;}.cls-18{fill:#6b8ec8;}.cls-19{fill:#d6e7e9;}.cls-20{fill:#3d2312;}.cls-21{fill:#ec4623;}.cls-22{fill:#703e29;}.cls-23{fill:#f25252;}.cls-24{fill:#c74546;}.cls-25{fill:#474848;}.cls-26{fill:#8d1b01;}.cls-27{fill:#c63e00;}.cls-28{fill:#154f55;}.cls-29{fill:#5c1d1d;}.cls-30{fill:#470e0d;}.cls-31{fill:#c94408;}.cls-32{fill:#524e53;}.cls-33{fill:#2f2b30;}.cls-34{fill:#ffc83e;}.cls-35{fill:#ff8c33;}.cls-36{fill:#7f3131;}.cls-37{fill:#d5522b;}.cls-38{fill:#f3aa7f;}.cls-39{fill:#3e2312;}.cls-40{fill:#ef4623;}.cls-41{fill:#0b3f42;}.cls-42{fill:#fec661;}.cls-43{fill:#ee6749;}.cls-44{fill:#fdcd99;}.cls-45{fill:#fcb13c;}.cls-46{fill:#ca1d3b;}.cls-47{fill:#0b245d;}.cls-48{fill:#283878;}.cls-49{fill:#8e1c02;}.cls-50{fill:#f68a44;}.cls-51{fill:#1a2e35;}.cls-52{fill:#62aeb8;}.cls-53{fill:#068980;}.cls-54{fill:#b7854b;}.cls-55{fill:#936327;}.cls-56{fill:#02383c;}.cls-57{fill:#328e8b;}.cls-58{fill:#149e93;}.cls-59{fill:#ffbe34;}.cls-60{fill:#a5a7aa;}.cls-61{fill:#dd2125;}.cls-62{fill:#375f8d;}.cls-63{fill:#eec8ad;}.cls-64{fill:#d28d5f;}</style></defs><title>08</title><g id="_08" data-name="08"><rect id="_08-2" data-name="08" class="cls-1" width="4680" height="3120"/><path class="cls-2" d="M3776.33,2565.71H774.67c-235.57-379.93-326.52-889.5-220.5-1378.89C649,749.29,897.42,298.6,1526.2,366.9,2130.86,432.59,2446,819.26,3030.3,545.37c202.27-94.8,416.36-66.92,599.44,46.19a814.55,814.55,0,0,1,82.82,58.64C4138.23,992.49,4453.49,1818.79,3776.33,2565.71Z"/><path class="cls-3" d="M3778.48,2563.71H778.76s148.4,200,647.52,196.23c420.51-3.16,725.33-96.23,1264-43.18,293.55,28.91,581.25,4.05,728.68-52.9C3548.66,2613.77,3759.13,2596.93,3778.48,2563.71Z"/><rect class="cls-4" x="806.85" y="524.66" width="876.77" height="938.85"/><rect class="cls-5" x="852.95" y="568.98" width="784.56" height="848.83"/><polygon class="cls-6" points="1376.68 568.98 852.96 947.47 852.96 850.15 1242 568.98 1376.68 568.98"/><polygon class="cls-6" points="1637.51 586.13 1637.51 717.47 852.96 1284.45 852.96 1153.11 1637.51 586.13"/><g class="cls-7"><polygon class="cls-6" points="1637.51 1184.62 1637.51 1254.64 1411.73 1417.81 1314.83 1417.81 1637.51 1184.62"/></g><g class="cls-7"><polygon class="cls-6" points="1637.51 895.52 1637.51 963.39 1008.7 1417.81 914.8 1417.81 1637.51 895.52"/></g><rect class="cls-4" x="852.95" y="951.29" width="784.57" height="39.95"/><path class="cls-8" d="M1920.77,858.82a158.42,158.42,0,1,1,112-46.4A157.42,157.42,0,0,1,1920.77,858.82Z"/><circle class="cls-5" cx="1920.77" cy="700.39" r="143.72" transform="translate(67.33 1563.33) rotate(-45)"/><path class="cls-8" d="M1875.57,623.37a2.15,2.15,0,0,1-1.88-1.08l-16.38-27.84a2.18,2.18,0,0,1,3.76-2.22l16.38,27.85a2.18,2.18,0,0,1-.77,3A2.23,2.23,0,0,1,1875.57,623.37Z"/><path class="cls-8" d="M1982,807.91a2.18,2.18,0,0,1-1.89-1.08L1963.77,779a2.19,2.19,0,0,1,3.77-2.22l16.38,27.85a2.19,2.19,0,0,1-.78,3A2.22,2.22,0,0,1,1982,807.91Z"/><path class="cls-8" d="M1966.38,623.79a2.11,2.11,0,0,1-1.08-.29,2.18,2.18,0,0,1-.81-3l16.08-28a2.19,2.19,0,0,1,3.79,2.18l-16.08,28A2.18,2.18,0,0,1,1966.38,623.79Z"/><path class="cls-8" d="M1858.75,807.66a2.18,2.18,0,0,1-1.89-3.27l16.08-28a2.18,2.18,0,1,1,3.79,2.17l-16.08,28A2.18,2.18,0,0,1,1858.75,807.66Z"/><path class="cls-8" d="M1998.68,656.19a2.19,2.19,0,0,1-1.12-4.06l27.74-16.55a2.18,2.18,0,1,1,2.24,3.75l-27.74,16.55A2.18,2.18,0,0,1,1998.68,656.19Z"/><path class="cls-8" d="M1814.8,763.79a2.18,2.18,0,0,1-1.12-4.06l27.74-16.55a2.19,2.19,0,0,1,2.24,3.76l-27.74,16.55A2.27,2.27,0,0,1,1814.8,763.79Z"/><path class="cls-8" d="M2026.87,763a2.1,2.1,0,0,1-1.07-.29l-28.1-15.93a2.18,2.18,0,1,1,2.15-3.8l28.1,15.94a2.18,2.18,0,0,1-1.08,4.08Z"/><path class="cls-8" d="M1842.44,656.35a2.19,2.19,0,0,1-1.07-.28l-28.1-15.94a2.18,2.18,0,0,1,2.15-3.8l28.1,15.94a2.18,2.18,0,0,1-1.08,4.08Z"/><path class="cls-8" d="M1912.85,585.64h.32c1.08.23,1.61.77,1.61,1.61v22.11c-.2,1.12-.78,1.68-1.73,1.68h-.12c-1.12-.23-1.68-.77-1.68-1.59V589.83a6.42,6.42,0,0,1-1.75.37c-.8,0-1.33-.54-1.59-1.61v-.39c0-.91,1-1.56,3-2Z"/><path class="cls-8" d="M1924.7,585.65a7.81,7.81,0,0,1,7.87,7.83q0,3.56-3.41,6.77l-6.37,7.28h8.44c.92,0,1.47.55,1.66,1.66v.16c-.17,1.13-.74,1.69-1.73,1.69h-12.49c-1.11-.2-1.66-.78-1.66-1.73v-.07c0-.55.44-1.25,1.34-2.08l9.91-11.31a3.94,3.94,0,0,0,.73-2.37,4.16,4.16,0,0,0-3.06-4.08,3.7,3.7,0,0,0-1.12-.15h-.18q-2.79,0-4,3a10.22,10.22,0,0,0-.22,1.63,1.88,1.88,0,0,1-1.66,1.27h-.17c-1.12-.2-1.68-.76-1.68-1.66a7.85,7.85,0,0,1,3.9-6.73A8.54,8.54,0,0,1,1924.7,585.65Z"/><path class="cls-8" d="M1921.26,797.46h.64q3.76,0,6.38,3.75a8.19,8.19,0,0,1,1.18,4,7.83,7.83,0,0,1-3.55,6.5,7.64,7.64,0,0,1-4.19,1.3h-.33q-3.73,0-6.43-3.69a7.9,7.9,0,0,1,.71-9.25l7-12a2.75,2.75,0,0,1,1.32-.46c.85,0,1.41.59,1.67,1.75a9.42,9.42,0,0,1-1.62,3.26Zm-3.89,7.52v.59q0,2.32,2.68,3.68a7.53,7.53,0,0,0,1.56.29,4.21,4.21,0,0,0,4.09-3l.17-1.1v-.22q0-3-3.24-4.11l-1.12-.12c-1.85,0-3.2,1-4,3.07Z"/><path class="cls-8" d="M1817.35,701.69a7.87,7.87,0,0,1-6.4-4.19,8.23,8.23,0,0,1-.9-3.62c0-2.88,1.41-5.17,4.21-6.85a8.18,8.18,0,0,1,3.62-.91,7.78,7.78,0,0,1,6.67,3.89,8.42,8.42,0,0,1,1.08,3.87,8.68,8.68,0,0,1-2.34,5.67L1814.74,711a2.19,2.19,0,0,1-1.24.46c-1.16-.23-1.73-.82-1.73-1.78q0-.76,2.13-3.36Zm-3.73-8.06v.58c0,1.48.83,2.68,2.51,3.61a4.24,4.24,0,0,0,1.75.32,4.19,4.19,0,0,0,4.19-4.19v-.07a4.11,4.11,0,0,0-3-4,3.11,3.11,0,0,0-1.08-.15h-.39q-2.38,0-3.72,2.73A4.71,4.71,0,0,0,1813.62,693.63Z"/><path class="cls-8" d="M2023.39,686.18a6.68,6.68,0,0,1,5.34,2.76,6.19,6.19,0,0,1,1.26,3.76V693a5.83,5.83,0,0,1-2,4.63,7.12,7.12,0,0,1,3,6.12,8,8,0,0,1-3.82,6.72,8.18,8.18,0,0,1-3.92,1.08h-.19c-3.06,0-5.43-1.57-7.13-4.72a9.53,9.53,0,0,1-.61-3.14c0-.88.6-1.43,1.8-1.66,1,0,1.54.58,1.71,1.75a4.37,4.37,0,0,0,2.6,3.92,5.14,5.14,0,0,0,1.82.34,4.19,4.19,0,0,0,3.87-2.7,4,4,0,0,0,.28-1.34v-.51c0-1.6-.88-2.84-2.66-3.72l-2.16-.47a2,2,0,0,1-.93-1.56v-.07c0-1.15.75-1.72,2.24-1.72a3.07,3.07,0,0,0,2.17-1.42,4,4,0,0,0,.45-1.72,3,3,0,0,0-1.77-2.75,3.17,3.17,0,0,0-1.43-.32,3,3,0,0,0-2.9,2.17c-.16,1.5-.4,2.24-.71,2.24a1.52,1.52,0,0,1-1.17.51c-1.16-.26-1.73-.79-1.73-1.59v-.32c0-2.42,1.2-4.33,3.59-5.76A7.18,7.18,0,0,1,2023.39,686.18Z"/><path class="cls-8" d="M1932.35,712.37a2.17,2.17,0,0,1-1.58-.68l-69.88-73.16a2.18,2.18,0,1,1,3.15-3l69.89,73.16a2.19,2.19,0,0,1-.07,3.09A2.22,2.22,0,0,1,1932.35,712.37Z"/><path class="cls-8" d="M1905.05,708.54a2.18,2.18,0,0,1-1-4.12l58.42-30a2.18,2.18,0,1,1,2,3.88l-58.42,30A2.11,2.11,0,0,1,1905.05,708.54Z"/><path class="cls-8" d="M2931.3,557.56H2478.88A36.84,36.84,0,0,0,2442,594.4V879a36.84,36.84,0,0,0,36.84,36.84h37.66l-16.87,71.44,78.95-71.44H2931.3A36.84,36.84,0,0,0,2968.15,879V594.4A36.85,36.85,0,0,0,2931.3,557.56Z"/><rect class="cls-2" x="2505.87" y="737.77" width="34.8" height="124.1"/><rect class="cls-9" x="2505.87" y="767.21" width="34.8" height="94.66"/><rect class="cls-2" x="2578.6" y="679.13" width="34.8" height="182.74"/><rect class="cls-9" x="2578.6" y="790.06" width="34.8" height="71.8"/><rect class="cls-2" x="2651.33" y="759.41" width="34.8" height="102.46"/><rect class="cls-9" x="2651.33" y="781.79" width="34.8" height="80.08"/><rect class="cls-2" x="2724.06" y="712.76" width="34.8" height="149.11"/><rect class="cls-9" x="2724.06" y="793.79" width="34.8" height="68.08"/><rect class="cls-2" x="2796.78" y="737.77" width="34.8" height="124.1"/><rect class="cls-9" x="2796.78" y="775.3" width="34.8" height="86.57"/><rect class="cls-9" x="2869.51" y="774.11" width="34.8" height="87.75"/><path class="cls-10" d="M2876,739.72a38.51,38.51,0,0,1-23-7.67L2769.41,670A30.44,30.44,0,0,0,2736,668l-50,28.9a38.68,38.68,0,0,1-48.51-8.17l-40.56-46.88a30.41,30.41,0,0,0-23-10.53h-.06a30.45,30.45,0,0,0-23,10.44L2491,710.45a4.08,4.08,0,0,1-6.14-5.36l59.88-68.67a38.58,38.58,0,0,1,29.1-13.24h.07a38.6,38.6,0,0,1,29.13,13.35l40.56,46.87a30.49,30.49,0,0,0,38.26,6.45l50-28.9a38.59,38.59,0,0,1,42.34,2.46l83.52,62.1a30.32,30.32,0,0,0,37.9-1.24L2919.58,704a4.08,4.08,0,1,1,5.28,6.21L2901,730.48A38.54,38.54,0,0,1,2876,739.72Z"/><rect class="cls-10" x="2869.51" y="597.09" width="34.8" height="14.86"/><rect class="cls-9" x="2869.51" y="622.66" width="34.8" height="14.86"/><rect class="cls-5" x="2869.51" y="648.23" width="34.8" height="14.86"/><rect class="cls-5" x="2805.41" y="597.09" width="53.98" height="66.01" rx="5.4"/><path class="cls-11" d="M3148.22,1010.93c-33,27-119.51,37.3-128.29,37-7.55-.21-46.76-4.83-72.25-10.38-4.7-7.24-12-18.06-17.19-23.38-8.13-8.41-50-28.6-54.86-19.81-6.29,11.35,15.57,27.77,27.33,34.41,0,0-.36.66-.93,1.83-15.3-5.93-31.09-12.08-32.58-12.79-13.1-6.21-31-28.06-40-21.93-7.54,5.09,3.35,15.71,3.35,15.71s-13.36-11.45-18.92-2.93,5.77,20.68,5.77,20.68-14.78-8.92-19.72,0,6.9,19.87,6.9,19.87-9.68-5.41-13.75,3.8,27.3,30.22,38.68,36.69c10.41,5.93,55,18.49,70,22.16a5.46,5.46,0,0,0,.85.48c27.47,11.91,89.6,20,137.85,12.76,39.82-6,128.41-72.25,138.52-95.64C3186,1013,3177.92,986.64,3148.22,1010.93Z"/><path class="cls-12" d="M2831.6,1010.68c13.17,16,21.71,20.78,41.11,27.21.38.12.28.71-.13.62-19.57-4.57-31.14-9-41.79-27.24C2830.27,1010.38,2831,1009.91,2831.6,1010.68Z"/><path class="cls-12" d="M2818.59,1028.09c15.14,15.46,24.36,20.68,44.18,28.91.28.12.11.61-.18.51-20.12-6.44-31.56-11.1-44.66-28.54C2817.33,1028.18,2817.9,1027.38,2818.59,1028.09Z"/><path class="cls-12" d="M2807.81,1049.62c15.74,13.91,25.6,20.07,45.87,25.59a.39.39,0,0,1-.16.76c-21.22-3.62-33.58-11.21-46.08-25.83C2806.59,1049.14,2806.82,1048.74,2807.81,1049.62Z"/><path class="cls-12" d="M2874.92,998.08c1.73,14.5,17.73,22.22,28.66,29.51a1.21,1.21,0,0,1,.13,2c-5.38,11.41-9.65,29.07-3,40.61a.31.31,0,0,1-.5.35c-8.8-11.41-6-29.11.67-41.22-11.33-7.31-27-15.76-26.09-31.21C2874.79,998,2874.91,998,2874.92,998.08Z"/><path class="cls-13" d="M2896.25,1176.41s217.27,40.13,287.76-18.81c25.8-21.56,39.8-43.66,57-94.88,0,0,7.68-131.75,8.94-161.39,0,0,52.52-73.35,25.51-104.53-50,10.11-163.3,194.25-172.63,198.76a6.88,6.88,0,0,1-2.31.45c-20.55,1.52-146.86-22.13-146.86-22.13l-9.46,33.34-30.75,108.43-7.06,24.93-1.32,4.64Z"/><path class="cls-14" d="M2896.25,1176.41s217.27,40.13,287.76-18.81c25.8-21.56,39.8-43.66,57-94.88,0,0-3.19-172.56-1.93-202.21,0,0-27,258.16-98.36,284.6-46.1,17.08-164.49,8-235.65.11Z"/><path class="cls-15" d="M3100.53,996c-14.7,2.83-96.3,17.72-156.3,11.2l9.45-33.34S3080,997.52,3100.53,996Z"/><path class="cls-16" d="M2917.15,2378.46l-11,29.56c-7.69,20.69-17.33,24.61-32.33,45.61l-56.76,50.22c-4.15,38.39-53.66-7.24-66.32,14.6l-8,24.5,242.42,14.28a13.72,13.72,0,0,0,13-18l.64-67.59,24.45-93.17Z"/><path class="cls-16" d="M3408.3,2378.46v66.24l-22.57,93.06c-2.85,11.75,6.05,9.4,18.14,9.4h106.84c11.8,0,20.64,2.85,18.29-8.71l.19-93.75,4.12-66.24Z"/><polygon class="cls-13" points="3124.26 2406.28 3383.57 1557.25 3323.12 2406.28 3597.54 2406.28 3622.35 1504.64 3626.55 1352.19 3626.73 1345.69 3339.61 1207.96 3180.99 1345.69 3133.62 1516.15 2886.24 2406.28 3124.26 2406.28"/><path class="cls-14" d="M3133.62,1516.15l62-7.9c146.52-12.16,167.57-146.19,167.57-146.19l52.85,110.3a88.82,88.82,0,0,0,73.55,35.76l132.74-3.48,4.2-152.45L3339.61,1208,3181,1345.69Z"/><rect x="3376.99" y="1214.6" width="3.14" height="342.73" transform="translate(-39.04 99.27) rotate(-1.67)"/><path d="M3379.48,1451.38l-17.06-13.19a87.29,87.29,0,0,1-33.79-64.2l-7.08-125.76,3.13-.17,7.08,125.76a84.12,84.12,0,0,0,32.58,61.89l17.06,13.19Z"/><rect x="3399.89" y="2360.63" width="133.66" height="3.14"/><rect x="2905.43" y="2360.63" width="133.66" height="3.14"/><rect x="2695.35" y="1916.46" width="950.41" height="3.14" transform="translate(250.55 4199.44) rotate(-69.17)"/><rect x="3023.51" y="1854.1" width="1015.48" height="3.14" transform="translate(1435.93 5250.21) rotate(-86.04)"/><path class="cls-13" d="M3121.6,1487.06l90.22-7.09a107.72,107.72,0,0,0,97.59-88.33l32.94-139.37,35.4,80.82c18.4,42,59.34,157.49,105.08,153.9l166.91-13.13-45.59-311.32L3584.67,1067l110.07,153.65,89.92,55.08a54,54,0,0,0,74.38-18,153.47,153.47,0,0,0-2.87-163.86L3722.78,890.56a233.08,233.08,0,0,0-136.37-97.72l-109.77-28.45H3368.45l-75.27,23.84a79.89,79.89,0,0,0-54.08,79.19l-29.32,302.41-52.85,194.87Z"/><path class="cls-17" d="M3482.83,1487l166.91-13.13-45.59-311.32-44.57,89.71s51.38,88.14,51.38,159.13C3611,1447.6,3482.83,1487,3482.83,1487Z"/><path class="cls-17" d="M3121.6,1487.06l90.22-7.09a107.72,107.72,0,0,0,97.59-88.33l32.94-139.37-4.54-11.8a35.9,35.9,0,0,1-.94-23.09l21.27-72.27c-.58,1.08-37.57,70.22-43,84.6s-64.3,118.63-119.54,131.31a142.29,142.29,0,0,1-38.71,3.68Z"/><path class="cls-6" d="M3358.15,1222.31a10.31,10.31,0,1,0,10.3-10.3A10.3,10.3,0,0,0,3358.15,1222.31Z"/><polygon class="cls-14" points="3595.61 1024.56 3648.71 868.97 3573.2 1019.22 3577.62 1094.37 3595.61 1024.56"/><path class="cls-18" d="M3528.43,827l-39.88-48H3354l-49,39.39A35.16,35.16,0,0,0,3294.93,860l38.49,86.73-34.78,27.65a35.15,35.15,0,0,0-11.08,39.79l60.94,163.67L3475.45,1035a35.16,35.16,0,0,0,1.51-44.89l-27.45-35.4,77.3-81A35.14,35.14,0,0,0,3528.43,827Z"/><path class="cls-13" d="M3578,1252.27h0c.87.38,18.26,8,44.27,16.75l1.73.58,2.75.92,4.68,1.52,3.21,1c1.32.42,2.65.83,4,1.24s2.57.79,3.87,1.18q4.89,1.48,10,2.94l3.64,1q3.58,1,7.25,2l1.68.44q5.13,1.34,10.4,2.6l1.91.45c1.73.41,3.46.81,5.21,1.2l2.24.5,2.21.49c3,.65,6.06,1.27,9.12,1.87l2.29.44,1.88.35c.22,0,.43.09.65.12,1.45.27,2.91.54,4.37.79l2.32.39,2.31.39,2.32.37q7.31,1.14,14.65,2l4,.44h0c1.34.14,2.69.28,4,.4h0l2,.17,1.81.15.4,0,1.79.13c2.69.2,5.38.36,8,.48l1.54.06,1.28,0,2.1.07,1.07,0,2,0,1.68,0h4.48l1.65,0c1.29,0,2.57-.05,3.85-.09l1.9-.08c3.88-.16,7.73-.42,11.52-.8l1.63-.17q.65-.06,1.29-.15l1.15-.13,1.26-.16,1.71-.23q2.79-.39,5.55-.87l1.57-.29q2.82-.53,5.59-1.15l1.64-.38c1.16-.27,2.31-.57,3.45-.87l1.7-.47h0q2.55-.72,5-1.53c.55-.18,1.1-.36,1.65-.56h0l1.61-.57c1.09-.39,2.17-.8,3.23-1.22l1.6-.65h0l1.55-.67c1-.44,2.05-.9,3.05-1.38l.12,0,1.46-.71h0c.5-.26,1-.5,1.49-.76l1.49-.78,0,0,1.45-.8c.83-.46,1.64-.94,2.45-1.42a82.11,82.11,0,0,0,25.68-24.11l.37-.54c.2-.32.39-.65.59-1s.23-.39.33-.58.27-.46.39-.68c.32-.57.63-1.14.93-1.72q1.13-2.13,2.1-4.3a72,72,0,0,0,6.28-29.42,73.26,73.26,0,0,0-9.94-36.79,72.21,72.21,0,0,0-41-32.76l-14.52-4.57L3626.74,1086,3578,1252.25Z"/><polygon class="cls-6" points="3476.64 764.39 3358.15 1145.11 3368.45 764.39 3476.64 764.39"/><polygon class="cls-19" points="3409.67 799.94 3452.87 840.76 3448.22 855.71 3407.95 814.02 3366.48 837.29 3366.87 822.86 3409.67 799.94"/><path class="cls-11" d="M3467.85,1067.39c-10.13.94-18,3.9-17.4,10.89.6,7.37,17,11.5,32.7,13.77-11.68,0-22.36,1.82-22.11,8.57.62,16.32,46.31.7,72.92,26.61,20.12,19.58,35.61,27.47,47.89,31.15,8.94,2.66,16.18,3.09,22.3,4.16,9.83-19.19,15.15-41.53,18-61.13-5.7-5.57-12.67-11.73-21.14-18.6s-18.36-14.39-30-22.74c-10.76-7.74-27.54-23.91-37.45-28-14.83-6-80.68-21.92-84.87-6-2.41,9.16,20.38,15.1,37.24,18.21-17.3-2-41.49-2.55-42.37,9.06C3443,1061,3454.41,1065.12,3467.85,1067.39Z"/><path class="cls-11" d="M3512.23,1094.67a203.68,203.68,0,0,0-29.08-2.62C3498,1094.18,3512.23,1094.67,3512.23,1094.67Z"/><path class="cls-11" d="M3486,1044.3c9.09,1.66,16.44,2.51,17.19,2.59C3502.46,1046.75,3495.2,1045.33,3486,1044.3Z"/><path class="cls-11" d="M3509.05,1070s-23.92-4.25-41.2-2.63C3486.49,1070.52,3509.05,1070,3509.05,1070Z"/><path class="cls-12" d="M3523.64,1049.65c-6.8-1.62-13.66-3.31-20.58-4.32s-13.87-1.78-20.85-2.15c-17.11-.89-28,1.23-27.28,1.17,16.19-1.37,41,1.88,47.92,2.89s13.85,1.67,20.76,2.68C3523.78,1050,3523.8,1049.69,3523.64,1049.65Z"/><path class="cls-12" d="M3520.44,1074.69c-8.81-4.18-36.1-8.6-52.38-7.47-.68,0-.49.33.2.41,8.83,1,43.41,5.81,52.15,7.27C3520.55,1074.93,3520.56,1074.75,3520.44,1074.69Z"/><path class="cls-12" d="M3521.55,1096.67c-11.76-4.07-25.75-5.45-40.72-4.59-.68,0-.37.44.32.51,13.57,1.27,24.22,2.17,40.29,4.54A.24.24,0,0,0,3521.55,1096.67Z"/><path class="cls-12" d="M3581.85,1158.38c8.94,2.66,16.18,3.09,22.3,4.16,9.83-19.19,15.15-41.53,18-61.13-5.7-5.57-12.67-11.73-21.14-18.6,0,0,.93,55.92-19.16,75.56Z"/><path class="cls-11" d="M3594.17,1077.37c-.32-.77-37.82-47.72-39.29-59.71-1.34-10.84-11.08-16.18-17.05-3.69s-4.25,18.14-4.25,18.14C3542.45,1035.74,3575.93,1067,3594.17,1077.37Z"/><path class="cls-15" d="M3578,1252.25c1-1.64,62.52-106.67,70.68-109.77s157.51,0,157.51,0h0L3626.74,1086Z"/><path class="cls-11" d="M3385.92,790.73c25.61,6.19,70.8-1.07,90.59-25.41,1.35-1.68-1.92-71.48-.74-85.37.26-2.85-112.8,15.32-112.8,15.32s8.43,29.68,6.18,53.87C3368.94,751.16,3361.17,784.73,3385.92,790.73Z"/><path class="cls-12" d="M3369.13,749.15c0,.24-.16,1.22-.39,2.74,64-3,93.71-30.14,107-50.24-.23-9.74-.23-17.84.08-21.67.23-2.87-112.78,15.28-112.78,15.28S3371.37,725,3369.13,749.15Z"/><path d="M3371,477s-35.75,14.79-42.34,51.08,1.64,74.37,4.77,76.24S3371,477,3371,477Z"/><path class="cls-11" d="M3511,523.12c12.57,38.45-5.7,150.57-32.76,176C3439,736,3430.55,730.06,3370.28,725.3c-66.82-5.28-32.58-223.51-2.25-246.75C3412.7,444.34,3492.38,466.32,3511,523.12Z"/><path d="M3420,586.52c14,1.13,10.71,29.06-2.26,28C3405,613.5,3408.29,585.57,3420,586.52Z"/><path d="M3366.44,579.86c-13.79-2.69-18.17,25.09-5.39,27.58C3373.62,609.9,3378,582.12,3366.44,579.86Z"/><path d="M3433.38,578.29A109.23,109.23,0,0,1,3423,573.2c-4-2-7.32-3.17-9.59-7.2-1.22-2.16-.19-5.65,1.79-7,4.63-3.22,10.08-2,14.94.22a21.65,21.65,0,0,1,11.3,10.77C3444,575,3438.25,580.14,3433.38,578.29Z"/><path d="M3354.17,568.09a107.7,107.7,0,0,0,11.44-1.57c4.38-.65,7.94-.72,11.36-3.82,1.83-1.67,2-5.31.51-7.25-3.39-4.51-8.95-5-14.26-4.47a21.62,21.62,0,0,0-14.11,6.67C3345.17,561.63,3349,568.33,3354.17,568.09Z"/><path class="cls-20" d="M3371.57,663.77s2.74,10.84,9.93,17.3a17.64,17.64,0,0,0,9.69,4.71c8,1.08,10.87-5.45,11.88-11.65a42.28,42.28,0,0,0,.33-10A50.94,50.94,0,0,1,3371.57,663.77Z"/><path class="cls-21" d="M3381.5,681.07a17.64,17.64,0,0,0,9.69,4.71c8,1.08,10.87-5.45,11.88-11.65C3395,671.75,3385.24,673.84,3381.5,681.07Z"/><path class="cls-22" d="M3390.57,639.78c4.28-.64,3-5.53-5.66-5.5a127.42,127.42,0,0,0-14,1.16c6.64-26.15,10.41-31.19,16.64-57.33a.83.83,0,0,0-1.51-.61c-13.15,25.27-14.44,35.36-22,62.2C3363,643,3386.29,640.43,3390.57,639.78Z"/><path class="cls-12" d="M3430.52,637.4c1.69,8.42,11.39,13.57,21.68,11.51s17.25-10.56,15.56-19-11.39-13.56-21.67-11.5S3428.83,629,3430.52,637.4Z"/><path class="cls-12" d="M3340.54,627.79c.65,8.56,5,15.21,9.66,14.85s8-7.58,7.32-16.14-5-15.21-9.66-14.85S3339.9,619.23,3340.54,627.79Z"/><polygon class="cls-23" points="3382.88 814.1 3409.67 799.94 3431.56 820.8 3410.95 842.01 3416.54 957.5 3358.15 1145.11 3363.21 958.24 3392.74 840.63 3382.88 814.1"/><polygon class="cls-24" points="3410.95 842.01 3392.74 840.63 3363.21 958.24 3396.69 851.7 3410.95 842.01"/><path d="M3535.18,541.39c-1.52,20-19.78,86.78-36,88.82-13.84,1.74-22.06-40.41-23.67-56.35-.28-2.66-.38-6.36-.38-10.63,0-7.32.32-16.31.69-24.63,0,0-3.38,1-9.44,2.22l-3.18-22.13L3458,542.21A157.36,157.36,0,0,1,3442,544.4l-4.59-28.95-8.31,29.44a125.15,125.15,0,0,1-16.83.68q-6-.11-12.33-.52a235.86,235.86,0,0,1-38.82-5.77l.12-24.58-10.26,22c-3.45-.93-3.46-1-7-2.16,0,0-26.06-16.75-25.44-42.85s12-34.25,30.41-45h0c17.08-12.43,46.88-24.54,71.38-21.52,35,4.31,74.2,55.47,76.11,57.95-.93-1.61-12.86-22.35-12.05-23.79s22.22,11.69,23.59,28.81c0,0-1-21.35.85-21.44s16.59,20.65,10.23,33.29C3519.16,499.92,3536.7,521.44,3535.18,541.39Z"/><path class="cls-25" d="M3390.64,511.34s10.87.55,21,1.22l-2.84,21.91c-7.4-.65-15.2-2.12-16.1-2.76C3391,530.51,3390.64,511.34,3390.64,511.34Z"/><path class="cls-25" d="M3430.66,514.66c0,1-3.73,15.13-6,19-.77,1.34-4.44,1.7-8.94,1.57l4.61-21.75C3426.2,513.89,3430.66,514.33,3430.66,514.66Z"/><path class="cls-11" d="M3487.18,620.09S3512.51,584,3528.92,593s-2.64,61.39-21.92,68.55S3480.74,651,3480.74,651Z"/><path class="cls-22" d="M3523.09,607.88a.26.26,0,0,1,.1.51c-13.52,5.46-20.65,18-25.64,30.94,4-5,9.5-7.72,16.2-2.94.35.25,0,.8-.37.72-5.53-1.19-9.53-.23-13.27,4.19-2.65,3.14-4.47,7.1-6.37,10.72-.63,1.21-2.81.56-2.35-.83,0-.1.07-.21.11-.31C3491.17,633.67,3504.58,609.59,3523.09,607.88Z"/><path class="cls-26" d="M3242.42,2553.72c0,4.37,2.76,7.92,6.16,7.92h257.05c19.17,0,34.09-16.41,32-35.19l-.26-2.4-7.45-66.85c-.33-2.89-2.88-4.34-4.78-2.72-9.27,8-39.53,38.87-59.56,23.9-33.66-25.16-62.58-24.61-62.58-24.61l-143.26,70.47c-11.59,5.34-15.49,15.11-16.77,21.93A31,31,0,0,0,3242.42,2553.72Z"/><rect class="cls-6" x="3401.43" y="2447.62" width="4.13" height="54.29" transform="translate(-432 4206) rotate(-60.31)"/><rect class="cls-6" x="3380.88" y="2457.98" width="4.13" height="54.29" transform="translate(-451.41 4193.31) rotate(-60.31)"/><path class="cls-27" d="M3242.42,2553.72c0,4.37,2.76,7.92,6.16,7.92h257.05c19.17,0,34.09-16.41,32-35.19l-.26-2.4c-9.75,4.95-31.53,14.88-53.95,17.37-25.31,2.83-180.78,6.84-240.45,4.75A31,31,0,0,0,3242.42,2553.72Z"/><path class="cls-26" d="M2713.42,2553.72c0,4.37,2.76,7.91,6.16,7.91h257.05c19.17,0,34.09-16.4,32-35.18l-.26-2.4-7.45-66.85c-.33-2.89-2.88-4.34-4.78-2.72-9.27,8-39.53,38.87-59.56,23.9-33.66-25.16-62.58-24.61-62.58-24.61l-143.26,70.47c-11.59,5.34-15.49,15.11-16.77,21.93A31,31,0,0,0,2713.42,2553.72Z"/><rect class="cls-6" x="2872.43" y="2447.62" width="4.13" height="54.29" transform="translate(-699.03 3746.42) rotate(-60.31)"/><rect class="cls-6" x="2851.88" y="2457.98" width="4.13" height="54.29" transform="translate(-718.43 3733.74) rotate(-60.31)"/><path class="cls-27" d="M2713.42,2553.72c0,4.37,2.76,7.91,6.16,7.91h257.05c19.17,0,34.09-16.4,32-35.18l-.26-2.4c-9.75,4.95-31.53,14.88-53.95,17.37-25.31,2.83-180.78,6.84-240.45,4.75A31,31,0,0,0,2713.42,2553.72Z"/><path class="cls-28" d="M2261.42,1974.5a25.45,25.45,0,0,0,24.81-31.19L2147.68,1345.1a25.45,25.45,0,0,0-49.58,11.48l138.56,598.21A25.45,25.45,0,0,0,2261.42,1974.5Z"/><polygon class="cls-10" points="1814.48 1325.83 2117.15 1326.05 2257.1 1924.91 1941.52 1924.91 1814.48 1325.83"/><path class="cls-28" d="M1970.25,1992.2h595.22a33.64,33.64,0,0,0,33.64-33.65h0a33.64,33.64,0,0,0-33.64-33.64h-644.7v17.8A49.48,49.48,0,0,0,1970.25,1992.2Z"/><path class="cls-28" d="M1948.43,1974.5a25.45,25.45,0,0,0,24.81-31.19L1834.69,1345.1a25.45,25.45,0,0,0-49.58,11.48l138.56,598.21A25.45,25.45,0,0,0,1948.43,1974.5Z"/><polygon class="cls-28" points="1970.25 1992.2 1903.64 2563.72 1926.37 2563.72 2029.1 1992.2 1970.25 1992.2"/><polygon class="cls-28" points="2244.2 1992.2 2310.82 2563.72 2288.09 2563.72 2185.36 1992.2 2244.2 1992.2"/><polygon class="cls-28" points="2222.35 2079.13 1987.63 2079.13 1978.33 2125.67 2240.29 2125.67 2222.35 2079.13"/><polygon class="cls-28" points="2562.92 1992.2 2629.53 2563.72 2606.8 2563.72 2504.07 1992.2 2562.92 1992.2"/><path class="cls-28" d="M1397.34,1974.5a25.45,25.45,0,0,0,24.81-31.19L1283.6,1345.1a25.44,25.44,0,1,0-49.57,11.48l138.55,598.21A25.45,25.45,0,0,0,1397.34,1974.5Z"/><polygon class="cls-10" points="950.4 1325.83 1253.07 1326.05 1393.02 1924.91 1077.45 1924.91 950.4 1325.83"/><path class="cls-28" d="M1106.17,1992.2h595.22a33.64,33.64,0,0,0,33.64-33.65h0a33.64,33.64,0,0,0-33.64-33.64h-644.7v17.8A49.48,49.48,0,0,0,1106.17,1992.2Z"/><path class="cls-28" d="M1084.35,1974.5a25.45,25.45,0,0,0,24.81-31.19L970.61,1345.1A25.44,25.44,0,1,0,921,1356.58l138.55,598.21A25.45,25.45,0,0,0,1084.35,1974.5Z"/><polygon class="cls-28" points="1106.17 1992.2 1039.56 2563.72 1062.29 2563.72 1165.02 1992.2 1106.17 1992.2"/><polygon class="cls-28" points="1380.13 1992.2 1446.74 2563.72 1424.01 2563.72 1321.28 1992.2 1380.13 1992.2"/><polygon class="cls-28" points="1358.27 2079.13 1123.56 2079.13 1114.25 2125.67 1376.21 2125.67 1358.27 2079.13"/><polygon class="cls-28" points="1698.84 1992.2 1765.45 2563.72 1742.72 2563.72 1639.99 1992.2 1698.84 1992.2"/><path class="cls-29" d="M1285.84,917.51l-15.41,25.84-19.38,32.49c-43.33-16.21-27,59.86-24.1,90.26.76,8.11,2,16.13,3.11,23.72,12.62,56.64-16.93,76.38-85,66.65h0c-1.17-.16-2.34-.34-3.54-.52-5.35-.83-25.11-4.23-29.76-5.59,25.76-4.65,28.38-19.94,23.91-29.83-5.12,14.78-24.83,18.65-39.44,17.92-27.22-21.7-33.79-54.38-33.79-54.38,17.82,9,33.65,3.07,45.63-6.08,17.47-13.33,27.43-34.14,28-56.1a147.88,147.88,0,0,0-5.57-42.68c-13.8-49.94,17.84-103.91,49.78-111.6C1221,857.8,1268,880.58,1285.84,917.51Z"/><path class="cls-30" d="M1270.43,943.35l-19.38,32.49c-43.33-16.21-27,59.86-24.1,90.26.76,8.11,2,16.13,3.11,23.72,12.62,56.64-16.93,76.38-85,66.65,25.21.55,40.45-18.1,47.81-42.59s-21.51-129.46,6.8-160C1220.94,930.92,1254.83,938.26,1270.43,943.35Z"/><path class="cls-31" d="M1227.4,932.57a49.54,49.54,0,0,0,4.72,43.24c4.44-2.76,10.56-3.1,18.93,0l34.79-58.32c-3.09-6.39,4.65-15.55,0-21C1265.5,896.54,1234.68,912.33,1227.4,932.57Z"/><path class="cls-29" d="M1451.9,1014.7c-2.28,6.31-5,12.58-7.74,18.77-1.52,3.43-3.07,6.83-4.59,10.2a174.71,174.71,0,0,1-31.06,47.37l-12.64,13.15L1346.1,1156l-75.35-52.06s-62.88,0-66.74-68.2c-3.78-66.62,48.56-84.1,50.94-84.86l.08,0a74,74,0,0,1,7.2-25.17,84.62,84.62,0,0,1,40.21-39.31c25.37-11.68,55.78-10.53,81.26.88s46.09,32.47,59.18,57.13C1454.29,965.86,1460.2,991.8,1451.9,1014.7Z"/><path class="cls-30" d="M1439.57,1043.67a174.71,174.71,0,0,1-31.06,47.37l-12.64,13.15c-7.55-4.75-14-13.89-17.89-27.38-11.69-41.07,17.51-103,17.51-103s5.48-20,16.84-17C1443.58,965.17,1441.09,1040.3,1439.57,1043.67Z"/><polygon class="cls-16" points="1608.91 2336.71 1586.31 2475.18 1667.14 2475.18 1706.65 2336.71 1608.91 2336.71"/><polygon class="cls-16" points="1328.09 2341.72 1303.55 2467.38 1385.32 2471.65 1435.51 2330.04 1328.09 2341.72"/><path class="cls-32" d="M1237.94,1618.84c-38.78,58.22-65,241.78,63.48,306h318.92c-20.26,55.07-72.71,378.85-81.89,453.59h203c28.31-78.67,165.69-503.41,105.25-569s-432.55-192-432.55-192Z"/><path class="cls-33" d="M1584.59,2379h-46c9.18-74.73,61.62-398.52,81.89-453.58h-231L1324.6,1679l125,6s213,71,224,124C1683.15,1855,1605.32,2270.08,1584.59,2379Z"/><path class="cls-32" d="M1119.13,1605.34c-33.71,50.6-57.93,209.35,20.64,288.7a104.76,104.76,0,0,0,74.45,30.82h148.61c-20.26,55.07-100.5,378.85-109.67,453.59h224.35c28.31-78.67,172.11-503.41,111.67-569s-265-129.12-265-129.12V1617.5Z"/><path class="cls-33" d="M1358.23,1943.05a2.62,2.62,0,0,0,2.5-1.84,466,466,0,0,1,32.53-78.59,2.61,2.61,0,1,0-4.62-2.44,471.76,471.76,0,0,0-32.9,79.48,2.61,2.61,0,0,0,1.72,3.27A2.29,2.29,0,0,0,1358.23,1943.05Z"/><path class="cls-33" d="M1362.72,1927.41a2.72,2.72,0,0,0,1-.18,2.62,2.62,0,0,0,1.47-3.39,169.85,169.85,0,0,1-11.56-51.13,2.49,2.49,0,0,0-2.79-2.43,2.62,2.62,0,0,0-2.43,2.78,175.43,175.43,0,0,0,11.92,52.7A2.61,2.61,0,0,0,1362.72,1927.41Z"/><path class="cls-33" d="M1559.18,2317h156.17a2.61,2.61,0,1,0,0-5.22H1559.18a2.61,2.61,0,1,0,0,5.22Z"/><path class="cls-33" d="M1296.5,2317h156.18a2.61,2.61,0,1,0,0-5.22H1296.5a2.61,2.61,0,1,0,0,5.22Z"/><path class="cls-34" d="M1460.48,1352.49c-30.75-77.89-48.13-96.72-48.87-154.43a286.1,286.1,0,0,0-29.95,7.34s-.66,37.27-34.3,57.75-114-42.54-114-42.54a246.62,246.62,0,0,0-51.1-22.54c-55.46-17-101.08-6.11-128.43,12.66-35.36,24.26-136.64,152.59-193.43,306.36s39.37,172.5,97.4,184.07c40.1,8,83.3-2.16,106.18-9.19,54.84-14.88,109.06-47.65,142.5-70.55h0c3.6-2.45,7-4.8,10-7,51.71,5.78,118.6,12.94,195.39,4.43l2.74-19s11.21-104.55,18.66-122S1491.23,1430.37,1460.48,1352.49Zm-350,110.63c-18.25,12.34-29.67,21.85-30.12,22.22,0-.08.22-.49.56-1.31l.12-.32q.11-.23.21-.48c0-.14.1-.28.16-.43.19-.48.41-1,.65-1.68.08-.21.17-.44.24-.67.39-1,.83-2.26,1.33-3.68.07-.21.14-.43.22-.64.21-.63.44-1.28.67-2,.11-.34.23-.7.34-1.07.2-.58.4-1.19.59-1.81.14-.42.28-.84.41-1.29,0,0,0-.07,0-.11.11-.35.22-.69.34-1,.33-1.07.67-2.19,1-3.38.12-.4.25-.79.36-1.21.65-2.17,1.35-4.54,2.07-7.12.09-.27.16-.53.23-.81,1.41-5,3-10.79,4.63-17.43.09-.33.17-.66.26-1,.26-1.07.53-2.14.81-3.25.15-.62.3-1.24.46-1.88s.34-1.41.52-2.14a.14.14,0,0,0,0-.07c.34-1.39.68-2.8,1-4.25.19-.78.37-1.58.56-2.4.09-.38.19-.77.28-1.16l.27-1.18c.19-.79.37-1.59.56-2.4s.37-1.63.57-2.46c3.35,28.09,10.59,46.42,10.59,46.42Z"/><path class="cls-35" d="M957.76,1701.16c40.09,8,83.29-2.16,106.16-9.19,54.85-14.88,109.07-47.65,142.52-70.54h0c3.3-2.67,6.48-5.05,9.53-7.07,43.33-28.79,61.46-58.44,61.46-58.44-49.52-43.08-45.34-147.74-45.34-147.74s-30.21,53.76-11.75,100.81-122,138-211.78,160.51c-87.39,21.93-175.07-36.34-150-147.38C805.66,1671.28,900.36,1689.72,957.76,1701.16Z"/><path class="cls-36" d="M1353.46,929.93s-80.73-.91-96.22,60.53c0,0,31.44-3.56,51.71-15.54,0,0-30.71,39.06-77.36,41.36,0,0,66.05,16.55,112.59-56.17l-38-1.18S1325,937.66,1353.46,929.93Z"/><path class="cls-34" d="M957.76,1701.16c40.09,8,83.29-2.16,106.16-9.19,54.85-14.88,109.07-47.65,142.52-70.54h0c3.3-2.67,6.48-5.05,9.53-7.07,43.33-28.79,61.46-58.44,61.46-58.44-49.52-43.08-45.34-147.74-45.34-147.74-76.24,14.34-150.6,76.2-151.75,77.17h0c.26-.57,12.59-27.2,31.15-124.53,9-47-3.82-83.38-19.61-108.53-17.25-27.47-38.09-41.57-38.09-41.57-34.84,23.91-133.64,148.81-190.87,299.55q-1.3,3.4-2.56,6.82c-.63,1.69-1.23,3.36-1.82,5C805.66,1671.28,900.36,1689.72,957.76,1701.16Z"/><rect x="1094.94" y="1426.74" width="4.36" height="3.38" transform="translate(-548.4 2160.79) rotate(-76.47)"/><path class="cls-35" d="M1010.77,1544.82l69.55-59.47s12.4-26.15,31.16-124.53c9-47-3.82-83.38-19.61-108.53l0,0c23.37,50-9.81,184.3-41,220S1010.77,1544.82,1010.77,1544.82Z"/><path class="cls-37" d="M1234.1,1450.59c2.87,25.57,9.56,57.94,25,83.13a94,94,0,0,0,18.36,22.18h0s12.44-19.46,11.16-51.19a125.24,125.24,0,0,0-6.82-35.58c-7.45-21.86-17.39-36.11-26.41-45.29-12.51-12.71-23.27-15.68-23.27-15.68A308.85,308.85,0,0,0,1234.1,1450.59Z"/><path class="cls-6" d="M1182.2,1198.06c11.69,10.71,25.37,28.79,43.49,47.83,28.42,29.87,77.88,55,134.49,42.75,45.59-9.87,53.12-68.61,51.43-90.58a284.38,284.38,0,0,0-29.95,7.35s-.66,37.26-34.3,57.74-114-42.54-114-42.54A246.52,246.52,0,0,0,1182.2,1198.06Z"/><path class="cls-16" d="M1233.31,1220.61h0c.94.73,80.6,62.88,114,42.53,33.64-20.48,34.3-57.74,34.3-57.74l-36.52,4.73s-.42-9.2-.57-20.23c-.18-12.59,0-27.58,1.53-34,0,0,45.54,13.62,69.49-21.66s9-131.71-20.11-160.47c0,0-57,55.75-116,69.16-6.49,12-24,28.2-21.72,48.34C1262.54,1133.34,1257.75,1169.17,1233.31,1220.61Z"/><path class="cls-16" d="M1283.17,1100.62s10.77-20.2-8.78-51.54c0,0-23.6-9.55-32.52,16.93S1263.52,1111.89,1283.17,1100.62Z"/><path class="cls-38" d="M1303.31,1123s-.51,58.75,41.26,66.88h0c-.18-12.59,0-27.58,1.53-34C1346.1,1156,1315.48,1138.45,1303.31,1123Z"/><path d="M1408.5,1028.55c-2-.25-3.86-.81-5.85-1.25-2.24-.51-4.08-.69-5.72-2.39a3,3,0,0,1,0-3.67c1.93-2.14,4.83-2.18,7.55-1.68a11.33,11.33,0,0,1,7,3.93C1413.43,1025.66,1411.19,1028.88,1408.5,1028.55Z"/><path d="M1350.93,1028.73a58.51,58.51,0,0,0,5.87-1.15c2.25-.47,4.09-.62,5.76-2.29a3,3,0,0,0,0-3.67c-1.9-2.17-4.8-2.26-7.53-1.81a11.33,11.33,0,0,0-7.09,3.81C1346.05,1025.76,1348.24,1029,1350.93,1028.73Z"/><path d="M1358.73,1044.27c-9.51-.56-10,18-1.15,18.53S1366.7,1044.75,1358.73,1044.27Z"/><path d="M1402.36,1043.68c9.52-.41,9.67,18.16.85,18.54S1394.38,1044,1402.36,1043.68Z"/><path class="cls-22" d="M1378,1076.81c-2.84-.86-1.47-4,4.43-3.07a91.73,91.73,0,0,1,9.42,2.21c-1.79-18-3.83-21.72-5.34-39.67a.57.57,0,0,1,1.09-.25c6.31,18.08,6.14,24.9,8.48,43.43C1396.37,1081.77,1380.83,1077.67,1378,1076.81Z"/><path class="cls-38" d="M1337.46,1072.24c-.1,5.75-6,10.3-13.24,10.18s-13-4.9-12.88-10.65,6-10.3,13.25-10.18S1337.57,1066.49,1337.46,1072.24Z"/><path class="cls-38" d="M1424,1073.77c-.1,5.75-2.81,10.36-6,10.3s-5.77-4.76-5.67-10.51,2.81-10.36,6-10.31S1424.14,1068,1424,1073.77Z"/><path class="cls-16" d="M1398.62,1424.89c10.71,1,19,4.13,18.4,11.52-.64,7.8-17.94,12.16-34.58,14.56,12.34,0,23.65,1.92,23.38,9.07-.66,17.26-49,.74-77.12,28.13-21.28,20.72-37.66,29.06-50.65,32.95-9.46,2.82-17.11,3.28-23.58,4.4-10.41-20.3-16-43.92-19.06-64.64,6-5.9,13.41-12.42,22.37-19.68s19.41-15.21,31.71-24c11.38-8.18,29.13-25.28,39.61-29.57,15.68-6.4,85.33-23.18,89.76-6.38,2.55,9.69-21.56,16-39.38,19.26,18.29-2.06,43.87-2.7,44.8,9.58C1424.89,1418.09,1412.83,1422.49,1398.62,1424.89Z"/><path class="cls-16" d="M1351.68,1453.75a214.4,214.4,0,0,1,30.76-2.78C1366.76,1453.23,1351.68,1453.75,1351.68,1453.75Z"/><path class="cls-16" d="M1379.44,1400.47c-9.61,1.76-17.38,2.66-18.18,2.75C1362,1403.06,1369.69,1401.57,1379.44,1400.47Z"/><path class="cls-16" d="M1355,1427.68s25.3-4.5,43.58-2.79C1378.9,1428.2,1355,1427.68,1355,1427.68Z"/><path class="cls-38" d="M1339.61,1406.14c7.19-1.72,14.45-3.5,21.76-4.58s14.67-1.88,22.05-2.27c18.11-.94,29.59,1.29,28.86,1.23-17.13-1.44-43.37,2-50.68,3.06s-14.65,1.77-22,2.84C1339.46,1406.44,1339.44,1406.18,1339.61,1406.14Z"/><path class="cls-38" d="M1343,1432.61c9.31-4.41,38.18-9.09,55.39-7.9.73,0,.52.35-.2.44-9.34,1.1-45.92,6.14-55.16,7.69C1342.88,1432.86,1342.87,1432.68,1343,1432.61Z"/><path class="cls-38" d="M1341.82,1455.86c12.44-4.3,27.24-5.76,43.07-4.85.71,0,.39.47-.34.53-14.35,1.35-25.61,2.3-42.61,4.81A.26.26,0,0,1,1341.82,1455.86Z"/><path class="cls-38" d="M1278.05,1521.12c-9.46,2.82-17.11,3.28-23.58,4.4-10.41-20.3-16-43.92-19.06-64.64,6-5.9,13.41-12.42,22.37-19.68,0,0-1,59.14,20.26,79.91Z"/><path class="cls-16" d="M1265,1435.45c.33-.82,40-50.47,41.56-63.15,1.41-11.46,11.72-17.11,18-3.9s4.49,19.18,4.49,19.18C1319.72,1391.42,1284.31,1424.52,1265,1435.45Z"/><path class="cls-35" d="M957.76,1701.16c40.09,8,83.29-2.16,106.16-9.19,54.85-14.88,109.07-47.65,142.52-70.54h0c3.3-2.67,6.48-5.05,9.53-7.07,43.33-28.79,61.46-58.44,61.46-58.44-49.52-43.08-45.34-147.74-45.34-147.74s-30.21,53.76-11.75,100.81-122,138-211.78,160.51c-87.39,21.93-175.07-36.34-150-147.38C805.66,1671.28,900.36,1689.72,957.76,1701.16Z"/><path class="cls-22" d="M1258,1057.89a.2.2,0,0,0-.11.38c9.72,5,14.19,14.82,17,24.85-2.66-4-6.57-6.41-11.89-3.3-.28.16-.07.6.22.56,4.22-.51,7.14.48,9.63,4,1.76,2.52,2.85,5.6,4,8.43.39,1,2.07.61,1.81-.46,0-.07,0-.16-.06-.24C1280.05,1079.32,1271.68,1060.43,1258,1057.89Z"/><path class="cls-39" d="M1397,1097.9s-3.3,11.44-11.18,18.07a18.84,18.84,0,0,1-10.49,4.68c-8.54.86-11.39-6.2-12.25-12.83a45.49,45.49,0,0,1,0-10.64A54.29,54.29,0,0,0,1397,1097.9Z"/><path class="cls-40" d="M1385.81,1116a18.84,18.84,0,0,1-10.49,4.68c-8.54.86-11.39-6.2-12.25-12.83C1371.72,1105.56,1382.08,1108.14,1385.81,1116Z"/><path class="cls-10" d="M1859.64,2563.71H1577.48c-2.1-3.67-3.24-8.89-3.71-15.1-1.77-23,5.84-59.74,9.57-82.9.45-2.7.84-5.23,1.14-7.51a77,77,0,0,0,.84-9.46c0-18.9,17.35-15.66,17.35-15.66,28.55,27,60.88-13.49,79.76-.21,0,0,8.13,5.62,30.54,25.05s60.5,32.26,92.93,45.35c41.87,16.87,53.74,33.73,56.06,45.34C1863.79,2557.8,1859.64,2563.71,1859.64,2563.71Z"/><path class="cls-41" d="M1859.64,2563.71H1577.48c-2.1-3.67-3.24-8.89-3.71-15.1H1862C1863.79,2557.8,1859.64,2563.71,1859.64,2563.71Z"/><path class="cls-6" d="M1606.27,2563.71h-8.39c8.37-9.21,16.2-23.35,15.17-43.56-1.36-26.88-18.09-45-29.71-54.44.45-2.7.84-5.23,1.14-7.51,12.53,9.23,33.64,29.44,35.29,61.63C1620.74,2539.13,1614.18,2553.53,1606.27,2563.71Z"/><path class="cls-6" d="M1708.18,2474a4.63,4.63,0,0,1-4.51-3.4,4.48,4.48,0,0,1,3.4-5.43l17.62-4.22a4.67,4.67,0,0,1,5.64,3.27,4.48,4.48,0,0,1-3.4,5.43l-17.62,4.22A4.9,4.9,0,0,1,1708.18,2474Z"/><path class="cls-6" d="M1690.67,2459.82a4.61,4.61,0,0,1-4.51-3.4,4.47,4.47,0,0,1,3.39-5.43l17.63-4.22a4.66,4.66,0,0,1,5.63,3.27,4.47,4.47,0,0,1-3.39,5.43l-17.63,4.22A4.76,4.76,0,0,1,1690.67,2459.82Z"/><path class="cls-6" d="M1725.81,2483.85a4.62,4.62,0,0,1-4.51-3.4,4.47,4.47,0,0,1,3.39-5.43l17.63-4.22a4.65,4.65,0,0,1,5.63,3.27,4.48,4.48,0,0,1-3.39,5.43l-17.63,4.22A4.76,4.76,0,0,1,1725.81,2483.85Z"/><path class="cls-6" d="M1743.44,2493.35a4.62,4.62,0,0,1-4.51-3.41,4.48,4.48,0,0,1,3.39-5.43l17.63-4.22a4.66,4.66,0,0,1,5.63,3.27,4.47,4.47,0,0,1-3.39,5.43l-17.63,4.22A4.84,4.84,0,0,1,1743.44,2493.35Z"/><path class="cls-6" d="M1762.65,2502.13a4.63,4.63,0,0,1-4.51-3.4,4.47,4.47,0,0,1,3.4-5.43l17.62-4.22a4.66,4.66,0,0,1,5.64,3.27,4.48,4.48,0,0,1-3.4,5.43l-17.62,4.22A4.84,4.84,0,0,1,1762.65,2502.13Z"/><path class="cls-6" d="M1783.5,2509.62a4.61,4.61,0,0,1-4.51-3.41,4.48,4.48,0,0,1,3.39-5.43l17.63-4.21a4.64,4.64,0,0,1,5.63,3.27,4.48,4.48,0,0,1-3.39,5.43l-17.63,4.22A4.82,4.82,0,0,1,1783.5,2509.62Z"/><path class="cls-10" d="M1574,2563.71H1291.82c-2.1-3.67-3.24-8.89-3.71-15.1-1.76-23,5.84-59.74,9.57-82.9.46-2.7.84-5.23,1.15-7.51a76.62,76.62,0,0,0,.83-9.46c0-18.9,17.36-15.66,17.36-15.66,28.55,27,60.88-13.49,79.76-.21,0,0,8.13,5.62,30.53,25.05s60.5,32.26,92.93,45.35c41.87,16.87,53.75,33.73,56.06,45.34C1578.14,2557.8,1574,2563.71,1574,2563.71Z"/><path class="cls-41" d="M1574,2563.71H1291.82c-2.1-3.67-3.24-8.89-3.71-15.1H1576.3C1578.14,2557.8,1574,2563.71,1574,2563.71Z"/><path class="cls-6" d="M1320.61,2563.71h-8.38c8.36-9.21,16.19-23.35,15.16-43.56-1.36-26.88-18.08-45-29.71-54.44.46-2.7.84-5.23,1.15-7.51,12.53,9.23,33.64,29.44,35.28,61.63C1335.09,2539.13,1328.52,2553.53,1320.61,2563.71Z"/><path class="cls-6" d="M1422.53,2474a4.61,4.61,0,0,1-4.51-3.4,4.47,4.47,0,0,1,3.39-5.43l17.63-4.22a4.66,4.66,0,0,1,5.63,3.27,4.48,4.48,0,0,1-3.39,5.43l-17.63,4.22A4.76,4.76,0,0,1,1422.53,2474Z"/><path class="cls-6" d="M1405,2459.82a4.63,4.63,0,0,1-4.51-3.4,4.47,4.47,0,0,1,3.39-5.43l17.63-4.22a4.66,4.66,0,0,1,5.63,3.27,4.47,4.47,0,0,1-3.39,5.43l-17.62,4.22A4.9,4.9,0,0,1,1405,2459.82Z"/><path class="cls-6" d="M1440.15,2483.85a4.63,4.63,0,0,1-4.51-3.4,4.47,4.47,0,0,1,3.4-5.43l17.62-4.22a4.66,4.66,0,0,1,5.64,3.27,4.48,4.48,0,0,1-3.4,5.43l-17.62,4.22A4.9,4.9,0,0,1,1440.15,2483.85Z"/><path class="cls-6" d="M1457.78,2493.35a4.63,4.63,0,0,1-4.51-3.41,4.48,4.48,0,0,1,3.39-5.43l17.63-4.22a4.66,4.66,0,0,1,5.63,3.27,4.47,4.47,0,0,1-3.39,5.43l-17.63,4.22A4.77,4.77,0,0,1,1457.78,2493.35Z"/><path class="cls-6" d="M1477,2502.13a4.61,4.61,0,0,1-4.51-3.4,4.47,4.47,0,0,1,3.39-5.43l17.63-4.22a4.65,4.65,0,0,1,5.63,3.27,4.48,4.48,0,0,1-3.39,5.43l-17.63,4.22A4.82,4.82,0,0,1,1477,2502.13Z"/><path class="cls-6" d="M1497.84,2509.62a4.62,4.62,0,0,1-4.51-3.41,4.48,4.48,0,0,1,3.39-5.43l17.63-4.21a4.64,4.64,0,0,1,5.63,3.27,4.48,4.48,0,0,1-3.39,5.43l-17.63,4.22A4.76,4.76,0,0,1,1497.84,2509.62Z"/><path class="cls-16" d="M1516.18,1453.94c40.16,23,128.87-31.71,138.23-33.55,8-1.59,49.23-13.56,75.53-24.08,3.75-8.59,9.67-21.5,14.23-28.12,7.21-10.47,48.43-39.61,55.22-31.06,8.78,11-11.7,32.54-23.11,41.76,0,0,.51.64,1.33,1.79,15.33-9.09,31.14-18.51,32.61-19.54,12.92-9,28.14-35.61,39-30.67,9,4.11-.77,17.44-.77,17.44s12.26-14.66,19.75-6.53-2.48,23.18-2.48,23.18,14.23-12.2,21.13-3.55-3.84,22.52-3.84,22.52,9.4-7.53,15.42,1.61-23.84,37.26-34.87,46.24c-10.09,8.21-55.62,29.66-71,36.28a6,6,0,0,1-.82.67c-27.3,17.67-92.41,37.48-145.39,38.37-43.73.74-144.67-4.14-159.69-27.39C1476.05,1462.93,1480,1433.24,1516.18,1453.94Z"/><path class="cls-38" d="M1849.48,1346.68c-11.24,19.54-19.53,26.15-39.16,36.52-.39.2-.17.81.25.64,20.14-8.4,31.75-15.19,39.89-36.67C1850.86,1346.12,1850,1345.75,1849.48,1346.68Z"/><path class="cls-38" d="M1866.54,1363c-13.44,19.28-22.38,26.52-42.14,38.89-.28.18,0,.67.28.52,20.4-10.51,31.82-17.55,42.73-38.58C1867.9,1362.88,1867.16,1362.11,1866.54,1363Z"/><path class="cls-38" d="M1882,1384.13c-14.37,17.73-23.83,26.1-44.55,35.64a.42.42,0,0,0,.3.78c22.08-7.67,34-18,44.74-35.92C1883.18,1383.4,1882.85,1383,1882,1384.13Z"/><path class="cls-38" d="M1800.81,1341c.75,15.84-15,27-25.41,36.75a1.3,1.3,0,0,0,.22,2.13c7.81,11.26,15.54,29.41,10.5,43a.33.33,0,0,0,.6.28c7.38-13.8,1.24-32.26-8.1-44,10.82-9.86,26.13-21.72,22.34-38.1A.08.08,0,1,0,1800.81,1341Z"/><path class="cls-34" d="M1772.12,1504.61s-122.33,107.71-294.89,116a434.66,434.66,0,0,1-65.35-1.79l2.74-19s11.21-104.55,18.66-122,58-47.49,27.21-125.38c-8.86-22.42-16.6-39.94-23.15-54.91-16.23-37-25.2-58.42-25.73-99.52,0,0,55.2-17.78,94,103.38l46.45,115.26,165-55.94S1770.55,1443.24,1772.12,1504.61Z"/><path class="cls-35" d="M1477.23,1620.63a434.66,434.66,0,0,1-65.35-1.79l2.74-19s11.21-104.55,18.66-122,58-47.49,27.21-125.38c-8.86-22.42-16.6-39.94-23.15-54.91,15.84,15.06,36.87,39.35,44.17,67.43,12.28,47.19-8.07,87.81-18.2,129.54C1453.75,1533.91,1455,1592.66,1477.23,1620.63Z"/><path class="cls-42" d="M1772.12,1504.61s-35.86-77-54-87.91-166,0-166,0l165-55.94S1770.55,1443.24,1772.12,1504.61Z"/><path class="cls-30" d="M1343.41,920.3c-.45,0-2.12-.21-4.78-.41A42.94,42.94,0,0,1,1343.41,920.3Z"/><ellipse class="cls-43" cx="1650.82" cy="1019.21" rx="125.87" ry="92.55"/><polygon class="cls-43" points="1553.74 1070.02 1503.3 1109.65 1587.99 1092.55 1553.74 1070.02"/><circle class="cls-6" cx="1652.61" cy="1019.21" r="12.95"/><circle class="cls-6" cx="1702.72" cy="1019.21" r="12.95"/><circle class="cls-6" cx="1602.51" cy="1019.21" r="12.95"/><polygon class="cls-16" points="2465.58 2340.28 2440.61 2469.28 2529.9 2469.28 2573.54 2340.28 2465.58 2340.28"/><path class="cls-44" d="M2427.7,2524.89c16,25,168.47,113.47,223.35,83.73,27.53-14.91,33.21-33.06,30.53-48.2-9.86,17.4-38.36,38.54-100.06,25.61-81.8-17.14-154-92.79-155.89-94.79C2422.8,2504.44,2422.51,2516.76,2427.7,2524.89Z"/><path class="cls-6" d="M2563.93,2581.44c5.79,1.8,11.66,3.36,17.59,4.59,61.7,12.93,90.2-8.21,100.06-25.61-2.65-15.05-13.56-27.12-19.46-30.11-6.34-3.21-29.81-9.95-54.79-23.65C2582.73,2518.72,2554.09,2541.71,2563.93,2581.44Z"/><path class="cls-34" d="M2494.45,2437.58l.27.91c.31,1,.63,2.1,1,3.18s.81,2.43,1.27,3.67c.21.58.43,1.17.66,1.76s.37,1,.56,1.42c.37.95.76,1.92,1.18,2.88l.63,1.46c.47,1,1,2.12,1.48,3.21l.85,1.75.82,1.61c.93,1.82,1.92,3.65,3,5.5.34.59.69,1.19,1.06,1.8s.71,1.19,1.09,1.79.75,1.2,1.14,1.8c.28.45.58.91.88,1.36.15.24.31.48.48.73.74,1.11,1.51,2.22,2.3,3.33.43.59.87,1.2,1.32,1.8s.87,1.17,1.33,1.76a.15.15,0,0,0,.05.07L2517,2481c2,2.5,4.11,5,6.37,7.46.34.38.7.76,1.05,1.13q3.57,3.79,7.61,7.47c.48.43,1,.88,1.47,1.31s.73.65,1.1,1,1,.89,1.57,1.33l1.89,1.56,1.69,1.33c.53.42,1.06.84,1.61,1.24.39.31.79.6,1.2.9l1.78,1.3,1.84,1.3,1.37.94,1.24.83c1.31.86,2.63,1.7,4,2.54.66.4,1.31.8,2,1.2l.08,0c.58.35,1.18.69,1.78,1l.46.27,1.94,1.08c.72.4,1.43.79,2.16,1.17q3.29,1.74,6.75,3.36l1.82.84,2.16,1,1.48.63c.52.22,1.05.45,1.58.66q2.29.95,4.69,1.84c8.2-8.15,18.21-14.37,27.63-19-21.74-11.91-44.61-29.07-58.35-53.76a106.44,106.44,0,0,1-3.38-49c-13.52-.69-46.72-1.68-52.55,4.85C2490.5,2411.58,2490.25,2422.82,2494.45,2437.58Z"/><path class="cls-45" d="M2425.63,2491.24c1.77,1.85,64,67.08,138.3,90.2-6.08-24.52,2.52-42.66,15.77-55.79q-2.4-.9-4.69-1.84c-.53-.21-1.06-.44-1.58-.66l-1.48-.63-2.16-1-1.82-.84q-3.46-1.62-6.75-3.36c-.73-.38-1.44-.77-2.16-1.17l-1.94-1.08-.46-.27c-.6-.34-1.2-.68-1.78-1l-.08,0c-.68-.4-1.33-.8-2-1.2-1.35-.84-2.67-1.68-4-2.54l-1.24-.83-1.37-.94-1.84-1.3-1.78-1.3c-.41-.3-.81-.59-1.2-.9-.55-.4-1.08-.82-1.61-1.24l-1.69-1.33-1.89-1.56c-.53-.44-1.06-.88-1.57-1.33s-.73-.64-1.1-1-1-.88-1.47-1.31q-4.05-3.67-7.61-7.47c-.35-.37-.71-.75-1.05-1.13-2.26-2.46-4.39-5-6.37-7.46l-1.24-1.59a.15.15,0,0,1-.05-.07c-.46-.59-.9-1.18-1.33-1.76s-.89-1.21-1.32-1.8c-.79-1.11-1.56-2.22-2.3-3.33-.17-.25-.33-.49-.48-.73-.3-.45-.6-.91-.88-1.36-.4-.6-.78-1.21-1.14-1.8s-.75-1.2-1.09-1.79-.72-1.21-1.06-1.8c-1.07-1.85-2.06-3.68-3-5.5l-.82-1.61-.85-1.75c-.51-1.09-1-2.16-1.48-3.21l-.63-1.46c-.42-1-.81-1.93-1.18-2.88-.19-.47-.38-.95-.56-1.42s-.45-1.18-.66-1.76c-.46-1.24-.88-2.47-1.27-3.67s-.68-2.14-1-3.18l-.27-.91c-19.32-3.86-33.61-15.91-33.61-15.91h0c-.49-.08-9.5-1.44-11.33,6C2448.23,2432.83,2431.49,2463.9,2425.63,2491.24Z"/><path class="cls-6" d="M2502.83,2492.9a2,2,0,0,1-.91-.21,2,2,0,0,1-.88-2.7c5-9.88,15.61-17.76,31.51-23.43a116.68,116.68,0,0,1,22.19-5.53,2,2,0,1,1,.5,4c-.39,0-39.74,5.33-50.62,26.8A2,2,0,0,1,2502.83,2492.9Z"/><path class="cls-6" d="M2524.24,2516.4a2,2,0,0,1-.9-.21,2,2,0,0,1-.89-2.7c5-9.88,15.62-17.77,31.51-23.43a117.05,117.05,0,0,1,22.19-5.53,2,2,0,0,1,.51,4c-.4.05-39.75,5.33-50.63,26.8A2,2,0,0,1,2524.24,2516.4Z"/><path class="cls-6" d="M2544.08,2538.06a2,2,0,0,1-.9-.22,2,2,0,0,1-.89-2.69c5-9.79,15.22-18.86,30.48-27a143.49,143.49,0,0,1,21.32-9.2,2,2,0,0,1,1.22,3.82c-.38.12-38.45,12.47-49.44,34.14A2,2,0,0,1,2544.08,2538.06Z"/><polygon class="cls-16" points="2167.14 2339.9 2140.44 2455.39 2229.4 2459.32 2284 2329.16 2167.14 2339.9"/><path class="cls-44" d="M2306.92,2597.71c-16.69,40.7-157.25,47.41-164-46.2,0,0,24-17.18,93.75-19.18,25.31-.72,38.53-13.83,54.95-6.93C2301.79,2540.74,2318.42,2569.64,2306.92,2597.71Z"/><path class="cls-6" d="M2302.86,2576.57c4.6,51.73-132.63,50.34-160-25.06,0,0,24-34.75,89.76-36.74,23.86-.73,43.46,3.73,58.94,10.63C2301.2,2540.74,2301.15,2557.43,2302.86,2576.57Z"/><path class="cls-45" d="M2291.58,2525.4a122.75,122.75,0,0,0-32-9.15,152.77,152.77,0,0,0-26.9-1.48c-19.26.58-34.94,4-47.48,8.48-30.29,10.89-42.28,28.26-42.28,28.26s-14-79.5,3.74-138.25l7.48,2.58a105.39,105.39,0,0,0,15.41,4.87c13.56,3.32,34.56,6.23,56.92,1a101.72,101.72,0,0,0,10.94-3.24l8.42,1.72s-7.49,32.84,7.48,56.17C2261.64,2489.37,2279.37,2505.93,2291.58,2525.4Z"/><path class="cls-34" d="M2259.54,2516.25a152.77,152.77,0,0,0-26.9-1.48c-19.26.58-34.94,4-47.48,8.48-15.29-25.37-16.83-86.67-16.52-96.93a23,23,0,0,1,.57-4.41q.14-.61.3-1.2c2.41-8.36,10.24-14.54,19.63-15.59,40.63-4.56,38,8.62,38,8.62-.33,2.69-.58,5.33-.74,7.94C2223.05,2476.23,2255.35,2511.87,2259.54,2516.25Z"/><path class="cls-6" d="M2163.54,2514.23a2,2,0,0,1-.89-3.71c2.06-1,51-25.2,95.35-8.59a2,2,0,1,1-1.37,3.66c-42.76-16-91.73,8.18-92.22,8.43A2,2,0,0,1,2163.54,2514.23Z"/><path class="cls-6" d="M2160.47,2495.92a2,2,0,0,1-.89-3.7c2.06-1,51-25.2,95.35-8.59a2,2,0,1,1-1.37,3.66c-42.76-16-91.73,8.18-92.22,8.42A1.83,1.83,0,0,1,2160.47,2495.92Z"/><path class="cls-6" d="M2157.4,2479.42a2,2,0,0,1-1-3.64c.39-.23,39.56-23,84-6.33a2,2,0,0,1-1.37,3.66c-42.67-16-80.28,5.82-80.66,6A1.87,1.87,0,0,1,2157.4,2479.42Z"/><path class="cls-6" d="M2159.35,2460.86a2,2,0,0,1-1-3.66c1.37-.77,34-18.56,78.4-1.93a2,2,0,1,1-1.37,3.66,101.37,101.37,0,0,0-53.71-5.22c-13.25,2.41-21.33,6.86-21.41,6.9A1.93,1.93,0,0,1,2159.35,2460.86Z"/><path class="cls-46" d="M1822.24,1600.81c55.78,40.16,125.5-11.15,125.5-11.15h468.48l3.35-205.25h138.31s-65.81-165.65-91.46-210.81-71.39-57.46-71.39-57.46l-89.8-23.42s-5.14-1.33-13.37-3.32l-2.45-.6c-17.06-4.1-44.93-10.46-68.43-14.13-22.39-3.51-44.76-2.36-68.13.92q-2.67.36-5.36.77-3.51.54-7,1.12l-3.1.52c-29.78,5.07-61.47,12.57-97,17.51-84.21,11.72-129.39,99.28-129.39,99.28s-91.47,191.85-108.2,234.24S1766.47,1560.66,1822.24,1600.81Z"/><path class="cls-6" d="M2167.05,1188.89c39.62,19.53,133.84-36.49,122.36-100.09-17.06-4.1-44.93-10.46-68.43-14.13-22.39-3.51-44.76-2.36-68.13.92C2136,1109.72,2124,1167.71,2167.05,1188.89Z"/><path class="cls-16" d="M2176.45,1168.35c23,8.26,71.13-21.07,87-50.66,7.15-13.37.64-23.38,1-49.52.32-15.87,1-33.53,2.86-49.6l-103.54,13s6.08,34.8,2.73,62.8a36.5,36.5,0,0,1-1.44,6.51c-.07.3-.2.66-.27,1.08C2161.33,1114.3,2154.24,1160.35,2176.45,1168.35Z"/><path class="cls-38" d="M2166.5,1094.4a36.1,36.1,0,0,1-1.2,5.65c48.81,19.91,85.68-11.13,99.59-47,.42-11.46,1.15-23.35,2.41-34.45l-103.52,13S2169.85,1066.44,2166.5,1094.4Z"/><path class="cls-16" d="M2302.21,907.9c4.51,37.32-32.36,136.28-61.6,154.6-42.38,26.58-102.71,19.11-123-29.76-19.67-47.37,30.67-175.48,62.48-191.21C2227,818.37,2295.54,852.76,2302.21,907.9Z"/><path class="cls-47" d="M2288.24,1004.49c-21.26-6.26-13.38-61.33-13.38-61.33s-14.78-14.93-7.55-40.09c0,0-44.93,21-133.46-3.65,0,0-2-22.11,13.7-46,0,0-13.48,16-30.14,45.15,0,0-10.16-78.29,57.87-95,27.06-6.65,65.46,1.39,119.88,39.41,0,0,16.64-33.53,22.71-27.88s-12,36.6-12,36.6,27.06-4.07,30.59,2c3,5.22-22.85,8-22.85,8s37.63,18.62,24.12,63.22C2325.33,965.82,2298.75,1007.59,2288.24,1004.49Z"/><path class="cls-47" d="M2306.56,860c23.46,2.74,41.89,22.94,41.75,46.72-.08,13.19-5.43,26.61-11.39,38.17-6.52,12.65-15.27,23.31-24.7,33.88-.52.58-1.35-.33-.81-.91,8.64-9.37,15.29-20.81,20.63-32.35,5-10.86,9.9-23,11.18-35,2.55-23.77-13.77-44.55-36.9-49.22C2305.59,861.13,2305.81,859.88,2306.56,860Z"/><path class="cls-47" d="M2228.71,798.94c14.77,5.52,28.91,13.8,41.7,23,12.26,8.78,24.05,18.62,32.74,31.06a.61.61,0,0,1-.92.81c-20.11-20.48-46-35.69-72-47.57-24.32-11.11-54.4-15.67-76.9,2.06a.37.37,0,0,1-.49-.55C2173.41,788.68,2203.93,789.66,2228.71,798.94Z"/><path class="cls-16" d="M2265.53,987.37s29.58-28.38,42.9-17.2-13.48,55.51-32.33,58.56-22-14.34-22-14.34Z"/><path class="cls-22" d="M2300.43,982.69a.25.25,0,0,1,0,.49c-13.29,2.54-22,12.66-28.93,23.6,4.57-3.83,10.05-5.34,15.29.23.27.29-.14.73-.47.59-4.83-2.08-8.64-1.93-12.84,1.43-3,2.38-5.35,5.67-7.73,8.63-.8,1-2.67,0-2-1.18,0-.09.1-.18.15-.27C2266.72,1000.46,2283.27,980.92,2300.43,982.69Z"/><path d="M2207.2,954.78c12.29,4.62,2.13,28.88-9.26,24.59C2186.73,975.14,2196.89,950.89,2207.2,954.78Z"/><path d="M2160.76,935c-11.7-6-22.8,17.85-12,23.39C2159.47,963.82,2170.57,940,2160.76,935Z"/><path d="M2221.33,950.83a103.92,103.92,0,0,1-8-7.25c-3-2.81-5.75-4.74-6.76-8.94-.53-2.26,1.29-5.14,3.43-5.86,5-1.7,9.57.82,13.37,4.06a20.21,20.21,0,0,1,7.37,12.59C2231.68,950.58,2225.22,953.75,2221.33,950.83Z"/><path d="M2152.77,921.23a101.31,101.31,0,0,0,10.68,1.53c4.11.55,7.32,1.41,11.2-.5,2.08-1,3.13-4.27,2.33-6.38-1.88-4.92-6.74-6.84-11.66-7.7a20.21,20.21,0,0,0-14.4,2.36C2146.35,913.1,2148,920.09,2152.77,921.23Z"/><path class="cls-39" d="M2160.86,1008.74s2.23,9.07,8.2,14.51a14.8,14.8,0,0,0,8.08,4c6.66.94,9.11-4.5,10-9.67a35.4,35.4,0,0,0,.33-8.34A42.58,42.58,0,0,1,2160.86,1008.74Z"/><path class="cls-40" d="M2169.06,1023.25a14.8,14.8,0,0,0,8.08,4c6.66.94,9.11-4.5,10-9.67C2180.42,1015.53,2172.23,1017.23,2169.06,1023.25Z"/><path class="cls-22" d="M2167,995c4,.53,4.14-4.19-3.67-6.4a120.76,120.76,0,0,0-12.92-2.59c12.72-21.78,17.41-25.34,29.75-47.22.42-.79-.64-1.56-1.2-.94-18.34,19.32-22.1,28.05-35.81,50.22C2141.4,990.86,2163,994.51,2167,995Z"/><path class="cls-38" d="M2203.5,1003.21c-.66,8,6.74,15.13,16.51,15.93s18.23-5,18.88-13-6.73-15.13-16.51-15.94S2204.15,995.21,2203.5,1003.21Z"/><path class="cls-38" d="M2125.12,971.35c-1.62,7.86.55,14.95,4.85,15.84s9.11-4.76,10.74-12.61-.55-15-4.85-15.84S2126.75,963.49,2125.12,971.35Z"/><path class="cls-48" d="M2258.44,864.55s-61.13-23.51-85.27,6.25c0,0,24.59,7,42.4,6.09,0,0-31.19,13-67.1,1,0,0,46.84,28,96.85.83l-28.61-11.48A93.49,93.49,0,0,1,2258.44,864.55Z"/><path class="cls-16" d="M2049.24,1459.71s-60.79,112.1-108.76,139.43-114.89,35.69-114.89-48.53,69.16-102.62,108.76-124.93,80.31-49.63,80.31-49.63,33.47-20.78,61.35-11.71c41.61,13.52,59.35,41.87,75.92,52a16.93,16.93,0,0,1,7.87,12.12c3.44,24.22,7.11,78.45,23.85,94.85,13.39,13.1,4.46,36.81-30.11,4.46,0,0,2.78,35.69-7.81,41.27s-13.95-7.81-13.95-7.81-8.92,17.29-25.65-2.23c0,0-11.71,3.91-22.87-15.06s-8.36-50.75-8.36-50.75S2051.47,1480.9,2049.24,1459.71Z"/><path class="cls-38" d="M1877.67,1455.89c-16.54,24.58-38.75,79.37,7.82,161.91-32.38,2.71-59.9-13.2-59.9-67.19C1825.59,1500.85,1849.74,1474.07,1877.67,1455.89Z"/><rect class="cls-38" x="2148.26" y="1461.23" width="1.76" height="66.81" transform="translate(-177.85 295.53) rotate(-7.55)"/><rect class="cls-38" x="2126.93" y="1475.97" width="1.76" height="85.42" transform="translate(-132.06 204.55) rotate(-5.34)"/><rect class="cls-38" x="2101.97" y="1489.93" width="1.76" height="69.21" transform="translate(-134.91 205.97) rotate(-5.43)"/><path class="cls-38" d="M2092.8,1486.59l-.67-1.62c32.41-13.54,51.71-40.42,51.9-40.69l1.44,1C2145.28,1445.57,2125.7,1472.85,2092.8,1486.59Z"/><path class="cls-38" d="M2049.24,1459.71l-3.62-30s-14.75,25.42-4.87,44.92Z"/><polygon class="cls-49" points="1996.66 1387.83 2027.49 1248.89 2023.89 1371.22 1996.66 1387.83"/><path class="cls-50" d="M1787.61,1544.14a1.67,1.67,0,0,1-1.66-1.48,147.55,147.55,0,0,1,1.74-38.9c5-27.89,17.79-48.78,37-60.4a168.53,168.53,0,0,1,38.1-17.17,1.67,1.67,0,1,1,1,3.2,165.07,165.07,0,0,0-37.34,16.83c-44.57,26.93-37.26,95.37-37.19,96.06a1.67,1.67,0,0,1-1.47,1.85Z"/><path class="cls-50" d="M1934.35,1427.36a1.54,1.54,0,0,1-.56-.1c-.16,0-15.9-5.51-40.1-3.59a1.68,1.68,0,1,1-.26-3.34c25-2,40.82,3.54,41.48,3.78a1.67,1.67,0,0,1-.56,3.25Z"/><polygon class="cls-49" points="2414.29 1276.81 2410.37 1245.54 2429.81 1276.81 2414.29 1276.81"/><path class="cls-16" d="M2503.15,1206.3l73.1,25.34s-.5-17.31,4.85-22.52,37.83-14,42.55-30.3a100.5,100.5,0,0,0,4-29.93s18.8-33,33.49-48,4.52-18-8.56-15.11-31.82,22.83-31.82,22.83-.14-52.91-6.43-53.33-13.75,1.56-15.44,30.1c0,0-2.68-21.09-13.27-17.85s-3.51,64.28-3.51,64.28l-28.49,10.59s-.52-37.31-12.3-41-16,2.93-12.58,11.86,8.14,27.74-4.12,37.11S2503.59,1174.19,2503.15,1206.3Z"/><path class="cls-38" d="M2611.78,1149.78l-2.62-.35,1.31.17-1.32,0c-.13-1.7-7-39.22-11.57-64l2.6-.48C2611.92,1148.74,2611.81,1149.52,2611.78,1149.78Z"/><rect class="cls-38" x="2583.42" y="1131.55" width="2.64" height="27.04" transform="translate(-173.71 526.18) rotate(-11.25)"/><path class="cls-38" d="M2534.73,1187.88l-2.61-.41c4.3-27.93,31.65-28.2,32.19-28.2h0v2.64C2563.28,1161.92,2538.7,1162.08,2534.73,1187.88Z"/><path class="cls-38" d="M2620.75,1108.61l6.89,40.28s18.8-33,33.49-48,4.52-18-8.56-15.11S2620.75,1108.61,2620.75,1108.61Z"/><polygon class="cls-16" points="2503.15 1206.3 2476.9 1276.81 2575.55 1276.81 2576.25 1231.64 2503.15 1206.3"/><path class="cls-32" d="M2099.33,1618c-38.79,58.23-65,241.79,63.48,306h318.92c-20.27,55.07-72.71,378.85-81.89,453.59h203c28.31-78.67,165.7-503.41,105.26-569s-307.7-192-307.7-192Z"/><path class="cls-33" d="M2445.59,2378h-46c9.18-74.73,61.62-398.52,81.89-453.58h-231L2185.6,1678l125,6s213,71,224,124C2544.15,1854,2466.32,2269.08,2445.59,2378Z"/><path class="cls-32" d="M1980.52,1604.47c-33.71,50.6-57.93,209.35,20.64,288.69a104.73,104.73,0,0,0,74.45,30.83h148.61c-20.27,55.07-100.5,378.85-109.68,453.59h224.35c28.31-78.67,172.12-503.41,111.68-569s-265-129.12-265-129.12v-62.86Z"/><path class="cls-33" d="M2219.62,1942.18a2.62,2.62,0,0,0,2.5-1.84,466,466,0,0,1,32.53-78.59,2.62,2.62,0,0,0-4.63-2.44,472.25,472.25,0,0,0-32.9,79.48,2.62,2.62,0,0,0,2.5,3.39Z"/><path class="cls-33" d="M2224.1,1926.54a2.68,2.68,0,0,0,1-.18,2.62,2.62,0,0,0,1.47-3.39,170.22,170.22,0,0,1-11.56-51.13,2.47,2.47,0,0,0-2.78-2.43,2.61,2.61,0,0,0-2.43,2.78,175.11,175.11,0,0,0,11.91,52.7A2.63,2.63,0,0,0,2224.1,1926.54Z"/><path class="cls-33" d="M2420.57,2316.15h156.17a2.62,2.62,0,0,0,0-5.23H2420.57a2.62,2.62,0,1,0,0,5.23Z"/><path class="cls-33" d="M2157.89,2316.15h156.18a2.62,2.62,0,0,0,0-5.23H2157.89a2.62,2.62,0,0,0,0,5.23Z"/><path class="cls-51" d="M1226.4,1921.47c-20.31-19.91-46.57-44-77.63-35.38-29.23,8.08-40.41,40-45.65,66.55-6.74,34.26-12,68.85-17.43,103.33q-8.24,52.25-15.66,104.6-4.24,29.54-8.38,59.09-2.07,14.78-4.11,29.56c-1.34,9.66-3,19.32-3.49,29.06-.17,3.11,4.71,3.56,5.39.6,3.76-16.43,5.32-33.52,7.73-50.2s4.85-33.54,7.31-50.31q7.3-50,14.93-99.9t15.53-99.85c4.5-28.21,6.63-63.26,31.64-81.86,13.72-10.21,31.22-10.32,46.76-4.39,16.46,6.28,29.61,18.06,42.48,29.72A.42.42,0,0,0,1226.4,1921.47Z"/><path class="cls-52" d="M1198.6,1901.13s-41.54-15-62,15.36,4,107.4,193.11,150.9c0,0-5-82.54-45.5-170.94S1171.41,1841.52,1198.6,1901.13Z"/><path class="cls-28" d="M1318.81,2054.77c-2.6-5.36-6.28-10.34-9.51-15.34s-6.36-9.72-9.59-14.55c-2.43-3.63-4.92-7.23-7.4-10.83.18-.87.23-1.79.35-2.7.22-1.64.43-3.28.65-4.91.46-3.55,1-7.08,1.5-10.62s1.11-7,1.78-10.55,1.05-7.8,2.48-11.14c.23-.55-.76-.83-.83-.18a40.94,40.94,0,0,1-1.69,6.27c-.44,1.58-.86,3.18-1.27,4.77q-1.38,5.38-2.6,10.8c-.74,3.33-1.37,6.68-1.94,10-.28,1.61-.52,3.23-.74,4.85q-5-7.22-10.35-14.24c-10-13.23-20.66-26-31.65-38.38,0-.12.16-.19.17-.34,1-19.87.5-39.53,4.91-59.08.12-.53-.68-.83-.8-.29-4.14,18.34-8.26,37.59-7.07,56.53q-5.91-6.62-12-13.11-13.82-14.85-28.17-29.2a.43.43,0,0,0-.63.59c15.94,17.15,31.07,35,45.81,53.21-11.48-.38-23.15.43-34.56,1.27-12.82.95-25.57,2.59-38.3,4.35-.54.08-.38.92.17.84a359.71,359.71,0,0,1,38.23-3.42c12.34-.52,24.61,0,36.93,0q12,14.82,23.61,29.86l-1.76,0c-2.89,0-5.79-.1-8.69,0-5.75.1-11.5.5-17.23,1a262.21,262.21,0,0,0-34.92,5.23.42.42,0,0,0,.17.83c11.62-1.31,23.26-2.4,34.95-2.81,5.58-.19,11.15-.19,16.73-.19,2.9,0,5.8,0,8.69,0,1.75,0,3.32.22,4.78-.44,5.08,6.6,10.18,13.2,15.21,19.84q6,7.92,11.86,16c4,5.49,7.57,11.49,12,16.63C1318.45,2055.64,1319,2055.2,1318.81,2054.77Z"/><path class="cls-28" d="M1216.69,1944.08c-6.64-1.09-13.52-1-20.23-1s-13.5.2-20.24.43a.42.42,0,1,0,0,.84c6.84-.49,13.67-.61,20.53-.5,6.61.09,13.25.73,19.86.55A.17.17,0,0,0,1216.69,1944.08Z"/><path class="cls-28" d="M1276,1959.32c.77-6.45,1.58-13,3-19.3a.43.43,0,1,0-.83-.18c-1,6.36-2.2,12.67-3.15,19-.47,3.19-.9,6.37-1.29,9.57-.36,2.91-1,6.08-.77,9a.58.58,0,0,0,1.1.08c.77-2.86.7-6.06,1-9S1275.67,1962.39,1276,1959.32Z"/><path class="cls-28" d="M1263.6,1887.76c-1.66,6.29-3.3,12.65-4.46,19-.58,3.24-1.08,6.51-1.52,9.77s-1,6.41-.63,9.56c0,.25.42.27.49,0,.92-2.91,1.09-6.09,1.49-9.1s.9-6.28,1.45-9.41c1.14-6.59,2.31-13.12,4-19.61C1264.54,1887.52,1263.74,1887.23,1263.6,1887.76Z"/><path class="cls-51" d="M1017.36,2271.3q-1.58-17.87-3.46-35.69-3.72-35.34-8.52-70.54c-3.15-23.41-6.16-46.87-9.92-70.18-1.73-10.69-3.51-21.65-7.21-31.87-3.19-8.78-8.45-16.73-17.65-19.91-22.25-7.68-37.26,15.39-46.25,31.71-.27.49.44.85.75.41,5.38-7.73,20.25-29.43,37.12-28.42,11.36.68,20.45,8.72,25.9,37,13.58,70.56,25.82,213.74,27.25,223.11.76,5,4.27,4.75,4.3-.57C1019.74,2294.68,1018.38,2283,1017.36,2271.3Z"/><path class="cls-52" d="M930.35,2066s19.45-68.66-23.54-34.33c-71.56,57.16-74.1,181.48-74.1,181.48s127.21-73.89,143-122.62C999.3,2018,930.35,2066,930.35,2066Z"/><path class="cls-28" d="M954.43,2099.75c-10,2-20.1,3.35-30.18,4.8q-7.15,1-14.32,2c-3.22.45-6.49.75-9.73,1.15,9.47-13.05,19-26.05,28.11-39.37.35-.51-.44-1.05-.85-.63a295.41,295.41,0,0,0-21.26,24.54c-1.86-5.32-3.76-10.63-5.63-15.94-2.17-6.15-4.49-12.27-6.06-18.61-.13-.53-1-.28-.81.25,1.73,6.29,3,12.72,4.65,19,1.62,6.09,3.47,12.11,5.63,18-4.66,6.05-9.12,12.24-13.47,18.5-2.19-6.2-4.91-12.2-6.82-18.5a.43.43,0,0,0-.82.24c2.28,7,3.51,14.22,5.65,21.23-2.92,4.26-5.84,8.53-8.63,12.83-5.14,7.94-10,16-14.72,24.17a1.89,1.89,0,0,0-1.11,1.92c-8,13.9-15.68,28-23.22,42.24a.42.42,0,0,0,.74.41c7.55-14.06,15.95-27.74,24.69-41.19h.09c.93-.51,3-.57,4.16-.8,1.47-.31,2.93-.64,4.4-1,3.29-.71,6.54-1.56,9.81-2.38,6.45-1.6,12.84-3.12,19.39-4.25.54-.09.29-.92-.25-.82-7.7,1.47-15.42,2.34-23.21,3.24-3.67.43-7.33.9-11,1.48l-.53.08q6.86-10.42,13.9-20.67c4.63-6.7,9.37-13.32,14.15-19.93,4.41-.62,8.78-1.78,13.16-2.61q7.38-1.41,14.76-2.88c9.85-2,19.65-4.15,29.56-5.79C955.21,2100.48,955,2099.64,954.43,2099.75Z"/><path class="cls-28" d="M878,2106.52c-.59-1.81-1.14-3.64-1.72-5.46a109.09,109.09,0,0,1-2.91-11.52c-.11-.53-.94-.29-.82.25.83,3.88,1.74,7.74,2.62,11.6a75,75,0,0,0,3.32,11.42.77.77,0,0,0,1.47-.44C879.4,2110.39,878.62,2108.47,878,2106.52Z"/><path class="cls-28" d="M967.45,2083.85c-5.81.87-11.66,1.28-17.5,1.79s-11.65,1.33-17.48,2.2c-.32,0-.33.54,0,.52,5.86-.41,11.67-.86,17.5-1.62s11.63-1.63,17.49-2C968,2084.67,968,2083.77,967.45,2083.85Z"/><path class="cls-51" d="M1111,2184.36c-2.26-50.56-5.46-101-10.55-151.38-2.53-25.08-5.36-50.14-8.89-75.1-3.46-24.46-7.68-48.91-14.48-72.68-5.21-18.2-12-36.47-24.2-51.25-12-14.58-29.68-23.71-48.88-21.34-22.13,2.74-40,16.68-55.36,31.82-17.29,17-33.12,35.54-49.13,53.72q-6.08,6.9-12.06,13.88c-.35.42.26,1,.62.59,15.66-18,31.92-35.46,48.94-52.17,15.73-15.44,31.93-32.32,53.72-38.7,10.09-3,21-3.77,31.21-.73a49.61,49.61,0,0,1,21.33,13.5c12.26,12.76,19.15,30,24,46.76,13.6,46.47,18.47,95.2,23.52,143.19,5.13,48.76,8.59,97.65,11,146.61,2.47,49.22,4.39,98.5,9.13,147.58.58,6.05,1.37,12.09,2.14,18.13.51,4.06,6.82,4.06,6.48-.16C1115.58,2285.92,1113.24,2235.17,1111,2184.36Z"/><path class="cls-53" d="M945.83,1849.91s28.87-53.43-5.24-70.57S792.3,1889.64,758.94,2076c0,0,184.41-81.59,247-162.89S997.6,1813.92,945.83,1849.91Z"/><path class="cls-52" d="M972.94,1893.36c-20.72.05-41.39-1.57-62.12-1.42,3.88-4.45,7.75-8.92,11.67-13.34,5.43-6.11,11.62-12,16.2-18.82.3-.43-.33-1-.74-.71-5.76,4.51-10.68,10.41-15.69,15.73q-7.78,8.27-15.49,16.61c-7.93,8.57-15.69,17.28-23.43,26,0-.85,0-1.69,0-2.51,0-3.63,0-7.26,0-10.89,0-7,.15-14.06.22-21.09.13-14.25.1-28.57,1.09-42.79,0-.55-.82-.52-.86,0-1,14.3-2.46,28.53-3.17,42.84-.34,7-.51,14.06-.6,21.1,0,3.63-.1,7.26-.07,10.89,0,2-.06,4.06.09,6.1-1.21,1.37-2.46,2.7-3.66,4.07-16.54,18.9-32.27,38.45-47.58,58.34,0-1.1-.17-2.22-.27-3.3-.22-2.19-.48-4.38-.72-6.57-.54-4.76-1.19-9.5-1.91-14.23-.66-4.45-1.37-8.88-2.11-13.32-.84-5-2.06-10-2.44-15.06a.42.42,0,1,0-.83.13c1,4.94,1.25,10.16,1.73,15.18q.64,6.84,1.26,13.68c.41,4.56.82,9.13,1.29,13.69.23,2.19.43,4.38.66,6.57.12,1.1.26,2.2.4,3.29a6.39,6.39,0,0,0,.89,2.61c-2.63,3.43-5.27,6.85-7.88,10.3-10.46,13.84-20.72,27.83-31,41.81-.32.43.28,1,.62.59,9.72-12.68,19.73-25.13,29.87-37.47,7.58.32,15.32-.23,22.91-.36,8-.13,16-.17,24-.2a.43.43,0,0,0,0-.85c-8,.14-16,.26-24,.29-7.29,0-14.73-.33-22,.06q13.37-16.24,27-32.34c3.29-3.92,6.61-7.83,9.9-11.74,3,.62,6.22.31,9.26.31,3.64,0,7.27,0,10.91,0,6.81,0,13.62-.18,20.43-.28,14.08-.22,28.16-.69,42.23-.72a.43.43,0,0,0,0-.85c-14.09-.18-28.18-.79-42.27-1.14-6.82-.17-13.64-.4-20.46-.49l-10.91-.12c-2.06,0-4.2-.17-6.3-.09q11.61-13.78,23.23-27.54a1,1,0,0,0,.43-.5c7.56-8.91,15.12-17.83,22.76-26.67,1-1.21,2.11-2.4,3.16-3.61,21.49.67,42.94-.74,64.42-.32C973.51,1894.23,973.49,1893.36,972.94,1893.36Z"/><path class="cls-52" d="M962.34,1930l-5,0a.39.39,0,0,0,0,.77l5,0A.43.43,0,0,0,962.34,1930Z"/><path class="cls-52" d="M951.18,1930.07q-10-.15-19.92-.42l-10-.32c-3-.1-6.35-.56-9.26.11-.33.07-.27.53,0,.62,2.87.86,6.3.6,9.28.65,3.31.07,6.63.11,9.95.14q10,.11,19.91.07A.43.43,0,0,0,951.18,1930.07Z"/><path class="cls-52" d="M893.21,1992.3c-13.5-1.89-27.13-3.8-40.78-3.68-.2,0-.18.28,0,.3,13.55,1.29,27.12,2,40.57,4.21C893.54,1993.22,893.75,1992.38,893.21,1992.3Z"/><path class="cls-52" d="M837.77,1933c-.13-1.18-.26-2.37-.42-3.55-.35-2.67-.77-5.33-1.19-8q-1.2-7.59-2.64-15.15c-.09-.47-.9-.34-.84.13q1,7.81,1.69,15.66c.23,2.56.43,5.13.66,7.7.21,2.32,0,5.19,1,7.31.39.8,1.58.47,1.78-.28A9.89,9.89,0,0,0,837.77,1933Z"/><path class="cls-51" d="M1109.15,1781.29c-6.6-12.29-15-28.52-31.47-27.49-13.6.85-19.74,14.73-22.64,26.21-9,35.48-9.62,72.92-11.37,109.28-3.7,76.87-7,153.81-7.5,230.77-.14,21.34-.06,42.67.13,64,.2,21.76.15,43.64,1.53,65.36a1.6,1.6,0,0,0,3.2-.08c.12-18.61-.54-37.23-.62-55.84q-.11-27.26.37-54.49.88-55.17,2.94-110.32c1.35-36.54,3-73.06,4.51-109.6q1.15-27.37,2.37-54.76c.8-17.69,1.56-35.39,3.58-53,1.14-9.85,2.59-19.71,4.65-29.41,1.47-6.93,3.57-14.4,8.5-19.72,6.51-7,16.34-6.51,24.05-1.74,8,4.93,12.84,13.14,17,21.27C1108.68,1782.22,1109.41,1781.77,1109.15,1781.29Z"/><path class="cls-52" d="M1104.69,1775.42s-13.54-47.83,16.4-23.91c49.85,39.81,51.62,126.41,51.62,126.41s-88.61-51.47-99.63-85.41C1056.67,1741.94,1104.69,1775.42,1104.69,1775.42Z"/><path class="cls-28" d="M1154.07,1842.42c-.81-1.32-1.68-2.61-2.52-3.92a25.26,25.26,0,0,0,0-4.08c0-2.06,0-4.12,0-6.18q.14-6.06.44-12.11c0-.55-.82-.53-.85,0q-.32,5.94-.48,11.89c-.06,2-.15,4-.21,6,0,.77-.13,1.66-.17,2.55-3.48-5.4-7-10.75-10.75-16-1.07-1.53-2.19-3-3.28-4.52-.81-5.11-.33-10.48-.27-15.62.07-5.56.15-11.11.34-16.67,0-.55-.84-.53-.85,0-.16,5.78-.45,11.56-.75,17.33a116.25,116.25,0,0,0-.34,12.38c-8.56-11.64-17.63-22.86-26.82-34-.31-.37-1,.16-.66.54,5.69,7.2,11.15,14.59,16.49,22.06-10.43-2.43-21-3.83-31.62-5.36-.54-.08-.75.75-.21.83,11.22,1.69,22.23,4.51,33.3,7,.09,0,.14,0,.22,0q6.36,9,12.61,18c1.7,2.45,3.35,4.94,5,7.41l-.47-.06c-1.15-.17-2.3-.34-3.45-.47-2.45-.3-4.91-.5-7.37-.69-5.11-.4-10.23-.67-15.34-.94-.55,0-.53.84,0,.85,5,.12,10,.5,15.06,1,2.64.29,5.28.65,7.92,1l3.46.41,1,.14q4.25,6.29,8.52,12.56c5,7.4,9.47,15.32,14.81,22.47a.41.41,0,0,0,.69-.43C1163.87,1857.62,1158.72,1850,1154.07,1842.42Z"/><path class="cls-28" d="M1132,1788.39c0-1.86,0-3.72,0-5.59a84.76,84.76,0,0,1,.47-11.71c.08-.62-.84-.71-.84-.1,0,3.88-.43,7.75-.61,11.62-.1,1.93-.1,3.87-.11,5.81,0,.89,0,1.78,0,2.68a8.34,8.34,0,0,0,.21,2.78.39.39,0,0,0,.74,0,8.13,8.13,0,0,0,.11-2.56C1132,1790.33,1132,1789.36,1132,1788.39Z"/><path class="cls-28" d="M1121.05,1808.2c-3.3-.56-6.68-.73-10-1-3.66-.31-7.3-.64-11-1.1a.42.42,0,1,0-.09.84c7,.45,14,1.69,21,1.94A.34.34,0,0,0,1121.05,1808.2Z"/><path class="cls-51" d="M1148.89,1808.49c.25.37.08,1.42.08,1.85v1.54c0,1.11,0,2.23,0,3.34l0,3.35a7,7,0,0,0,.17,2.92.19.19,0,0,0,.33,0,3,3,0,0,0,.17-1.38c0-.52,0-1,0-1.55,0-1.11,0-2.23,0-3.34s0-2.23,0-3.34v-1.55c0-.47-.18-1.45.09-1.84C1150.17,1807.71,1148.31,1807.69,1148.89,1808.49Z"/><path class="cls-51" d="M1111.21,2036.52c-18.63-14-35.37-34.1-60.44-35.08-20.69-.82-35.19,14.76-43.48,32.1-4.37,9.15-7.36,18.85-10.14,28.58q-5.61,19.64-10.56,39.45-9.74,39-16.59,78.62c-2.52,14.71-4.87,29.48-6.73,44.3s-4.32,30.29-4.35,45.36c0,2.62,4.09,3.13,4.63.51,2.52-12.39,3.58-25.18,5.4-37.7s3.74-25.18,5.88-37.73q6.39-37.65,14.84-74.94c5.35-23.44,10.6-47.25,18.16-70.09,5.42-16.36,14.12-35.47,31.8-41.35,26.89-9,51.31,13.81,71,28.58C1111.06,2037.46,1111.65,2036.85,1111.21,2036.52Z"/><path class="cls-53" d="M1091.92,2023.13s-17.17-49.05,7.68-58.67c37.23-14.41,134.69,95.36,115.62,263.55,0,0-75.31-41.48-130.91-88.15s-69.84-107.62-45.34-123.38S1091.92,2023.13,1091.92,2023.13Z"/><path class="cls-52" d="M1204,2192c-2.18-5.92-6-11.45-9-17-3.19-5.76-6.41-11.5-9.73-17.18-6.47-11.06-12.9-22.16-19.53-33.14-1.07-1.77-2.18-3.53-3.26-5.31.14-.65.26-1.32.41-2,.36-1.62.73-3.24,1.1-4.86.83-3.65,1.47-7.34,2.15-11,1.35-7.2,2.6-14.5,4.54-21.56.15-.52-.72-.69-.84-.15-1.54,7.19-3.8,14.27-5.93,21.31-1,3.47-2.17,6.92-3.08,10.43-.31,1.2-.63,2.4-.94,3.6-8-13.12-16.15-26.19-24.93-38.81.74-1.64.67-3.5.87-5.39.26-2.46.56-4.92.85-7.37.66-5.54,1.29-11.07,2.11-16.58,1.59-10.84,3.2-21.6,5.89-32.23.14-.53-.7-.67-.84-.14-2.68,10.58-5.6,21.18-7.61,31.92-1,5.26-1.92,10.55-2.62,15.86-.35,2.66-.63,5.32-.91,8-.08.79-.2,1.6-.31,2.41-2.7-3.81-5.4-7.63-8.23-11.35-8.6-11.31-17.51-22.36-26.5-33.36-.35-.42-1,.06-.7.49,15.79,19.31,29.14,40.71,42.35,61.84,2.46,3.95,4.87,7.93,7.32,11.89l-2.42-.3c-3.15-.4-6.34-.6-9.5-.89q-9.51-.88-19-1.65c-12.68-1-25.4-1.79-38.06-3.15-.54-.05-.69.78-.14.85,12.82,1.46,25.58,3.52,38.36,5.34q9.42,1.33,18.86,2.54c4.34.55,9.79,1.85,14.52,1.49q7.47,12.14,14.95,24.28a27,27,0,0,0-3.36-.13c-2.11,0-4.23,0-6.34,0-3.93,0-7.86,0-11.79,0-8.17,0-16.34.17-24.51.16-.55,0-.46.84.08.85,8.28.09,16.54.52,24.8,1,3.93.2,7.84.43,11.76.71,2,.13,3.92.3,5.88.42,1.71.1,3.55.44,5.17-.21,4.22,6.9,8.5,13.76,12.72,20.66,3.9,6.37,7.83,12.7,11.86,19s7.8,13.56,12.78,19.17C1203.47,2192.76,1204.16,2192.49,1204,2192Z"/><path class="cls-52" d="M1168.08,2056a118.36,118.36,0,0,1-3.37,16c-1.38,5.45-3,10.84-4.73,16.18a.53.53,0,1,0,1,.33q2.51-8,4.48-16.05c1.3-5.4,2.15-10.91,3.46-16.3C1169.05,2055.63,1168.14,2055.47,1168.08,2056Z"/><path class="cls-52" d="M1112.76,2088.87c-1.17-1.19-2.5-1.3-4.11-1.53l-7.11-1c-4.4-.6-8.82-1.09-13.24-1.61-9.17-1.07-18.36-2-27.53-3.12-.54-.07-.69.77-.15.84,8.66,1.06,17.27,2.37,25.91,3.5,4.24.55,8.47,1.15,12.71,1.65,2,.24,4.08.46,6.12.68,2.26.25,4.92.19,7,1.2C1112.76,2089.71,1113.05,2089.17,1112.76,2088.87Z"/><path class="cls-52" d="M1168,2162.84c-4.33-.37-8.7-.51-13-.64l-6.57-.21-3.16-.1a20,20,0,0,1-4.1-.23c-.61-.16-.67.94,0,.84a19.1,19.1,0,0,1,3.85.12l3.41.21,6.57.39c4.33.26,8.7.52,13,.55C1168.44,2163.77,1168.48,2162.88,1168,2162.84Z"/><path class="cls-52" d="M1194.5,2144c.5-2.46,1-4.93,1.41-7.4l2.67-14.54a.43.43,0,0,0-.84-.15q-1.59,7.08-3.19,14.17c-.53,2.36-1.06,4.72-1.55,7.09-.23,1.09-.46,2.18-.68,3.28a8.93,8.93,0,0,0-.39,3.47c.07.4.66.72.94.3C1194,2148.51,1194.09,2146,1194.5,2144Z"/><polygon class="cls-54" points="1157.88 2288.97 1153.7 2358.49 1141.32 2563.72 930.87 2563.72 918.5 2358.49 914.32 2288.97 1157.88 2288.97"/><polygon class="cls-55" points="1157.88 2288.97 1153.7 2358.49 918.5 2358.49 914.32 2288.97 1157.88 2288.97"/><rect class="cls-54" x="894.89" y="2239.79" width="282.41" height="69.56"/><path class="cls-56" d="M1939.2,1559h203.45l-1.44,6.81a20.08,20.08,0,0,0,19.64,24.24H1939.2a6.7,6.7,0,0,1-6.69-6.69v-17.67A6.7,6.7,0,0,1,1939.2,1559Z"/><path class="cls-57" d="M2617.68,1301l-28.94,136.83-13.21,62.45-4.17,19.71-6.46,30.47h0l-2.75,13a33.46,33.46,0,0,1-32.74,26.54H2160.85a20.08,20.08,0,0,1-19.64-24.24l55.54-262.48a33.45,33.45,0,0,1,32.73-26.54h368.57A20.07,20.07,0,0,1,2617.68,1301Z"/><path class="cls-56" d="M2141.21,1565.83l55.53-262.48a33.47,33.47,0,0,1,32.74-26.54h13.39a33.47,33.47,0,0,0-32.74,26.54l-55.53,262.48a20.08,20.08,0,0,0,19.64,24.24h-13.39A20.08,20.08,0,0,1,2141.21,1565.83Z"/><ellipse class="cls-41" cx="2386.14" cy="1433.44" rx="38.65" ry="31.29" transform="translate(-346.44 1963.91) rotate(-41.98)"/><path class="cls-58" d="M2617.68,1301l-28.94,136.83-13.21,62.45c-117.16-41.72-141.92-158-146.28-223.51h168.8A20.07,20.07,0,0,1,2617.68,1301Z"/><path class="cls-59" d="M2459,1477.4v45.29h-4v6.66H2813.5a10,10,0,0,0,10-10v-40.41a10,10,0,0,0-10-10H2455v8.5Z"/><path class="cls-6" d="M2459,1477.44v45.17h154a11.34,11.34,0,0,0,11.34-11.34v-22.49a11.34,11.34,0,0,0-11.34-11.34Z"/><rect class="cls-60" x="2460.1" y="1485.46" width="146.45" height="3.7"/><rect class="cls-60" x="2460.1" y="1494.13" width="79.15" height="3.7"/><rect class="cls-60" x="2460.1" y="1502.81" width="118.92" height="3.7"/><rect class="cls-60" x="2460.1" y="1511.48" width="141.86" height="3.7"/><rect class="cls-37" x="2786.52" y="1477.14" width="18.62" height="45.4" rx="6.61"/><path class="cls-43" d="M2493.79,1537.73V1583h-4v6.65H2848.3a10,10,0,0,0,10-10v-40.4a10,10,0,0,0-10-10H2489.76v8.5Z"/><path class="cls-6" d="M2493.79,1537.76v45.17h154a11.34,11.34,0,0,0,11.34-11.34V1549.1a11.34,11.34,0,0,0-11.34-11.34Z"/><rect class="cls-60" x="2494.9" y="1545.78" width="146.45" height="3.7"/><rect class="cls-60" x="2494.9" y="1554.46" width="79.15" height="3.7"/><rect class="cls-60" x="2494.9" y="1563.13" width="118.92" height="3.7"/><rect class="cls-60" x="2494.9" y="1571.81" width="141.86" height="3.7"/><rect class="cls-61" x="2821.31" y="1537.47" width="18.62" height="45.4" rx="6.61"/><path class="cls-14" d="M1835,1589.68H1318.47a2.08,2.08,0,0,1-2.08-2.08h0a29,29,0,0,1,29-29H1835a2.08,2.08,0,0,1,2.08,2.08v26.95A2.08,2.08,0,0,1,1835,1589.68Z"/><path class="cls-13" d="M1530.14,1589.35h397.13a16.11,16.11,0,0,0,15.67-12.4l12-50.93,52.42-221.73a16.1,16.1,0,0,0-15.67-19.8H1594.6a16.12,16.12,0,0,0-15.67,12.4l-64.46,272.65A16.11,16.11,0,0,0,1530.14,1589.35Z"/><path class="cls-14" d="M1933.08,1561.87H1577.89a2.92,2.92,0,0,1,0-5.83h355.19a2.92,2.92,0,0,1,0,5.83Z"/><path class="cls-14" d="M1610.34,1284.49l-68.64,304.86h-11.56a16.11,16.11,0,0,1-15.67-19.81l64.46-272.65a16.1,16.1,0,0,1,15.67-12.4Z"/><path class="cls-14" d="M1811.18,1447.59c-2,16.67-17.14,30.18-33.81,30.18s-28.56-13.51-26.56-30.18,17.14-30.19,33.81-30.19S1813.18,1430.92,1811.18,1447.59Z"/><path class="cls-62" d="M1796,1284.49c1.85,63.25,22,200.87,159,241.53l52.42-221.73a16.1,16.1,0,0,0-15.67-19.8Z"/><rect class="cls-63" x="1235.41" y="1589.68" width="1732.26" height="50.84"/><polygon class="cls-64" points="2849.16 1640.52 2949.9 2563.72 2925.06 2563.72 2786.69 1640.52 2849.16 1640.52"/><polygon class="cls-64" points="1352.09 1640.52 1251.34 2563.72 1276.18 2563.72 1414.56 1640.52 1352.09 1640.52"/></g></svg>