<svg viewBox="0 0 512 512" xmlns="http://www.w3.org/2000/svg" xmlns:xlink="http://www.w3.org/1999/xlink"><linearGradient id="linear-gradient" gradientUnits="userSpaceOnUse" x1="133.24" x2="377.25" y1="44.08" y2="465.3"><stop offset="0" stop-color="#faad5f"/><stop offset=".09" stop-color="#fba659"/><stop offset=".69" stop-color="#fe7e35"/><stop offset="1" stop-color="#ff6f27"/></linearGradient><linearGradient id="linear-gradient-2" gradientUnits="userSpaceOnUse" x1="174.43" x2="420.38" y1="489.57" y2="219.4"><stop offset="0" stop-color="#ff6f27"/><stop offset="1" stop-color="#ff5e1f"/></linearGradient><linearGradient id="linear-gradient-3" gradientUnits="userSpaceOnUse" x1="146.71" x2="349.33" y1="482.32" y2="308.02"><stop offset="0" stop-color="#ff6b2c"/><stop offset="1" stop-color="#ff2d0f"/></linearGradient><g id="Layer_2" data-name="Layer 2"><g id="Layer_1_copy" data-name="Layer 1 copy"><g id="_11" data-name="11"><circle cx="256" cy="256" fill="url(#linear-gradient)" r="256"/><path d="m512 256c0 141.4-114.6 256-256 256a255.71 255.71 0 0 1 -213.16-114.2c146.43-2.22 204.63-90.6 204.63-90.6 83.31-126 185.14-152.89 241.58-157.27a254.62 254.62 0 0 1 22.95 106.07z" fill="url(#linear-gradient-2)"/><path d="m483.67 373.22a256.11 256.11 0 0 1 -453.32 3.78c52 13.4 141.2 27.28 201.44-12.91 0 0 153.89-115.71 251.88 9.13z" fill="url(#linear-gradient-3)"/><g fill="#fff"><circle cx="251.87" cy="181.12" r="55.12"/><path d="m256 257.38a96.93 96.93 0 0 0 -96.93 96.92 31.7 31.7 0 0 0 31.7 31.7h130.46a31.7 31.7 0 0 0 31.7-31.7 96.93 96.93 0 0 0 -96.93-96.92z"/></g></g></g></g></svg>