<svg xmlns="http://www.w3.org/2000/svg" data-name="Layer 2" viewBox="0 0 1000 1000"><path fill="#c9dff4" d="m427.21,150.9c-74.11,5.12-141.58,41.78-199.55,86.15s-106.01,94.21-135.62,158.16c-29.69,64.15-34.6,137.31-19.42,205.94,15.14,68.42,50.16,130.66,98.24,181.35,46.8,49.33,104.79,87.59,167.21,114.18,72.06,30.7,149.91,46.01,227.85,51.06,40.1,2.6,80.46,2.72,120.57.36,39.26-2.32,78.85-7.78,115.74-21.97,58.45-22.48,109.24-69.95,127.7-130.79,10.12-33.34,9.24-69.51-2.07-102.44s-32.32-64.79-64.6-78.55c-16.64-7.09-34.98-9.14-52.92-9.26-19.58-.12-39.18,1.77-58.5,4.94-39.66,6.51-78.12,18.72-115.9,32.18-76.12,27.13-152.16,60.61-233.93,65.23-68.83,3.89-151.67-16.09-187.43-81.31-15.15-27.63-19.07-62.21-8.41-92.08,11.85-33.2,41.55-52.9,74.79-60.77,36.8-8.71,76.37-5.79,113.34.27,40.13,6.58,79.22,18.26,117.7,31.18,77.25,25.94,154.11,58.36,236.18,64.95,69.28,5.56,147.38-9.25,198.76-59.37,38.63-37.68,54.32-91.49,52.97-144.44-1.39-54.6-18.92-109.21-47.89-155.38-18.72-29.82-42.08-56.91-69.67-78.86-29.08-23.13-62.06-38.88-98.08-47.82s-71.79-12.37-107.91-14.58c-32.45-1.99-65.51-1.86-97.43,4.98-29.59,6.34-57.6,19.13-79.4,40.45-1.38,1.35.74,3.47,2.12,2.12,47.79-46.74,120.09-48.56,182.73-44.02,36.48,2.64,73.39,6.53,108.69,16.48s68.8,28.1,97.13,52.82c46.47,40.57,80.1,95.38,96.3,154.81,14.05,51.56,15.97,109.18-5.72,158.97-10.74,24.65-27.26,46.41-48.26,63.22-27.91,22.35-62.52,36.06-97.35,43.06-79.55,15.99-159.7-4.66-234.95-30.01-75.35-25.38-150.11-56.26-229.82-64.82-60.88-6.53-144.03-1.43-167.53,67.12-9.6,28.02-6.7,59.84,5.71,86.51,13.38,28.74,38.34,50.93,66.09,65.44,66.69,34.85,146.07,27.67,216.35,8.82,76.83-20.6,148.85-56.05,226.19-74.97,19.64-4.8,39.56-8.51,59.69-10.49,18.98-1.87,38.5-2.7,57.45-.03,19.03,2.68,36.87,9.65,51.39,22.45,13.29,11.72,23.58,26.76,31.35,42.59,16.13,32.84,21.08,71.08,13.31,106.88-6.74,31.03-22.56,59.58-43.67,83.14-21.17,23.62-47.61,42.51-76.75,55.02-36.69,15.75-76.65,22.12-116.26,24.87-78.97,5.49-159.72,1.7-237.3-14.45-71.14-14.81-139.97-40.97-200.81-81.02-56.48-37.19-105.86-86.12-139.78-144.9-35.45-61.44-53.16-133.7-47.71-204.58,2.73-35.55,11.51-70.58,26.5-102.96s34.92-60.94,58.2-87.12c23.47-26.4,50.03-49.97,78.12-71.33,29.08-22.11,60.1-41.97,93.4-57.13,32.47-14.78,67.17-24.78,102.85-27.25,1.92-.13,1.93-3.13,0-3h0Z"/><g><g><path fill="#7bad2b" d="m305.87,926.71s-78,52.64-142.13,14.34c-64.14-38.31-81.24-129.46-81.24-129.46,0,0,55.96-23.13,120.23,13.75,64.26,36.87,103.14,101.37,103.14,101.37Z"/><g><path fill="#4e661f" d="m349.53,928.54c-.08.02-.15.04-.24.05-25.48,3.15-53.57-.1-83.52-9.65-23.9-7.62-49.03-19.26-74.69-34.59-43.66-26.08-74.15-54.21-74.45-54.49-.57-.52-.6-1.41-.07-1.97.53-.57,1.41-.6,1.97-.07.3.28,30.62,28.24,74.03,54.17,39.98,23.87,99.56,50.85,156.38,43.83.77-.09,1.46.45,1.56,1.21.08.68-.34,1.31-.98,1.51Z"/><path fill="#4e661f" d="m181.87,878.14c-.15.05-.32.07-.48.06l-53-2.96c-.77-.04-1.36-.7-1.32-1.47.04-.77.7-1.36,1.47-1.32l53,2.96c.77.04,1.36.7,1.32,1.47-.03.6-.44,1.09-.99,1.26Z"/><path fill="#4e661f" d="m218.7,899.1c-.46.14-.99.04-1.37-.32-27.31-25.94-41.96-69.8-42.11-70.24-.24-.73.16-1.52.89-1.76.73-.27,1.52.16,1.76.89.14.43,14.59,43.64,41.38,69.09.56.53.58,1.41.05,1.97-.17.18-.38.31-.61.37Z"/><path fill="#4e661f" d="m279.77,923.38c-52.74,15.98-102.42,3.85-102.92,3.72-.75-.19-1.2-.95-1.01-1.69.19-.75.95-1.2,1.69-1.01.49.12,49.46,12.06,101.43-3.68.36-.11.71-.22,1.07-.33h0c.73-.23,1.51.19,1.74.92.23.74-.18,1.52-.92,1.75-.36.11-.72.22-1.08.33Z"/></g></g><g><path fill="#a4c931" d="m292.81,919.09s-131.81-12.43-167.32-111.36c-35.51-98.93,27.3-213.29,27.3-213.29,0,0,81.5,24.84,118.43,122.32,36.93,97.48,21.6,202.33,21.6,202.33Z"/><g><path fill="#7bad2b" d="m339.64,959.77c-.36.06-.73,0-1.06-.22-30.45-19.3-58.06-47.88-82.04-84.95-19.16-29.61-36.07-64.67-50.26-104.22-24.16-67.29-32.17-125.07-32.25-125.64-.11-.82.45-1.57,1.26-1.71.01,0,.03,0,.04,0,.83-.11,1.6.47,1.71,1.3.08.57,8.06,58.08,32.12,125.08,22.16,61.73,62.89,144.37,131.05,187.56.71.45.92,1.39.47,2.1-.24.38-.63.62-1.04.69Z"/><path fill="#7bad2b" d="m202.39,755.23c-.45.07-.92-.05-1.28-.38l-54.98-50.56c-.62-.57-.66-1.53-.09-2.15.57-.62,1.53-.66,2.15-.09l54.98,50.55c.62.57.66,1.53.09,2.15-.24.26-.55.42-.87.47Z"/><path fill="#7bad2b" d="m223.71,810.91s-.04,0-.06,0c-.83.1-1.59-.49-1.7-1.32-6.51-52.48,16.69-113.15,16.93-113.76.3-.78,1.18-1.17,1.97-.87.78.3,1.17,1.19.87,1.97-.23.6-23.16,60.57-16.75,112.28.1.81-.46,1.56-1.26,1.69Z"/><path fill="#7bad2b" d="m269.88,892.46c-.27.04-.55.02-.82-.09-72.38-29.5-116.06-87.75-116.5-88.34-.5-.68-.36-1.63.32-2.13.68-.5,1.63-.36,2.13.32.43.58,43.64,58.16,115.2,87.33.78.32,1.15,1.21.83,1.98-.21.51-.66.85-1.17.93Z"/></g></g></g><g><g><path fill="#7bad2b" d="m684.86,939.15s48.78,24.75,83.01-1.97c34.23-26.71,37.53-80.52,37.53-80.52,0,0-33.94-9.31-68.35,16.59-34.41,25.9-52.19,65.9-52.19,65.9Z"/><g><path fill="#4e661f" d="m659.81,943.35s.09.01.14.01c14.92-.02,30.89-3.92,47.48-11.58,13.24-6.12,26.89-14.64,40.59-25.33,23.3-18.18,38.86-36.61,39.02-36.79.29-.34.24-.86-.1-1.14-.34-.29-.85-.24-1.14.1-.15.18-15.63,18.5-38.8,36.58-21.34,16.65-53.76,36.5-87.04,36.55-.45,0-.81.36-.81.81,0,.4.29.73.67.8Z"/><path fill="#4e661f" d="m752.88,902.2c.09.02.19.02.28,0l30.36-5.52c.44-.08.73-.5.65-.94-.08-.44-.5-.73-.94-.65l-30.36,5.52c-.44.08-.73.5-.65.94.06.34.33.6.66.65Z"/><path fill="#4e661f" d="m733.15,916.94c.28.05.57-.05.77-.29,13.88-16.93,19.18-43.28,19.23-43.55.09-.44-.2-.87-.64-.95-.44-.1-.87.2-.95.64-.05.26-5.27,26.22-18.89,42.83-.28.35-.23.86.11,1.14.11.09.24.15.38.17Z"/><path fill="#4e661f" d="m699.67,935.35c31.57,5.42,59.35-5.16,59.63-5.27.42-.16.63-.63.46-1.05-.16-.42-.63-.62-1.05-.46-.27.11-27.66,10.52-58.77,5.18-.21-.04-.42-.07-.64-.11h0c-.44-.08-.86.22-.94.66-.08.44.22.86.66.94.22.04.43.08.65.11Z"/></g></g><g><path fill="#a4c931" d="m691.84,933.81s75.13-16.66,88.49-76.28c13.36-59.62-31.11-121.06-31.11-121.06,0,0-45.22,20.2-59.5,79.08-14.28,58.89,2.11,118.26,2.11,118.26Z"/><g><path fill="#7bad2b" d="m667.76,960.65c.21,0,.42-.06.6-.2,16.17-13.32,30.04-31.8,41.2-54.91,8.92-18.46,16.15-39.9,21.49-63.73,9.09-40.55,9.55-74.46,9.55-74.79,0-.48-.37-.88-.85-.89,0,0-.02,0-.02,0-.49,0-.89.39-.89.88,0,.34-.47,34.08-9.52,74.46-8.34,37.2-25.88,87.8-62.08,117.62-.38.31-.43.87-.12,1.25.17.2.41.31.65.32Z"/><path fill="#7bad2b" d="m732.19,832.79c.26,0,.53-.1.71-.31l28.07-33.12c.32-.37.27-.93-.1-1.25-.37-.32-.93-.27-1.25.1l-28.07,33.12c-.32.37-.27.93.1,1.25.16.13.35.2.54.21Z"/><path fill="#7bad2b" d="m723.9,866.44s.02,0,.03,0c.49,0,.88-.4.88-.89-.02-30.74-17.78-64.06-17.96-64.39-.23-.43-.77-.59-1.2-.36-.43.23-.59.77-.36,1.2.18.33,17.72,33.27,17.74,63.56,0,.48.38.87.85.88Z"/><path fill="#7bad2b" d="m703.15,916.8c.16,0,.32-.03.47-.11,39.62-22.23,60.63-58.97,60.83-59.34.24-.43.09-.97-.34-1.21-.43-.24-.97-.09-1.21.34-.21.36-20.98,36.69-60.16,58.67-.43.24-.58.78-.34,1.2.16.28.44.44.74.45Z"/></g></g></g><g><path fill="#c9dff4" d="m242.44,352.19h38.76v68.09h-38.76v80.92h-88.26v-80.92H6.74l-5.24-53.95L154.18,120.67v-.79h88.26v232.3Zm-156.87,0h68.62v-117.33l-5.5,8.9-63.12,108.42Z"/><path fill="#c9dff4" d="m584.73,345.38c0,51.51-11.57,91.23-34.7,119.16-23.14,27.94-55.74,41.9-97.82,41.9s-75.25-14.05-98.47-42.16c-23.22-28.11-34.83-67.74-34.83-118.9v-69.66c0-51.5,11.56-91.22,34.7-119.16,23.13-27.93,55.82-41.9,98.08-41.9s74.99,14.06,98.21,42.16c23.22,28.11,34.83,67.83,34.83,119.16v69.4Zm-88.26-80.92c0-27.41-3.58-47.88-10.74-61.41-7.16-13.53-18.51-20.3-34.05-20.3s-26.23,6.29-33.13,18.86c-6.9,12.57-10.61,31.6-11.13,57.09v97.42c0,28.46,3.58,49.28,10.74,62.46,7.16,13.18,18.5,19.77,34.05,19.77s26.1-6.42,33.26-19.25c7.16-12.83,10.82-32.95,11-60.37v-94.28Z"/><path fill="#c9dff4" d="m863.64,352.19h38.76v68.09h-38.76v80.92h-88.26v-80.92h-147.44l-5.24-53.95,152.68-245.65v-.79h88.26v232.3Zm-156.87,0h68.62v-117.33l-5.5,8.9-63.12,108.42Z"/></g><g><path fill="#ffc7d2" d="m642.54,171.9s6.21-12.24,10.78-13.15,10.41,0,10.41,0c0,0,6.03-5.3,11.51-5.48s9.86,1.1,9.86,1.1c0,0,10.23-2.74,13.7-2.01s8.95,3.65,8.95,3.65c0,0,10.96-1.28,13.34,2.74,2.37,4.02,19.64,63.48,20.19,66.77s22.96,63.88,22.96,63.88l-59.13,23.81s-10.14-20-18.08-25.76c-7.95-5.75-42.53-23.89-49.73-42.47-7.2-18.59-7.81-20-7.81-20l13.06-53.07Z"/><path fill="#ff8383" d="m695.66,319.5s61.65-44.37,70.65-37.26,59.03,175.76,63.53,213.43c4.5,37.67-15.18,82.64-52.85,90.51-37.67,7.87-182.2,15.18-182.2,15.18l11.37-269.6s48.27,12.01,57.83,20.5c9.56,8.49,42.73,77.08,42.73,77.08,0,0-24.82-100.3-11.06-109.83Z"/><g><g><path fill="#ffc7d2" d="m596.1,377.96s-10.04,67.25-71.32,81.72c-61.25,14.5-96.79-101.86-96.79-101.86,0,0,22.81-30.81,23.65-63.35.2-8.07-1.01-16.65-2.91-24.95-5.82-25.16-18.29-47.92-18.29-47.92l92.18-4.22s.22,3.27,7.39,58.1c1.73,13.19,6.44,25.96,12.64,37.77,19.47,37.23,53.45,64.7,53.45,64.7Z"/><path fill="#f47382" d="m542.65,313.25c-4.27,15.8-8.72,30.38-11.29,33.4-6.11,7.15-37.39-11.85-62.39-43.45-7.25-9.18-14.15-21.21-20.25-33.69-5.82-25.16-18.29-47.92-18.29-47.92l92.18-4.22s.22,3.27,7.39,58.1c1.73,13.19,6.44,25.96,12.64,37.77Z"/></g><g><path fill="#1c1c7a" d="m379.69,186.33c10.1,14.47,20.61,25.11,21.81,26.3-.45-.52-2.74-3.3-4.32-7.8-2.33-6.54-3.15-16.7,5.4-28.8,7.37-10.43,21.69-22.33,48.02-34.63,80.24-37.43,151.15,9.92,151.15,9.92,0,0,22.62-16.46,27.5-52.9,4.91-36.42-4.98-58.43-15.19-57.56s-18.8,8.45-18.8,8.45c0,0,4.67-33.37-10.7-39.29-15.37-5.92-32.31,11.53-32.31,11.53,0,0-72.55-21.23-120.24,15.99-47.71,37.2-45.78,59.83-45.78,59.83,0,0-15.76-3.16-24.75,31.91-4.68,18.31,6.46,40.26,18.19,57.06Z"/><path fill="#1c1c7a" d="m383.01,169.42c1,4.66,2.2,9.04,3.58,13.15,2.85,8.51,6.48,15.88,10.59,22.27,23.28,36.41,61.82,41.31,61.82,41.31l36.1-19.53,100.09-54.14s3.7-8.33,6.57-21.16c4.14-18.44,6.54-46.21-6.33-71.82-21.81-43.41-76.79-58.04-132-41.01-55.23,17.05-95.12,61.98-80.42,130.93Z"/><path fill="#6565a5" d="m401.5,212.64c-.45-.52-2.74-3.3-4.32-7.8,23.28,36.41,61.82,41.31,61.82,41.31l36.1-19.53s-.07-.08-.1-.13c-33.56-45.16-53.83-58.63-53.83-58.63,0,0-18.57,1.47-38.59,8.17-5.33,1.78-10.77,3.92-15.99,6.54-2.36,1.16-4.67,2.41-6.91,3.77,10.1,14.47,20.61,25.11,21.81,26.3Z"/><path fill="#ffc7d2" d="m601.57,278.47c-12.14,33.57-26.74,38.67-42.78,41.01-16.02,2.35-28.32.28-34.12.06h-.03c-19.52-4.5-40.09-11.83-49.89-19.92-14.82-12.19-32.43-44.51-34.16-47.76-.09-.18-.13-.25-.13-.25,0,0-36.1,14.19-46.08-4.26-9.93-18.48-2.26-31.64,7.91-38.19,10.24-6.51,28.85-7.95,31.62-4.62,2.72,3.27,7.33,21.54,10.31,22.02,2.94.52,6.47.2,7.5-2.04.43-.89-1.13-9.67-3.17-20.34-1.3-5.02-2.36-11.01-3.23-16.29-1.68-8.27-3.26-15.85-4.15-20.04,0,0,17.34,2.69,44.95-9.53,27.61-12.21,45.54-26.15,45.54-26.15,0,0,47.01,2.99,64.18-8.96,0,0,8.2,35.05,8.34,46.13.13,11.12-1.4,18.92,1.67,28.05.96,2.83,2.02,6.64,2.94,11.34,0,0,0,.03.01.11.29,2.14,4.53,37.11-7.24,69.63Z"/><path fill="#f47382" d="m421.76,248.94c6.16-.53,7.77-3.51,8.18-5.26.61-2.63-.77-5.34-3.52-6.91l-.78-.44c-4.35-2.43-4.24-3.09-3.59-4.37.48-.95.87-1.17.93-1.17.29-.02,1.09.44,1.6,1.12,1.21,1.62,1.8,2.91,1.81,2.92.71,1.55,2.54,2.24,4.09,1.54,1.55-.7,2.25-2.52,1.56-4.07-.08-.19-.87-1.92-2.49-4.09-1.35-1.81-4.02-3.84-7.07-3.58h0c-1.71.15-4.13,1.05-5.9,4.52-3.66,7.15,3.16,10.96,6.08,12.58l.73.41c.09.05.16.1.23.15-.44.19-1.27.44-2.65.52-2.69.17-10.03-3.94-13.41-10.25-2.41-4.51-2.1-8.81.93-12.78,2.15-2.82,4.48-4.24,7.14-4.3,6.26-.17,12.55,6.97,12.61,7.04,1.11,1.3,3.06,1.45,4.36.34,1.3-1.11,1.45-3.06.34-4.36-.33-.39-8.2-9.46-17.48-9.2-4.6.14-8.57,2.39-11.88,6.73-4.5,5.9-5.03,12.8-1.47,19.45,4.36,8.15,13.76,13.85,19.25,13.5.15,0,.3-.02.45-.03Z"/><ellipse cx="519" cy="192.02" fill="#1c1c7a" rx="10.93" ry="7.19" transform="rotate(-89.87 518.997 192.02)"/><ellipse cx="581.32" cy="187.89" fill="#1c1c7a" rx="9.71" ry="6.59" transform="rotate(-89.85 581.348 187.876)"/><ellipse cx="522.05" cy="187.55" fill="#fff" rx="4.79" ry="3.05" transform="rotate(-89.88 522.073 187.53)"/><ellipse cx="584.86" cy="184.77" fill="#fff" rx="4.79" ry="3.05" transform="rotate(-89.88 584.886 184.752)"/><path fill="#f47382" d="m560.62,240.93c4.31-.37,12.79-1.85,16.06-7.76,4.48-8.12-1.83-12.7-7.93-17.14l-1.71-1.25c-4.46-3.29-3.76-11.92-3.12-14.97.35-1.67-.71-3.31-2.38-3.67-1.67-.35-3.31.7-3.67,2.37-.13.61-3.09,14.91,5.49,21.24l1.74,1.27c7.02,5.11,7.77,6.22,6.15,9.15-2.09,3.78-10.39,4.67-13.13,4.69-1.66-.01-3.08,1.4-3.08,3.1,0,1.71,1.39,3.08,3.1,3.08.33,0,1.22-.02,2.46-.12Z"/><g><path fill="#1c1c7a" d="m506.44,174.19c.72-.06,1.42-.37,1.96-.93,5.45-5.64,15.42-4.5,15.52-4.48,1.68.21,3.23-.99,3.45-2.69.21-1.69-.98-3.23-2.67-3.45-.53-.07-13.12-1.57-20.75,6.33-1.18,1.23-1.15,3.19.08,4.37.67.64,1.55.93,2.41.86Z"/><path fill="#1c1c7a" d="m591.73,169.06c.46-.04.92-.18,1.34-.44,1.45-.88,1.92-2.75,1.05-4.21-2.3-3.84-9.65-9.95-21.06-5.58-1.59.61-2.39,2.4-1.78,3.99.61,1.59,2.4,2.39,3.99,1.78,9.14-3.49,13.14,2.33,13.56,3.01.64,1.02,1.78,1.55,2.91,1.45Z"/></g><path fill="#f47382" d="m530.03,275.41c12.88-4.89,26.58-6.93,40.33-5.99,1.71.12,3.18-1.54,3.18-3.18,0-1.82-1.46-3.06-3.18-3.18-14.23-.98-28.68,1.15-42.02,6.21-1.6.61-2.7,2.14-2.22,3.91.42,1.54,2.29,2.83,3.91,2.22h0Z"/></g></g><g><path fill="#24317f" d="m694.33,942.36c0,5.2-2.83,9.98-7.41,12.45-31.06,16.77-86.99,36.4-178.72,36.4-127.57,0-198.82-25.12-222.54-35.35-5.32-2.29-8.7-7.59-8.55-13.38.52-20.36,1.55-46.34,3.61-75.86,4.03-58.08,21.79-144.47,28.42-175.29,1.45-6.78,7.06-11.63,13.63-11.8,59.1-1.53,334.35-3.88,353.93,83.67,15.48,69.29,17.68,142.26,17.62,179.17Z"/><g><path fill="#3753b7" d="m548.16,904.95c-21.54,16.89-45.32,30.85-70.15,42.3-7.35,3.39-14.81,6.56-22.35,9.51-1.78.7-1,3.6.8,2.89,26.52-10.39,52.1-23.34,75.69-39.34,6.2-4.21,12.25-8.63,18.14-13.25,1.52-1.19-.62-3.3-2.12-2.12h0Z"/><path fill="#3753b7" d="m512.11,929.92c-2.34,14.68-4.29,29.43-7.45,43.96-.99,4.53-2.08,9.04-3.25,13.53-.49,1.87,2.41,2.67,2.89.8,3.77-14.46,6.33-29.1,8.58-43.86.69-4.55,1.39-9.09,2.11-13.63.3-1.89-2.59-2.7-2.89-.8h0Z"/><path fill="#3753b7" d="m540.48,962.76c-8.5,7.83-17.01,15.65-25.51,23.48-1.42,1.31.7,3.43,2.12,2.12,8.5-7.83,17.01-15.65,25.51-23.48,1.42-1.31-.7-3.43-2.12-2.12h0Z"/></g><path fill="#f1656e" d="m694.43,812.73c-4.73,11.8-27.67,32.75-76.55,26.77-48.87-5.99-34.88,15.52-93.72,34.48-58.85,18.95-95.79-7.43-135.68-22.95-39.89-15.52-110.33,25.18-113.01-20.1-2.69-45.26,30.89-135.91,30.48-189.8v-.17l-7.51-277.22s13.29-7.38,42.19-23.21c28.9-15.84,106.92-30.98,106.92-30.98,0,0-.02-.03,0,0,1,1.71,26.19,54.06,83.08,53.94,20.67-.05,23.48-1.18,26.19-9.53,4.74-14.58-7.32-31.13-8.07-32.31,0,0,0-.03,0-.03.02,0,.06.03.12.06.03.02.07.04.11.06.1.05.21.12.35.19.11.06.23.13.38.19,0,0,91.79,11.65,98.56,22.12,4.27,6.61,13.08,24.42,15.86,51.16,3.75,12.14,6.82,29.14,9.29,47.89,5.5,41.53,8,91.67,8,116.53v1.18c0,10.65.1,21.44.24,32.06.18,12.31.47,24.37.87,35.63.59,17.2,1.42,32.52,2.51,44.05,1.54,16.59,3.09,55.07,4,80.47,0,0,10.14,47.7,5.41,59.51Z"/><g><g><path fill="#dd315a" d="m428.14,330c.67,3,1.33,5.99,2,8.99.17.77,1.1,1.29,1.85,1.05.81-.26,1.23-1.02,1.05-1.85-.67-3-1.33-5.99-2-8.99-.17-.77-1.1-1.29-1.85-1.05-.81.26-1.23,1.02-1.05,1.85h0Z"/><path fill="#dd315a" d="m437.49,349.97c11.09,15.87,26.4,28.65,43.92,36.85,8.81,4.13,18.15,7.14,27.74,8.79,11.06,1.91,22.68,2.3,33.54-.89s19.9-9.58,25.17-19.15c.93-1.69-1.66-3.21-2.59-1.51-4.45,8.08-12.21,13.88-20.82,16.94-10.34,3.67-21.66,3.68-32.4,2.05-18.35-2.78-35.93-10.48-50.5-21.96-8.2-6.46-15.49-14.08-21.47-22.64-1.1-1.57-3.7-.07-2.59,1.51h0Z"/><path fill="#dd315a" d="m577.7,341.83c-.55,3.25-1.56,6.39-2.99,9.25-.35.7-.21,1.66.54,2.05.68.36,1.68.21,2.05-.54,1.58-3.14,2.71-6.49,3.3-9.96.13-.77-.2-1.65-1.05-1.85-.73-.17-1.71.22-1.85,1.05h0Z"/><path fill="#dd315a" d="m577.28,383.68c-1.84,3.74-4.76,6.66-7.96,9.27-3.42,2.79-7.06,5.32-10.77,7.7-7.55,4.85-15.56,8.98-23.9,12.28-1.77.7-1,3.61.8,2.89,8.73-3.46,17.12-7.72,25-12.83,3.79-2.45,7.5-5.07,11-7.93s6.49-5.93,8.43-9.88c.85-1.73-1.74-3.25-2.59-1.51h0Z"/></g><g><path fill="#dd315a" d="m440.99,464.42c13.76,21.69,29.43,42.18,46.76,61.14,17.24,18.87,36.11,36.22,56.34,51.84,11.44,8.83,23.31,17.09,35.56,24.75,1.64,1.03,3.15-1.57,1.51-2.59-21.58-13.48-41.95-28.84-60.85-45.87s-36.3-35.67-51.98-55.69c-8.83-11.27-17.08-23-24.75-35.09-1.03-1.63-3.63-.12-2.59,1.51h0Z"/><path fill="#dd315a" d="m555.33,562.13c10.46,13.49,23.71,24.74,38.7,32.89,1.7.92,3.21-1.67,1.51-2.59-14.79-8.05-27.78-19.12-38.09-32.43-.5-.65-1.59-.52-2.12,0-.64.63-.49,1.48,0,2.12h0Z"/><path fill="#dd315a" d="m539.66,593.7c2.06,10.57,4.68,21.02,7.83,31.31.56,1.84,3.46,1.06,2.89-.8-3.15-10.29-5.76-20.74-7.83-31.31-.37-1.89-3.26-1.09-2.89.8h0Z"/><path fill="#dd315a" d="m652.1,449.75c-24.03,5.26-48.34,9.23-72.81,11.87-6.9.74-13.81,1.38-20.73,1.91-1.91.15-1.93,3.15,0,3,24.71-1.91,49.33-5.14,73.69-9.7,6.9-1.29,13.78-2.69,20.64-4.19,1.89-.41,1.09-3.31-.8-2.89h0Z"/><path fill="#dd315a" d="m647.49,613c-7.64,3.38-15.28,6.76-22.92,10.14-1.76.78-.24,3.37,1.51,2.59,7.64-3.38,15.28-6.76,22.92-10.14,1.76-.78.24-3.37-1.51-2.59h0Z"/></g><g><path fill="#dd315a" d="m322.82,665.72c12.78,8.7,25.97,16.77,39.53,24.19s27.35,14.1,41.49,20.15,28.67,11.48,43.38,16.17c14.65,4.68,29.53,8.65,44.57,11.9,15.09,3.26,30.35,5.78,45.69,7.57,1.88.22,3.77.43,5.65.62s1.9-2.8,0-3c-15.24-1.59-30.39-3.94-45.4-7.01-15-3.07-29.85-6.86-44.48-11.35-14.64-4.49-29.06-9.67-43.2-15.53-14.16-5.86-28.03-12.43-41.56-19.63-13.51-7.19-26.68-15.04-39.43-23.51-1.58-1.05-3.15-2.11-4.72-3.17s-3.1,1.51-1.51,2.59h0Z"/><path fill="#dd315a" d="m463.43,765.88c8.14,1.93,16.51,2.77,24.87,2.48,1.93-.07,1.93-3.07,0-3-8.11.28-16.18-.51-24.07-2.38-1.88-.44-2.68,2.45-.8,2.89h0Z"/><path fill="#dd315a" d="m533.47,768.73c20.76-4.14,41.52-8.28,62.28-12.42,1.89-.38,1.09-3.27-.8-2.89-20.76,4.14-41.52,8.28-62.28,12.42-1.89.38-1.09,3.27.8,2.89h0Z"/></g></g></g><g><path fill="#1c1c7a" d="m692.79,246.35c-3.81,28.29-7.67,56.77-16.23,84.09-4.04,12.88-9.02,25.62-15.91,37.26-6.39,10.78-14.73,20.67-25.71,26.97-10.31,5.91-22.76,8.64-34.37,5.32-10.35-2.96-18.99-10.46-24.79-19.48-6.85-10.65-9.64-23.11-9.69-35.78-.03-7.11.75-14.2,2.04-21.19,1.33-7.17,3.35-14.16,4.94-21.26,3.09-13.76,4.71-28.48-.39-41.99-3.82-10.12-8.99-20.8-18.22-27.04-2.26-1.53-4.8-2.68-7.42-3.42-3.72-1.05-5.31,4.74-1.6,5.79,4.86,1.37,8.74,4.52,12.05,8.61s5.78,9,7.86,13.82c.99,2.3,2.22,5.5,2.96,8.24.88,3.25,1.39,6.57,1.58,9.93.39,7.02-.47,14.02-1.85,20.89s-3.49,14.05-4.98,21.14-2.62,14.79-2.91,22.28c-.53,13.51,1.69,27.27,8.2,39.25,5.48,10.08,13.95,19.02,24.52,23.75,11.79,5.27,25.12,4.94,37.03.19,25.78-10.27,39.65-36.09,48.74-60.81,9.99-27.15,14.56-55.89,18.5-84.44.48-3.5.96-7.01,1.43-10.51.22-1.6-.39-3.22-2.1-3.69-1.4-.38-3.47.48-3.69,2.1h0Z"/><g><path fill="#3753b7" d="m704.02,206.42c0,15.66-10.49,29.21-25.74,35.71v4.11h-20.49c-25.52,0-46.23-17.83-46.23-39.82s20.71-39.84,46.23-39.84h20.49v4.11c15.26,6.53,25.74,20.07,25.74,35.73Z"/><path fill="#24317f" d="m729.77,206.42c0,18.17-10.49,33.89-25.75,41.45v4.77h-20.49c-25.53,0-46.24-20.69-46.24-46.22s20.71-46.24,46.24-46.24h20.49v4.77c15.26,7.57,25.75,23.3,25.75,41.47Z"/><circle cx="704.02" cy="206.41" r="46.23" fill="#3753b7"/><circle cx="704.02" cy="206.41" r="32.69" fill="#3fbee0"/><path fill="#40a5dd" d="m736.7,206.41c0,18.06-14.63,32.69-32.68,32.69-2.82,0-5.56-.36-8.17-1.03,14.09-3.63,24.5-16.43,24.5-31.66s-10.41-28.02-24.5-31.65c2.61-.67,5.35-1.03,8.17-1.03,18.05,0,32.68,14.63,32.68,32.68Z"/><circle cx="697.43" cy="193.98" r="11.23" fill="#fff"/></g><g><path fill="#3753b7" d="m604.23,206.42c0,15.66-10.49,29.21-25.74,35.71v4.11h-20.49c-25.52,0-46.23-17.83-46.23-39.82s20.71-39.84,46.23-39.84h20.49v4.11c15.26,6.53,25.74,20.07,25.74,35.73Z"/><path fill="#24317f" d="m629.98,206.42c0,18.17-10.49,33.89-25.75,41.45v4.77h-20.49c-25.53,0-46.24-20.69-46.24-46.22s20.71-46.24,46.24-46.24h20.49v4.77c15.26,7.57,25.75,23.3,25.75,41.47Z"/><circle cx="604.23" cy="206.41" r="46.23" fill="#3753b7"/><circle cx="604.23" cy="206.41" r="32.69" fill="#3fbee0"/><path fill="#40a5dd" d="m636.92,206.41c0,18.06-14.64,32.69-32.69,32.69-2.32,0-4.59-.24-6.77-.7,14.8-3.12,25.91-16.25,25.91-31.99s-11.11-28.86-25.91-31.98c2.18-.46,4.45-.7,6.77-.7,18.05,0,32.69,14.63,32.69,32.68Z"/><g><circle cx="598.24" cy="189.22" r="7.37" fill="#fff"/><circle cx="617.35" cy="206.95" r="4.86" fill="#fff"/></g></g><path fill="#24317f" d="m566.63,386.28s8.82-11.54,12.52-9.19,7.1,18.55,30.07,17.87,30.64-15.32,36.77-12.43,8.68,12.09,5.79,14.3-17.02,17.19-47.83,16-39.24-23.66-37.32-26.55Z"/></g><g><path fill="#ff8383" d="m450.62,610.27c-24.1,25.43-56.9,34.58-72.98,32.18-16.09-2.39-38.78.52-51.47-14.91-12.69-15.44-51.34-116.47-56.91-183.08-3.03-36.24,6.5-57.72,15.81-69.78,7.15-9.26,18.09-14.71,29.77-15.06,15.2-.45,38.67,2.21,50.53,20.79,18.43,28.87,24.5,92.16,24.5,92.16l60.75,137.7Z"/><path fill="#f47382" d="m455.28,335.38l14.86-23.55-.14-.77c-.05-.27-4.93-26.97-8.48-42.02-3.54-15.03,3.06-43.62,4.19-46.62,1.37-3.66,19.22-31.15,21.66-33.36.91-.56,2.94-2.25,7.77-6.34,4.75-4.02,13.54-11.46,15.35-12.2,2.4-.41,5.27-.52,5.29-.53l.56-.02.47-.31c3.8-2.5,8.59-5.31,9.66-5.53.31-.06.67-.09,1.06-.09.81,0,1.61.13,2.25.23.51.08.92.15,1.3.15h.3c.55-.07.98-.3,2.01-.86,1.5-.81,4.61-2.48,6.65-2.48.28,0,.52.03.7.1.83.29,1.63,1.16,2.2,2.39.87,1.89,1,4.19.33,5.87-1.6,4.04-1.93,5.73-1.97,5.91l-.21,1.19.95.74c1.88,1.48,5.64,5.35,5.28,7.84-.34,2.34-6.46,12.77-10.11,19.01-3.5,5.96-5.34,9.13-5.71,10.38-.16.54-.58,1.96-1.06,14.46-.23,6.1,4.23,9.44,8.54,12.66,1.22.91,2.47,1.85,3.64,2.86l.13.11,6.69.94-.71,3.02c0,.19-.9,18.93-8.15,38.03-5.93,15.62-11.1,25.26-13.04,28.89-.68,1.27-.88,1.65-1,1.98-.33.95-2.84,16.94-4.51,27.69l-66.73-9.8Z"/><path fill="#ffc7d2" d="m460.28,333.08l13.02-20.64-.35-1.92c-.05-.27-4.94-27.03-8.51-42.17-3.34-14.15,3.03-42.09,4.08-44.88,1.14-3.07,17.96-29.02,20.75-32.07,1.15-.78,3.15-2.45,7.81-6.39,3.38-2.86,12.13-10.27,14.36-11.6,2.1-.32,4.44-.41,4.46-.41l1.39-.05,1.16-.76c4.04-2.66,7.75-4.74,8.68-5.1.08,0,.21-.02.39-.02.56,0,1.2.1,1.76.19.61.1,1.17.19,1.79.19h.21l.31-.02c1.22-.12,2.01-.55,3.21-1.19,2.37-1.28,4.03-1.98,4.96-2.11.11.14.27.37.44.72.59,1.28.58,2.74.27,3.52-1.64,4.13-2.04,6.01-2.13,6.49l-.54,2.96,2.37,1.86c2.08,1.64,4.02,4.18,4.16,5.1-.56,2.25-7.21,13.58-9.72,17.87-4.16,7.1-5.54,9.52-6,11.04-.24.82-.69,2.33-1.18,15.2-.29,7.68,5.27,11.83,9.74,15.18,1.18.88,2.39,1.79,3.48,2.73l.32.28,4.65,2.79c-.36,4.65-1.95,20.13-7.86,35.69-5.86,15.43-10.96,24.96-12.88,28.54-.74,1.38-.99,1.85-1.19,2.43-.16.45-.44,1.29-4.18,25.26l-59.23-8.69Z"/><g><path fill="#f47382" d="m512.24,170.98c-5.67,6.26-11.22,12.63-16.62,19.12s-10.42,12.57-14.97,19.33c-2.5,3.73-4.76,7.61-6.62,11.7-.79,1.74,1.79,3.27,2.59,1.51,3.27-7.2,7.79-13.75,12.64-19.97s10.29-12.72,15.64-18.9c3.11-3.6,6.27-7.16,9.46-10.68,1.29-1.43-.82-3.56-2.12-2.12h0Z"/><path fill="#f47382" d="m528.32,165.51c-12.97,12.22-24.64,25.64-33.98,40.86-2.66,4.34-5.15,8.79-7.5,13.31-.89,1.71,1.7,3.23,2.59,1.51,8.04-15.43,17.84-29.65,29.76-42.35,3.62-3.86,7.39-7.59,11.25-11.22,1.41-1.33-.72-3.44-2.12-2.12h0Z"/><path fill="#f47382" d="m541.32,177.27c-1.48-1.12-3.2-2.11-5.13-1.81s-3.31,1.84-4.52,3.24c-2.74,3.18-4.82,6.87-7.01,10.43-4.87,7.93-9.75,15.86-14.62,23.79-2.79,4.53-5.57,9.06-8.36,13.59-1.01,1.65,1.58,3.16,2.59,1.51,4.48-7.29,8.97-14.58,13.45-21.87s8.57-14.26,13.09-21.24c1.16-1.79,2.4-3.53,3.87-5.07.68-.71,1.43-1.56,2.5-1.42.98.13,1.87.86,2.63,1.43,1.54,1.16,3.04-1.44,1.51-2.59h0Z"/><path fill="#f47382" d="m527.86,232.76c4.29,15.32,1.96,31.38-.35,46.82-.28,1.89,2.61,2.7,2.89.8,2.39-15.99,4.8-32.55.35-48.42-.52-1.86-3.42-1.07-2.89.8h0Z"/></g><path fill="#ff8383" d="m531.98,347.62c1.1,6.14-59.22,228.28-76.34,258.85-13.25,21.16-35.92,34.23-64,35.55-28.09,1.31-46.68-14.85-50.22-51.71-3.55-36.85,21.51-102.4,21.51-102.4,0,0,67.88-151.73,73.69-160.97,5.8-9.25,18.31-13.87,30.55-11.74,12.24,2.13,63.71,26.28,64.81,32.42Z"/><path fill="#dd315a" d="m438.51,344.08c22.95,10.29,44.7,23.32,64.53,38.8,5.56,4.34,10.97,8.88,16.23,13.59,1.43,1.28,3.56-.83,2.12-2.12-18.83-16.86-39.66-31.46-61.96-43.35-6.36-3.39-12.83-6.56-19.4-9.5-1.75-.78-3.27,1.8-1.51,2.59h0Z"/><g><path fill="#dd315a" d="m383.88,444.82c-15.74,21.43-27.28,45.95-33.57,71.8-1.76,7.24-3.09,14.58-4.03,21.97-.24,1.91,2.76,1.89,3,0,3.3-25.9,11.94-51.05,25.01-73.63,3.72-6.43,7.79-12.64,12.19-18.62,1.14-1.56-1.46-3.06-2.59-1.51h0Z"/><path fill="#dd315a" d="m379.24,446.14c-9.1,5.97-18.12,12.03-27.08,18.21-1.58,1.09-.08,3.69,1.51,2.59,8.96-6.17,17.98-12.24,27.08-18.21,1.61-1.05.11-3.65-1.51-2.59h0Z"/><path fill="#ef7748" d="m327.79,361.16c12.19,1.27,23.86,5.82,31.94,15.34,4.7,5.53,7.86,12.32,10.45,19.04,2.93,7.58,5.07,15.43,7.11,23.29,1.14,4.38,2.22,8.77,3.19,13.19s2.03,9.24,3.55,13.73c.61,1.82,3.51,1.04,2.89-.8-2.71-8.04-4.05-16.51-6.16-24.72s-4.24-16.32-7.19-24.21c-2.66-7.14-5.87-14.25-10.6-20.28-3.83-4.88-8.7-8.92-14.22-11.76-6.52-3.36-13.69-5.06-20.94-5.81-1.92-.2-1.9,2.8,0,3h0Z"/></g></g><path fill="#dd315a" d="m704.84,426.2c.04,17.68,1.36,35.34,3.91,52.83,2.54,17.43,6.32,34.69,11.31,51.58,2.82,9.54,6.03,18.96,9.6,28.24.69,1.78,3.59,1.01,2.89-.8-6.31-16.37-11.46-33.17-15.38-50.27s-6.64-34.51-8.09-52.01c-.81-9.83-1.22-19.7-1.25-29.56,0-1.93-3-1.93-3,0h0Z"/></g><g><circle cx="97.37" cy="528.32" r="11.81" fill="#f3f8ff"/><circle cx="832.63" cy="661.08" r="28.38" fill="#f3f8ff"/><circle cx="935.01" cy="573.46" r="19.84" fill="#f3f8ff"/><circle cx="280.65" cy="119.6" r="21.36" fill="#f3f8ff"/></g><g><rect width="354.87" height="148.59" x="535.29" y="585.97" fill="#f1656e" rx="13.55" ry="13.55"/><path fill="#fff" d="m886.16,599.52v121.5c0,5.27-4.29,9.55-9.55,9.55h-327.77c-5.27,0-9.55-4.28-9.55-9.55v-121.5c0-5.26,4.28-9.55,9.55-9.55h327.77c5.26,0,9.55,4.29,9.55,9.55Z"/><path fill="#fff" d="m886.16,659.01v62.01c0,5.27-4.29,9.55-9.55,9.55h-327.77c-5.27,0-9.55-4.28-9.55-9.55v-63c52.71-4.23,109-6.51,167.48-6.51,62.91,0,123.29,2.64,179.39,7.5Z"/><g><path fill="#f1656e" d="m611.52,677.11h-8.08l-11.94-20.97v20.97h-8.12v-33.7h8.12l11.92,20.97v-20.97h8.1v33.7Z"/><path fill="#f1656e" d="m645.2,660.95c0,3.29-.61,6.2-1.83,8.73-1.22,2.53-2.95,4.48-5.2,5.84-2.24,1.37-4.8,2.05-7.67,2.05s-5.42-.66-7.64-1.98c-2.22-1.32-3.95-3.21-5.2-5.66-1.24-2.45-1.89-5.27-1.96-8.45v-1.9c0-3.3.61-6.22,1.82-8.74,1.21-2.52,2.95-4.47,5.21-5.84,2.26-1.37,4.83-2.06,7.72-2.06s5.4.68,7.64,2.04,3.98,3.29,5.22,5.8c1.24,2.51,1.87,5.38,1.89,8.62v1.55Zm-8.26-1.41c0-3.35-.56-5.89-1.68-7.63-1.12-1.74-2.72-2.6-4.8-2.6-4.07,0-6.23,3.06-6.46,9.17l-.02,2.48c0,3.3.55,5.84,1.64,7.62s2.72,2.66,4.88,2.66,3.63-.87,4.75-2.62c1.11-1.74,1.67-4.25,1.69-7.52v-1.55Z"/><path fill="#f1656e" d="m673.87,649.68h-10.12v27.43h-8.12v-27.43h-9.93v-6.27h28.17v6.27Z"/><path fill="#f1656e" d="m708.94,663.68h-13.1v13.42h-8.12v-33.7h22.55v6.27h-14.42v7.75h13.1v6.25Z"/><path fill="#f1656e" d="m742.18,660.95c0,3.29-.61,6.2-1.83,8.73-1.22,2.53-2.95,4.48-5.2,5.84-2.24,1.37-4.8,2.05-7.67,2.05s-5.42-.66-7.64-1.98c-2.22-1.32-3.95-3.21-5.2-5.66-1.24-2.45-1.89-5.27-1.96-8.45v-1.9c0-3.3.61-6.22,1.82-8.74,1.21-2.52,2.95-4.47,5.21-5.84,2.26-1.37,4.83-2.06,7.72-2.06s5.4.68,7.64,2.04,3.98,3.29,5.22,5.8c1.24,2.51,1.87,5.38,1.89,8.62v1.55Zm-8.26-1.41c0-3.35-.56-5.89-1.68-7.63-1.12-1.74-2.72-2.6-4.8-2.6-4.07,0-6.23,3.06-6.46,9.17l-.02,2.48c0,3.3.55,5.84,1.64,7.62s2.72,2.66,4.88,2.66,3.63-.87,4.75-2.62c1.11-1.74,1.67-4.25,1.69-7.52v-1.55Z"/><path fill="#f1656e" d="m772.8,643.41v22.06c0,2.5-.53,4.66-1.6,6.49-1.06,1.83-2.59,3.22-4.58,4.18-1.99.96-4.34,1.44-7.06,1.44-4.1,0-7.34-1.06-9.7-3.19-2.36-2.13-3.56-5.05-3.61-8.75v-22.22h8.17v22.38c.09,3.69,1.81,5.53,5.14,5.53,1.68,0,2.95-.46,3.82-1.39.86-.93,1.3-2.43,1.3-4.51v-22.01h8.12Z"/><path fill="#f1656e" d="m806.02,677.11h-8.08l-11.94-20.97v20.97h-8.12v-33.7h8.12l11.92,20.97v-20.97h8.1v33.7Z"/><path fill="#f1656e" d="m811.16,677.11v-33.7h10.86c2.98,0,5.66.67,8.03,2.03,2.38,1.35,4.23,3.26,5.57,5.72,1.33,2.46,2.01,5.22,2.03,8.28v1.55c0,3.09-.65,5.85-1.96,8.3-1.3,2.45-3.14,4.36-5.51,5.74-2.37,1.38-5.01,2.08-7.93,2.1h-11.09Zm8.12-27.43v21.18h2.82c2.33,0,4.12-.83,5.37-2.49s1.88-4.12,1.88-7.4v-1.46c0-3.26-.63-5.71-1.88-7.36-1.25-1.65-3.07-2.48-5.46-2.48h-2.73Z"/></g></g><g><path fill="#ff8383" d="m77.88,579.72c-9.65,0-18.29-4.99-23.12-13.35s-4.83-18.34,0-26.69l86.19-149.28c4.83-8.36,13.47-13.35,23.12-13.35s18.29,4.99,23.12,13.35l86.19,149.28c4.83,8.36,4.83,18.34,0,26.69-4.83,8.36-13.47,13.35-23.12,13.35H77.88Z"/><path fill="#fff" d="m148.63,405.98l-76.54,132.56c-6.86,11.89,1.72,26.75,15.44,26.75h153.07c13.73,0,22.3-14.86,15.44-26.75l-76.54-132.56c-6.86-11.89-24.02-11.89-30.88,0Z"/><path fill="#ff8383" d="m153.58,525.9c0-2.76,1-5.03,3-6.81,2-1.77,4.49-2.66,7.48-2.66s5.48.89,7.48,2.66c2,1.77,3,4.04,3,6.81s-1,5.03-3,6.81c-2,1.77-4.49,2.66-7.48,2.66s-5.48-.89-7.48-2.66c-2-1.77-3-4.04-3-6.81Zm18.26-17.37h-15.29l-2.41-55.74h20.11l-2.41,55.74Z"/></g></svg>