<svg xmlns="http://www.w3.org/2000/svg" viewBox="0 0 1920 1080"><g><ellipse cx="178.53" cy="177.29" fill="#fff7ef" rx="41.68" ry="40.49"/><path fill="#f7dfca" d="M285.44,954.28c-75.22-98.15-118.16-199.08-131.32-318.8-9-81.49,8.58-210.09,64.89-278.62,75.39-91.73,202.5-112.66,311.84-103.1,61.06,5.33,113.25,33.65,177.43,33.55C777,287.2,846.1,271.51,912,249.57c118.13-39.34,232.21-97,354.64-114.26C1473,106.18,1687.26,209.67,1772,387.87c23,48.36,36.82,100.86,45.18,154.18,12.07,77,12.58,158.16-15,233.56S1715.61,920,1637.91,947.08c-88.47,30.85-187.06,7-278,7H285.37"/><ellipse cx="965.75" cy="960.94" fill="#e8d0bb" rx="787.89" ry="50.5"/></g><g><path fill="#a3c658" d="M824.94,771.06c-13.11-35.49-9-59.34,5-64.52s32.64,10.28,45.75,45.76,15.74,77.56,1.72,82.74S838.05,806.54,824.94,771.06Z"/><path fill="none" stroke="#365650" stroke-miterlimit="10" stroke-width=".75" d="M845,741.58c15.58,45.29,37.28,86.12,46.69,164"/><path fill="#c7d166" d="M888.46,768.53c13.27-30.22,33.34-41.38,49-34.5s21,29.21,7.77,59.44-40.14,56.9-55.82,50S875.19,798.76,888.46,768.53Z"/><path fill="none" stroke="#365650" stroke-miterlimit="10" stroke-width=".75" d="M925.51,763c-10.59,21.76-21.2,43.58-29,66.48s-12.83,47-11.82,71.2"/><path fill="#c7d166" d="M785.76,831.68C761,812.93,754.63,792.89,763.65,781s30.05-11.18,54.79,7.56,43.84,48.41,34.82,60.33S810.51,850.42,785.76,831.68Z"/><path fill="none" stroke="#365650" stroke-miterlimit="10" stroke-width=".75" d="M882.56,890.47c-9.52-23.2-41.21-56.46-90.82-90.58"/><path fill="#a3c658" d="M954.16,801.73c23.3-16.13,41.86-16.89,48.83-6.82s-.28,27.18-23.58,43.3-53.82,25.17-60.79,15.09S930.86,817.85,954.16,801.73Z"/><path fill="none" stroke="#365650" stroke-miterlimit="10" stroke-width=".75" d="M986.49,804.26c-40,22.61-65,43.32-92.82,82.15"/><path fill="#c7d166" d="M840.32,924.76c-10,21.82-25.14,29.5-37,24.07s-15.93-21.91-5.94-43.73,30.26-40.71,42.12-35.28S850.31,902.94,840.32,924.76Z"/><path fill="none" stroke="#365650" stroke-miterlimit="10" stroke-width=".75" d="M817,917.2c6.86-21.31,24.1-76.57,44.24-49.93"/><path fill="#b8bc58" d="M975,905.65c6.39,17,2.43,29.26-6.81,32.73s-20.28-3.14-26.67-20.16-5.71-38,3.53-41.45S968.65,888.64,975,905.65Z"/><path fill="none" stroke="#365650" stroke-miterlimit="10" stroke-width=".75" d="M917.6,867.27c7.35-19.78,22.31-7.79,42.71,45.12"/><polygon fill="#fc9b88" points="943.42 984.73 832.2 984.73 845.99 867.27 930.5 867.27 943.42 984.73"/><line x1="844.99" x2="930.5" y1="881.7" y2="881.7" fill="none" stroke="#fff" stroke-miterlimit="10" stroke-width="3"/><line x1="844.99" x2="929.23" y1="875.15" y2="875.15" fill="none" stroke="#fff" stroke-miterlimit="10" stroke-width="3"/></g><g><path fill="#a0bf40" fill-rule="evenodd" d="M1459.3,637.73c8.45,38.36,67.57,57.61,77.83,68.47C1554.33,670.71,1495.07,625.92,1459.3,637.73Z"/><path fill="none" stroke="#365650" stroke-miterlimit="10" stroke-width=".75" d="M1482.48,651.63c11,1.89,19.83,9.71,28,17.21,14.79,13.48,30.1,27.72,36.92,46.53"/><path fill="#a0bf40" fill-rule="evenodd" d="M1590.37,536h0a13.54,13.54,0,0,0-1.95.41c-44.56,10.26-80.45,91.3-41.66,119,45.36-31.72,32.41-98,43.61-119.42Z"/><path fill="none" stroke="#365650" stroke-miterlimit="10" stroke-width=".75" d="M1569.58,554.83c-18.5,37.24-20.56,80.21-22.28,121.75"/><path fill="#a7db56" fill-rule="evenodd" d="M1497.11,596.43c-4.73,28.59,37.42,57.89,41.47,68.13C1549.76,633.82,1524.84,598.16,1497.11,596.43Z"/><path fill="none" stroke="#365650" stroke-miterlimit="10" stroke-width=".75" d="M1509.76,613.7c13.08,12.64,34.88,37.36,33,91.39"/><path fill="#a0bf40" fill-rule="evenodd" d="M1551.17,740.63c50.72,22.16,97.61-38.24,124.64-25.06C1645,681.11,1554.64,692.38,1551.17,740.63Z"/><path fill="none" stroke="#365650" stroke-miterlimit="10" stroke-width=".75" d="M1644,706.2s-82.54-1.11-97,52.22"/><path fill="#a0bf40" fill-rule="evenodd" d="M1550.3,710.09c60.57-12.78,51.65-78.09,76.5-91.87C1583.94,611.14,1524.38,672.71,1550.3,710.09Z"/><path fill="none" stroke="#365650" stroke-miterlimit="10" stroke-width=".75" d="M1604.06,630.28c-27.07,17.88-58.49,71.08-61.29,113.94"/><path fill="#a0bf40" fill-rule="evenodd" d="M1552.59,779.61c38.47,15.72,91.37-9.56,101.82-19.47C1629.58,731.81,1555.79,740.3,1552.59,779.61Z"/><path fill="none" stroke="#365650" stroke-miterlimit="10" stroke-width=".75" d="M1613.45,761.5c-16.57-3-34.39-1.06-48.87,7.55s-25.07,24.33-25.43,41.17"/><path fill="#a7db56" fill-rule="evenodd" d="M1610.84,673.39c-37.63,1.84-80.82,43.93-67.65,90.49C1548.87,750.06,1616.73,712.23,1610.84,673.39Z"/><path fill="none" stroke="#365650" stroke-miterlimit="10" stroke-width=".75" d="M1600.74,681.74c-48.32,34.26-58.94,85.59-62.38,112.45"/><path fill="#a0bf40" fill-rule="evenodd" d="M1456,679.6c16.29,16.46,11.39,30.25,27.42,50,13.72,16.91,32,32.61,53.37,38.12C1562.7,719.53,1499.35,662.46,1456,679.6Z"/><path fill="none" stroke="#365650" stroke-miterlimit="10" stroke-width=".75" d="M1477.26,685.15c11.35,3.1,20.53,11.43,28.07,20.46,23.54,28.16,29.07,63.63,34,100"/><path fill="#a7db56" fill-rule="evenodd" d="M1420.23,719.27c23.8,11.31,76.74,43.65,105,37.44C1528.3,714.4,1451.28,693.24,1420.23,719.27Z"/><path fill="none" stroke="#365650" stroke-miterlimit="10" stroke-width=".75" d="M1459.3,722.22c27.41,6.25,74.19,26.33,76,60.2"/><path fill="#a0bf40" fill-rule="evenodd" d="M1412,761.36h0c22.72,1.78,69.11,45.21,117.09,24.87C1526.33,740.78,1441.35,729.24,1412,761.36Z"/><path fill="none" stroke="#365650" stroke-miterlimit="10" stroke-width=".75" d="M1437.11,758.63c13.74-.3,27.55-.59,41.14,1.42,15.58,2.3,30.89,7.75,43.5,17.2s15.12,17.35,18.42,32.75"/><polygon fill="#a0a0ea" points="1589.82 971.52 1478.41 971.52 1492.22 797.68 1576.87 797.68 1589.82 971.52"/><line x1="1491.22" x2="1576.87" y1="821.34" y2="821.34" fill="none" stroke="#fff" stroke-miterlimit="10" stroke-width="3"/><line x1="1491.22" x2="1575.61" y1="810.6" y2="810.6" fill="none" stroke="#fff" stroke-miterlimit="10" stroke-width="3"/></g><g><path fill="#edb388" d="M1696.58,493.79a57.18,57.18,0,0,1,14-6.06l2.88-13.82,23.34-.41,3.36,13.71a56.92,56.92,0,0,1,14.16,5.57l11.8-7.73,16.79,16.21-7.31,12.06a56.7,56.7,0,0,1,6.06,14l13.82,2.87.41,23.34-13.71,3.36a56.92,56.92,0,0,1-5.57,14.16l7.73,11.8-16.21,16.8L1756,592.29a57.11,57.11,0,0,1-14,6.07l-2.87,13.81-23.34.41-3.36-13.7a57.31,57.31,0,0,1-14.16-5.57l-11.8,7.73-16.79-16.22,7.31-12.06a57.21,57.21,0,0,1-6.07-14l-13.81-2.88-.41-23.34,13.7-3.36a57.71,57.71,0,0,1,5.57-14.16l-7.73-11.8,16.22-16.79,12.06,7.31Zm12.44,31.1a25,25,0,1,0,35.41-.63A25,25,0,0,0,1709,524.89Z"/></g><g><path fill="#edb388" d="M1036.58,672.79a57.18,57.18,0,0,1,14-6.06l2.88-13.82,23.34-.41,3.36,13.71a56.92,56.92,0,0,1,14.16,5.57l11.8-7.73,16.79,16.21-7.31,12.06a56.7,56.7,0,0,1,6.06,14l13.82,2.87.41,23.34-13.71,3.36a56.92,56.92,0,0,1-5.57,14.16l7.73,11.8-16.21,16.8L1096,771.29a57.11,57.11,0,0,1-14,6.07l-2.87,13.81-23.34.41-3.36-13.7a57.31,57.31,0,0,1-14.16-5.57l-11.8,7.73-16.79-16.22,7.31-12.06a57.21,57.21,0,0,1-6.07-14l-13.81-2.88-.41-23.34,13.7-3.36a57.71,57.71,0,0,1,5.57-14.16l-7.73-11.8,16.22-16.79,12.06,7.31Zm12.44,31.1a25,25,0,1,0,35.41-.63A25,25,0,0,0,1049,703.89Z"/></g><g><path fill="#edb388" d="M476.17,139a40.83,40.83,0,0,1,10-4.33l2.05-9.86,16.66-.29,2.39,9.78a40.84,40.84,0,0,1,10.11,4l8.42-5.52,12,11.57-5.22,8.6a40.51,40.51,0,0,1,4.33,10l9.86,2.05.29,16.65-9.78,2.4a40.74,40.74,0,0,1-4,10.1l5.51,8.42-11.57,12-8.6-5.21a40.79,40.79,0,0,1-10,4.32l-2.05,9.86-16.66.29-2.4-9.77a40.77,40.77,0,0,1-10.1-4L469,215.51l-12-11.57,5.22-8.61a40.45,40.45,0,0,1-4.33-10l-9.86-2.05-.29-16.65,9.78-2.4a41,41,0,0,1,4-10.11L456,145.75l11.57-12,8.6,5.22Zm8.88,22.19a17.87,17.87,0,1,0,25.27-.45A17.86,17.86,0,0,0,485.05,161.17Z"/></g><g><rect width="165.91" height="180.63" x="178.94" y="188.29" fill="#fff" stroke="#ccb9fb" stroke-miterlimit="10" rx="13.48"/><path fill="#ccb9fb" d="M185,188.29H339.26a5.59,5.59,0,0,1,5.59,5.59V219a0,0,0,0,1,0,0H178.94a0,0,0,0,1,0,0V194.36A6.07,6.07,0,0,1,185,188.29Z"/><path fill="#fff" d="M207.51,206.67a4.87,4.87,0,1,1-4.87-4.58A4.73,4.73,0,0,1,207.51,206.67Z"/><path fill="#fff" d="M220.76,206.67a4.87,4.87,0,1,1-4.86-4.58A4.72,4.72,0,0,1,220.76,206.67Z"/><path fill="#fff" d="M234,206.67a4.87,4.87,0,1,1-4.87-4.58A4.73,4.73,0,0,1,234,206.67Z"/><path fill="#6684ee" d="M255.45,292.11l-41.7-42.35a59.36,59.36,0,1,1-15,60.07Z"/><path fill="#f78628" d="M245.84,290.08l-49.51,14.84a51.65,51.65,0,0,1,12.75-51.17Z"/></g><g><rect width="184.47" height="284.8" x="1472.44" y="193.91" fill="#6d6d6d" opacity=".37"/><rect width="184.46" height="31.1" x="1464.51" y="186.26" fill="#4e6fcc"/><line x1="1471.35" x2="1482.51" y1="196.48" y2="206.8" fill="none" stroke="#fff" stroke-linecap="round" stroke-linejoin="round" stroke-width="1.02"/><line x1="1482.51" x2="1471.35" y1="196.48" y2="206.8" fill="none" stroke="#fff" stroke-linecap="round" stroke-linejoin="round" stroke-width="1.02"/><rect width="10.33" height="10.33" x="1490.62" y="196.48" fill="none" stroke="#fff" stroke-linecap="round" stroke-linejoin="round" stroke-width="1.02"/><path fill="none" stroke="#fff" stroke-linecap="round" stroke-linejoin="round" stroke-width="1.02" d="M1519.53,201.64a5.24,5.24,0,1,1-5.24-5.24A5.25,5.25,0,0,1,1519.53,201.64Z"/><line x1="1525.12" x2="1556.82" y1="201.64" y2="201.64" fill="none" stroke="#fff" stroke-linecap="round" stroke-linejoin="round" stroke-width="1.02"/><rect width="184.47" height="252.72" x="1464.51" y="217.68" fill="#fff"/><path fill="#ff8724" d="M1492.15,368.52a4.39,4.39,0,1,1-4.38-4.38A4.38,4.38,0,0,1,1492.15,368.52Z"/><line x1="1496.96" x2="1591.87" y1="368.52" y2="368.52" fill="none" stroke="#4c5b93" stroke-miterlimit="10" stroke-width=".75"/><path fill="#ffc022" d="M1492.15,388.17a4.39,4.39,0,1,1-4.38-4.39A4.38,4.38,0,0,1,1492.15,388.17Z"/><line x1="1496.96" x2="1591.87" y1="388.17" y2="388.17" fill="none" stroke="#4c5b93" stroke-miterlimit="10" stroke-width=".75"/><path fill="#ffd983" d="M1492.15,407.82a4.39,4.39,0,1,1-4.38-4.39A4.38,4.38,0,0,1,1492.15,407.82Z"/><line x1="1496.96" x2="1591.87" y1="407.82" y2="407.82" fill="none" stroke="#4c5b93" stroke-miterlimit="10" stroke-width=".75"/><path fill="#6484ed" d="M1492.15,427.46a4.39,4.39,0,1,1-4.38-4.38A4.39,4.39,0,0,1,1492.15,427.46Z"/><line x1="1496.96" x2="1591.87" y1="427.46" y2="427.46" fill="none" stroke="#4c5b93" stroke-miterlimit="10" stroke-width=".75"/><path fill="#4862e0" d="M1492.15,446.43a4.39,4.39,0,1,1-4.38-4.39A4.38,4.38,0,0,1,1492.15,446.43Z"/><line x1="1496.96" x2="1591.87" y1="446.43" y2="446.43" fill="none" stroke="#4c5b93" stroke-miterlimit="10" stroke-width=".75"/><polyline fill="none" stroke="#9eaeff" stroke-linecap="round" stroke-linejoin="round" stroke-width="3.07" points="1609.75 411.7 1630.1 397.99 1609.75 384.29"/></g><g><circle cx="1556.82" cy="286.27" r="57.08" fill="#ffc022" transform="rotate(-80.91 1556.83 286.268)"/><path fill="#ff8724" d="M1566.48,230l-9.66,56.24,52.31,22.84A57.06,57.06,0,0,0,1566.48,230Z"/><path fill="#4862e0" d="M1556.82,286.27l34.89,45.16a57.33,57.33,0,0,0,17.3-22.05Z"/><path fill="#6484ed" d="M1556.82,286.27l-51.07,25.47a57,57,0,0,0,86,19.69Z"/><path fill="#ffd983" d="M1499.87,282.71c-.07,1.18-.12,2.36-.12,3.56a56.83,56.83,0,0,0,6,25.47h0l51.07-25.47Z"/></g><g><rect width="683.49" height="385" x="590" y="156" fill="#fff" stroke="#a0a0ea" stroke-miterlimit="10" rx="8.6"/><line x1="604.17" x2="1255.78" y1="177.25" y2="173.71" fill="#abc0ef"/><line x1="604.17" x2="1255.78" y1="212.16" y2="208.61" fill="#abc0ef"/><line x1="604.17" x2="1255.78" y1="247.06" y2="243.52" fill="#abc0ef"/><line x1="604.17" x2="1255.78" y1="281.97" y2="278.43" fill="#abc0ef"/><line x1="604.17" x2="1255.78" y1="316.88" y2="313.34" fill="#abc0ef"/><line x1="604.17" x2="1255.78" y1="351.79" y2="348.25" fill="#abc0ef"/><line x1="604.17" x2="1255.78" y1="386.7" y2="383.16" fill="#abc0ef"/><line x1="604.17" x2="1255.78" y1="421.6" y2="418.06" fill="#abc0ef"/><line x1="604.17" x2="1255.78" y1="456.51" y2="452.97" fill="#abc0ef"/><line x1="604.17" x2="1255.78" y1="491.42" y2="487.88" fill="#abc0ef"/><line x1="604.17" x2="1255.78" y1="526.33" y2="522.79" fill="#abc0ef"/><line x1="639.33" x2="639.33" y1="166.88" y2="534.17" fill="#fff" stroke="#a0a0ea" stroke-miterlimit="10"/><line x1="711.67" x2="711.67" y1="167.13" y2="534.42" fill="#fff" stroke="#a0a0ea" stroke-miterlimit="10"/><line x1="784.02" x2="784.02" y1="167.38" y2="534.68" fill="#fff" stroke="#a0a0ea" stroke-miterlimit="10"/><line x1="856.36" x2="856.36" y1="167.64" y2="534.93" fill="#fff" stroke="#a0a0ea" stroke-miterlimit="10"/><line x1="928.71" x2="928.71" y1="167.89" y2="535.18" fill="#fff" stroke="#a0a0ea" stroke-miterlimit="10"/><line x1="1001.05" x2="1001.05" y1="168.14" y2="535.43" fill="#fff" stroke="#a0a0ea" stroke-miterlimit="10"/><line x1="1073.4" x2="1073.4" y1="168.39" y2="535.69" fill="#fff" stroke="#a0a0ea" stroke-miterlimit="10"/><line x1="1145.75" x2="1145.75" y1="168.65" y2="535.94" fill="#fff" stroke="#a0a0ea" stroke-miterlimit="10"/><line x1="1218.09" x2="1218.09" y1="168.9" y2="536.19" fill="#fff" stroke="#a0a0ea" stroke-miterlimit="10"/></g><g><polyline fill="none" stroke="#f27944" stroke-miterlimit="10" stroke-width="3" points="603.91 473.46 711.67 351.03 784.02 318.3 926.58 421.6 964.12 382.9 1001.05 419.45 1096.11 247.06 1218.09 168.9"/><polyline fill="none" stroke="#39eaea" stroke-miterlimit="10" stroke-width="3" points="604.17 421.6 639.33 386.7 711.67 421.02 857.28 316.88 924.07 350.02 1001.05 282.69 1065.56 346.73 1245.16 193.94"/></g><g><path fill="#f8ab84" d="M476.9,911.49,471,950.59s5.74,3.35,20.32,3.35,18.88-6.7,18.88-6.7l22-58.1Z"/><path fill="#44bffc" d="M510,701.56S477,861.21,474.19,885.79s-4.75,42.14-4.75,42.14,18.49,6.81,37,5.84c14.55-.77,19.41.29,20.44-1.95S600.16,718.2,592,707,514.11,692.62,510,701.56Z"/><path fill="none" stroke="#2b7498" stroke-miterlimit="10" stroke-width="1.6" d="M546.15,753.46a644.61,644.61,0,0,0-49.1,165.84"/><path fill="#5590f1" d="M469,946.41l-3.24,43.41,30.14,3.36,4-4.41,11,5.53s40.9,2.24,52.74-1.12,21.53-12.33,16.15-17.94-65.89-29-67.74-33.15-22.68,7.36-29.14,6.24S469,946.41,469,946.41Z"/><path fill="none" stroke="#fff" stroke-miterlimit="10" stroke-width="1.6" d="M531.12,931.34a7.86,7.86,0,0,0-1.3-3.6,3.16,3.16,0,0,0-3.4-1.24c-1.75.62-2.14,2.88-2.19,4.74-.16,6,1.29,14.91,2.16,20.81-1.43-2-4-7-5.9-8.48a8.93,8.93,0,0,0-6.78-2.11c-2.41.38-4.63,2.41-4.7,4.85-.22,7.08,12.3,10.38,17.19,6.71C532,948.65,532.16,937.66,531.12,931.34Z"/><path fill="#fff" stroke="#b5c0cb" stroke-miterlimit="10" d="M247.09,715.69,550.4,736.15s-142.53-21.64-187-34c-42.39-11.76-66.1-38.82-73.64-65.3L251.91,504.1c-3.12-11-20-19-39.9-19h0Z"/><path fill="#fff" stroke="#b5c0cb" stroke-miterlimit="10" d="M327.11,487.22c-2.59,1.88-100.75-1.45-100.31,1.67,10.76,76.65,21.48,151.64,32.25,228.29.51,3.62,1.62,8,6.5,10.75,3.46,2,7.59,2.36,11.31,2.61A922.44,922.44,0,0,0,424,729.25c4-.37,8.23-.89,10-3.14,1.2-1.53,1-3.64.82-5.67-2.4-24.26-4.8-48.55-10.69-73.42-7.74-32.63-21.39-65.91-31.61-98.81-5.33-17.15-8.62-33.78-11.84-50.62-2-10.62-4.69-9.7-19.91-11.39C348.34,484.82,329.64,485.37,327.11,487.22Z"/><path fill="#fff" stroke="#b5c0cb" stroke-miterlimit="10" d="M247.46,715.69H520.08a38.08,38.08,0,0,1,38.08,38.08v8.81a0,0,0,0,1,0,0H285.55a38.08,38.08,0,0,1-38.08-38.08v-8.81a0,0,0,0,1,0,0Z" transform="rotate(-180 402.815 739.13)"/><path fill="#fff" stroke="#b5c0cb" stroke-miterlimit="10" d="M300.33,934.56h212c22.05,45.64,37.89,81.86,38.13,82.35h16.08c-.37-.73-113.4-230.59-126.41-254.13-7.77-14.07-14-24.87-18.47-32.12-2.55-4.13-4.56-7.15-6.16-9.24-1.47-1.94-6-7.84-11.63-4.52-2.36,1.38-4.06,2.38-31,49.1C359,789.83,239,1016.2,238.64,1016.91h16.9C269.45,991.75,284.82,963.39,300.33,934.56Zm3.16-5.89c44.39-82.61,89.23-167.6,104.11-191.26,7.43,11.53,26.65,45,76.31,140.43,8.95,17.21,17.59,34.53,25.52,50.83Z"/><path fill="#69c6ff" d="M319.28,573.92s-37.69,105,11.59,133.94c32.63,19.19,235,5.5,235,5.5s88.07-40.67,76.37-64.07c-3.83-7.66-4.46-27.19-38.27-34.78C534.58,598.92,412.05,589,412.05,589Z"/><path fill="none" stroke="#2b7498" stroke-miterlimit="10" stroke-width="1.6" d="M605,693.7c-10.46-10.86-29.71-14.43-44.74-15.65-47.32-3.84-146.43,11.83-160.93-43.25"/><path fill="none" stroke="#2b7498" stroke-miterlimit="10" stroke-width="1.6" d="M429.77,610.08c.58-.65,1.58.21,2,1a49.69,49.69,0,0,1-4.33,51.25"/><path fill="#f8ab84" d="M612.66,903.31l13,47.39s7.8,4.06,23.4,4.06S666,946.63,666,946.63l-5.19-70.4Z"/><path fill="#69c6ff" d="M563.52,706.82s24.3,135.47,33.31,165.28a395.08,395.08,0,0,0,21.94,55.58s20.79,2.77,35.09.1,19.53-9.42,19.54-12.13-16.9-252.77-31.16-266.36S563.55,696,563.52,706.82Z"/><path fill="none" stroke="#2b7498" stroke-miterlimit="10" stroke-width="1.6" d="M646.62,911.4Q628.48,802.05,605,693.7"/><path fill="#5590f1" d="M624,950.53l-3.49,41,37.59,4.4,3.87-4.23,10.56,5.3S711.65,999.19,723,996s20.61-11.82,15.46-17.18-67.29-30.38-69.06-34.36-17.52,9.66-23.71,8.59S624,950.53,624,950.53Z"/><path fill="none" stroke="#fff" stroke-miterlimit="10" stroke-width="1.6" d="M684.75,943.26a6.59,6.59,0,0,0-1.94-4.14c-1.3-1.11-3.77-1.58-5.25-.61a3.13,3.13,0,0,0-1.3,2.83,16,16,0,0,0,1.91,6.31c1,2.26,4.94,6.32,6,8.57-2.08-1.67-7.1-5.19-9.87-6.12s-6.33-.89-8.5.71-2.28,4.6-1.22,6.93a6.77,6.77,0,0,0,1.83,2.51c2.11,1.74,5.7,2,8.68,1.38C686.4,959.1,686,950.85,684.75,943.26Z"/><path fill="#417ed5" d="M438.25,398.43c5.4,8.36,8,18.17,10.69,27.76,6.23,22.46,21.23,35.39,30.4,56.81,4,9.37,8.38,22,10.08,32s-7.81,27.32-14.6,34.92a9.56,9.56,0,0,1-3.11,2.48c-3.82,1.71-8.09-.92-11.36-3.52-23.53-18.7-44.9-41-54.62-69.42-2-6-5.33-15.87-7-21.44-3.57-12,4.66-40.68,7.95-52.78C409,396.67,409.38,392.44,419,390S433.63,391.26,438.25,398.43Z"/><path fill="#417ed5" d="M408,404.55a98.29,98.29,0,0,0,4,88.86"/><path fill="#f8ab84" d="M535.64,515.35l27.74-33.58c-6.83-11.22-4.79-18.81-16.06-25.56,0,0-35.4,27.36-38.7,32.86"/><path fill="#417ed5" d="M531.57,464.93s10.64,10,15.75,18.71,6.07,13.78,6.07,13.78-55.53,78.49-84.63,66.86-22.52-51.84-17.46-55.89S521.27,470.65,531.57,464.93Z"/><path fill="#f8ab84" d="M541,466.16s6.75-18.2,10.66-25.6,13.81-15.43,15.37-18.39,5.47-10.37,6.6-10.72,3.31,2.7,3.23,6.44a23.84,23.84,0,0,1-4.77,12.63c-2.69,3.31-4.6,5.14-4.25,6.27s6.35.51,13.49-.46,36.18-11.2,39.93-11.12,4.11,3.39-.16,7.49c-1.92,1.83-21.14,7.78-26.09,11.79-1.3,1.05,12.78-2.72,17.31-4.12s15-3.42,17.66-3,4.09,1.21,4.44,2.34-18.52,8.22-18.52,8.22a59.85,59.85,0,0,1,11.66-2.37c4.87-.27,5.14,4.6,4,4.95l-14.7,4.55s4.2-.22,6.35.51c1.27.43,1.41,1.58.7,2.26-1.91,1.83-26.87,13.28-40.79,16.35s-21.06,8.44-21.91,9.26c-1.91,1.83-6.52,7-6.52,7Z"/><path fill="none" stroke="#b96e4d" stroke-linecap="round" stroke-linejoin="round" stroke-width="1.5" d="M568.2,439.71a17.39,17.39,0,0,1,2.12,17.45"/><path fill="none" stroke="#b96e4d" stroke-linecap="round" stroke-linejoin="round" stroke-width="1.5" d="M610.83,448.56a81.08,81.08,0,0,1-14.27,5.09"/><path fill="none" stroke="#b96e4d" stroke-linecap="round" stroke-linejoin="round" stroke-width="1.5" d="M611,456.78l-3.66,1.45c-3.1,1.22-6.27,2.45-9.6,2.54"/><path fill="none" stroke="#b96e4d" stroke-linecap="round" stroke-linejoin="round" stroke-width="1.5" d="M595.71,444.23l-4.24,1.54"/><path fill="#4b8be9" d="M442.25,367.39c16.14,6.22,27.92,20,33.63,34.85,4.15,10.8,3.63,27.93,2.14,39.27C474.3,469.82,465.57,497,459.4,524.8c-2.84,12.81-7.83,29.12-6.15,42.31,1.5,11.68,10.88,20.88-.41,31.16-7.78,7.08-22.47,8.1-32.89,9.56a194.48,194.48,0,0,1-66.93-2.3c-17.5-3.69-37-12.51-40.82-30-2.6-12,3.2-22.95,6.82-34,4.38-13.31,2.06-23.27,3.41-36.47,2.81-27.4,12.95-53.72,23-79.72,7.59-19.57,15.69-40.05,31.15-55.9,8.34-8.56,12.06-18.92,24.33-18C414.82,352.5,429.35,362.42,442.25,367.39Z"/><path fill="#427dd2" d="M468.29,490.55s-12,46-14,54.67,4.3,41.45,4.3,41.45-.58,22.62-34.21,19.14C411.27,604.45,444.87,512.34,468.29,490.55Z"/><path fill="none" stroke="#1856a0" stroke-miterlimit="10" stroke-width="1.6" d="M468.44,489.82c-4.74,19.57-13,45.07-14.23,59.89-.66,8.3,1.8,19.78,2.78,28.87.5,4.61,1.81,6.93.78,11.45-3,13.05-14.83,16.6-33.21,16"/><path fill="#86b5f8" d="M431.22,346.38c-14.71-11.39-35.79-15.59-52.43-7.26-7.74,3.88-14.54,11-15.2,19.63-.88,11.42,8.71,20.7,17.84,27.6,16.17,12.23,35.89,23.31,55.73,19.1,6-1.27,16.65-3.79,20.23-9.39,3.21-5,.05-10.93-2-16C450.2,367.14,442.36,355,431.22,346.38Z"/><path fill="#4b8be9" d="M471.81,398.36c7.88,8.69,16.43,21,23.15,30.57,18.34,26.2,35.88,53.7,50.65,76.85,6.45,10.11-4,15.57-.13,26.92s4.29,24.6-2.14,34.73a11.28,11.28,0,0,1-3.14,3.48c-4.11,2.72-6.88,5.37-11.18,3-30.94-17.22-68.84-47.4-85.58-78.59-3.51-6.54-12.73-19.17-15.72-25.33-6.45-13.29-5-35.07-3.49-49.77,1.07-10.43,12.89-23.26,23.58-27.94S465.06,390.92,471.81,398.36Z"/><path fill="none" stroke="#296ed2" stroke-miterlimit="10" stroke-width="1.6" d="M427.72,413.21c-15.67,35.46,7.69,75.83,30.72,103.88"/><path fill="none" stroke="#c9dfff" stroke-miterlimit="10" d="M440.34,393.47c10.34,2.15,18.57,9.87,25.51,17.84,11.2,12.87,20.58,27.19,29.93,41.46q21.54,32.89,43.09,65.79"/><path fill="#f8ab84" d="M596.43,481.24S624,463,626.63,464.34s16.91,18.76,15.6,22.69-29.07,30.48-35.45,36.15C601.89,527.53,596.43,481.24,596.43,481.24Z"/><path fill="#4b8be9" d="M602.37,470s13.12,14.6,17.4,23.17,5.3,20.49,5.3,20.49-61.33,72.52-89.07,62-12.34-61.21-7-65.49S592.73,477.47,602.37,470Z"/><path fill="none" stroke="#c9dfff" stroke-miterlimit="10" d="M605.07,484a127.35,127.35,0,0,1-52.8,29.33"/><path fill="#f8ab84" d="M619.88,471s12-15.58,18-21.57,18-10.79,20.38-13.19,8.39-8.39,9.59-8.39,2.4,3.6,1.2,7.2a24.19,24.19,0,0,1-8.39,10.78c-3.6,2.4-6,3.6-6,4.8s6,2.39,13.19,3.59,38.35,0,41.95,1.2,3,4.51-2.4,7.19c-2.4,1.2-22.77,1.2-28.76,3.6-1.58.63,13.18,1.2,18,1.2s15.59,1.2,18,2.39,3.6,2.4,3.6,3.6-20.38,2.4-20.38,2.4a61.48,61.48,0,0,1,12,1.2c4.79,1.19,3.59,6,2.4,6H696.59s4.13,1,6,2.4a1.32,1.32,0,0,1,0,2.39c-2.4,1.2-30,4.8-44.35,3.6s-22.9,1.86-24,2.4c-2.4,1.19-8.39,4.79-8.39,4.79Z"/><path fill="none" stroke="#b96e4d" stroke-linecap="round" stroke-linejoin="round" stroke-width="1.5" d="M691.51,483a41.53,41.53,0,0,1-13.93.46"/><path fill="none" stroke="#b96e4d" stroke-linecap="round" stroke-linejoin="round" stroke-width="1.5" d="M695.61,475.87a135.09,135.09,0,0,1-18.43.76"/><path fill="#ffb483" d="M451.54,335.27l-2.14,42.82-49.25-22.48,20.34-48.18s22.49,6.42,23.56,6.42S451.54,335.27,451.54,335.27Z"/><path fill="#86b5f8" d="M462.22,391.18,423.89,357c-10.42-9.28-22.63-19.18-36.51-17.74-34.67,3.57-56.91,48.95-56.42,80.12.09,5.81,2.79,13.41,8.57,12.82,2.47-.25,4.47-2.08,6.15-3.9,6.91-7.46,12-16.42,18.58-24.18,25.49-30,64.93-35.56,97.1-14.13"/><path fill="none" stroke="#296ed2" stroke-miterlimit="10" stroke-width="1.6" d="M422.37,356.87c-11.14-6.67-25.65-5.71-37.42-.24s-21.25,14.88-29.65,24.79c-2.31,2.73-4.71,5.62-8.05,6.91s-7.88.24-9.11-3.11"/><path fill="#fff" d="M473.25,280.24c6,0,10.82,5.33,10.82,11.88S479.21,304,473.25,304s-10.82-5.32-10.82-11.87,4.86-11.88,10.82-11.88m0-3c-7.63,0-13.82,6.66-13.82,14.88S465.62,307,473.25,307s13.82-6.66,13.82-14.87-6.19-14.88-13.82-14.88Z"/><path fill="#ffb483" d="M478.71,302.92c.06,5.17.08,10.35,0,15.52-.16,8.46-.93,17.69-6.7,23.87a24.34,24.34,0,0,1-11.89,6.56,36.21,36.21,0,0,1-19.72-.51,24.06,24.06,0,0,1-7.9-4A26.16,26.16,0,0,1,426,335.9a82.53,82.53,0,0,1-6.21-17.49c-2.44-9.29-4.45-18.78-4.39-28.38s2.35-19.39,7.88-27.24a22.7,22.7,0,0,1,9.17-8c4.46-1.93,9.52-1.76,14.37-1.41s9.68,1.46,14.54,1.88c3.2.27,5.44.36,7.76,2.85,6.49,7,8,19,8.9,28.12C478.51,291.76,478.64,297.34,478.71,302.92Z"/><path fill="#86522d" d="M414.78,294.27c-2.4-2.23-3.21-5.66-3.69-8.89-.91-6-1-12.46,1.55-18,2.28-4.9,6.51-8.67,11.16-11.42a43.05,43.05,0,0,1,11.74-4.79,61.52,61.52,0,0,1,16.8-1.4c7.83.27,16.16,1.63,21.94,6.92a14.13,14.13,0,0,1,4,5.75,9.1,9.1,0,0,1-.3,6.88,9.68,9.68,0,0,1-3.48,3.71c-3.73,2.42-8.48,2.8-12.88,2.13a30.21,30.21,0,0,1-18.66-10.71c1.39,8.23-2.91,14.43-9.36,19.72-4.25,3.5-13.85-1.16-15.87,4-1.47,3.74,4.95,18.08,2.57,21.33s-2,13-5.54,11.4c1.17-2.55-5-19.22-4-21.82C412.07,295.82,415.62,297.66,414.78,294.27Z"/><path fill="none" stroke="#4f2e18" stroke-miterlimit="10" stroke-width="2" d="M473.16,264.29c-.18-.19.18-.5.41-.37a.76.76,0,0,1,.25.71,6.54,6.54,0,0,1-3.73,5.34,13.89,13.89,0,0,1-6.66,1.23c-8.82-.14-17.9-4.36-22.2-12.06"/><path fill="none" stroke="#4f2e18" stroke-miterlimit="10" stroke-width="2" d="M435.67,262.38c1.74,4.06.45,8.75-1.23,12.84a10.46,10.46,0,0,1-2,3.47,4,4,0,0,1-3.64,1.28"/><path fill="none" stroke="#4f2e18" stroke-miterlimit="10" stroke-width="2" d="M425.69,267.86a9.32,9.32,0,0,1-4.15,6.73"/><path fill="none" stroke="#4f2e18" stroke-miterlimit="10" stroke-width="2" d="M465.31,259.74c.27,1.35-1.49,2.15-2.87,2.27a19.77,19.77,0,0,1-13.28-3.75"/><path fill="#c38a65" d="M463.85,312.17c-4.53.25-9.35.73-13.31,3.13-1.81,1.1-2.74,2.74-4.75,3.54-2.22.88-4.85,1.26-7,0s-3.17-3.79-4.07-6.13c-2.32-6-5.6-9.66-8.08-15.62-.34-.81-.42-4.1-1-3.44a1.2,1.2,0,0,0-.25.64c-.72,3.61-7.13-2.51-8.67.82-.52,1.12.86,3.09,0,4-.26.26-.1,12.61-.1,12.15.78,5.77.45,11.66,1.25,17.43,1.29,9.22,5.85,18.35,13.74,23.3,4.71,3,10.27,4.27,15.75,5.24,6.62,1.18,13.79,1.88,19.76-1.2,4.94-2.54,8.38-7.4,10.21-12.64s2.2-10.86,2.24-16.41c0-3.33.76-10.38-2-12.82C474.38,311.34,467.67,312,463.85,312.17Z"/><path fill="#ffb483" d="M470.28,285.17c.17,3.54,3.82,3.11,6,5.95s5.23,9.61,7.93,11.91c.89.75,2.19,3.15,2.82,4.13a3.91,3.91,0,0,1,.58,3.33c-.56,1.64-2.42,2.42-4.12,2.75A17.69,17.69,0,0,1,472.73,312"/><path fill="#86522d" d="M459.81,280.16a6.68,6.68,0,0,0-4.38,2.22,3.36,3.36,0,0,1,1-2.72,6.5,6.5,0,0,1,2.58-1.5c2-.68,8.85-1.43,9.54,1.73C469.36,283.45,461.58,280,459.81,280.16Z"/><path fill="#ffb483" stroke="#db8e5b" stroke-miterlimit="10" d="M424.23,287.44a10.5,10.5,0,0,0-8.4-5.92,8.49,8.49,0,0,0-7.94,3.58c-1.59,2.55-1.36,5.86-.49,8.74a12.33,12.33,0,0,0,3.49,5.91,10.18,10.18,0,0,0,6.34,2.3,12.84,12.84,0,0,0,10.89-5.64"/><path fill="none" stroke="#db8e5b" stroke-miterlimit="10" d="M413.42,287.3a8.24,8.24,0,0,1,8.6,5.26l-1.39-.79a6.83,6.83,0,0,0-3.65-1.21c-1.29.09-2.59,1.29-2.28,2.55"/><path fill="#86522d" d="M414.42,248.65a22.32,22.32,0,0,0-6.91-7.29,12.16,12.16,0,0,0-9.71-1.58,8.48,8.48,0,0,0-6.1,7.29c-.17,3.43,2.13,6.86,1.1,10.14-.36,1.16-1.11,2.16-1.53,3.3a7.1,7.1,0,0,0,.75,6.14,9.58,9.58,0,0,0,5,3.82,1.87,1.87,0,0,1,.88.46c.35.4.28,1,.34,1.52.24,2,2.45,3.11,4.43,3.44a14.75,14.75,0,0,0,10.65-2.36C422.09,267.51,419.29,256.36,414.42,248.65Z"/><path fill="none" stroke="#4f2e18" stroke-miterlimit="10" d="M417.9,261.47a19.39,19.39,0,0,0-6.26,7.28"/><path fill="none" stroke="#4f2e18" stroke-miterlimit="10" stroke-width="2" d="M412.33,258.32A19.56,19.56,0,0,0,400.09,244c-1.15-.42-2.71-.6-3.36.44"/><path fill="none" stroke="#4f2e18" stroke-miterlimit="10" stroke-width="2" d="M405.81,260.63c-2-1.72-4.93-2.72-7.42-1.76s-3.93,4.4-2.29,6.5"/><path fill="#fff" d="M468.72,321A8.42,8.42,0,0,1,464,315.6a21.76,21.76,0,0,0,2.41,8,12,12,0,0,0,6.11,5.48.89.89,0,0,0,.76,0,.91.91,0,0,0,.34-.53c.42-1.26,2.36-5.91,1.39-7-.5-.55-2.27.05-2.89.06A8.3,8.3,0,0,1,468.72,321Z"/><path fill="#fff" d="M459.36,280.24c6,0,10.82,5.33,10.82,11.88S465.33,304,459.36,304s-10.81-5.32-10.81-11.87,4.85-11.88,10.81-11.88m0-3c-7.63,0-13.81,6.66-13.81,14.88S451.73,307,459.36,307s13.82-6.66,13.82-14.87-6.19-14.88-13.82-14.88Z"/><line x1="447.62" x2="421.01" y1="285.25" y2="286.34" fill="none" stroke="#fff" stroke-miterlimit="10" stroke-width="3"/><line x1="471.75" x2="478.07" y1="287.24" y2="287.16" fill="none" stroke="#fff" stroke-miterlimit="10" stroke-width="3"/><path d="M458.37,291.12a4,4,0,1,0,4-4A4,4,0,0,0,458.37,291.12Z"/><path fill="#fff" stroke="#b5c0cb" stroke-miterlimit="10" d="M616.11,927.93H982.36c38.1,69.89,65.47,125.35,65.89,126.08H1076c-.63-1.1-195.95-353-218.43-389.08-13.43-21.54-24.17-38.08-31.91-49.18-4.41-6.32-7.89-11-10.64-14.15-2.55-3-10.31-12-20.1-6.92-4.08,2.11-7,3.64-53.63,75.18-23.78,36.49-231.13,383.08-231.8,384.15h29.2C562.77,1015.5,589.31,972.08,616.11,927.93Zm5.47-9c76.7-126.48,154.19-256.62,179.9-292.83,12.84,17.65,46,68.88,131.85,215,15.47,26.35,30.4,52.87,44.1,77.82Z"/><rect width="676.21" height="32.06" x="455.32" y="574.34" fill="#fff" stroke="#b5c0cb" stroke-miterlimit="10" transform="rotate(-180 793.425 590.365)"/><line x1="1381" x2="1378" y1="565" y2="683" fill="none" stroke="#7f3e24" stroke-miterlimit="10"/></g><g><polygon fill="#7078c0" points="698.26 567.06 710.9 574.13 762.01 439.76 749.37 436.69 698.26 567.06"/><rect width="134" height="11" x="571.67" y="562.92" fill="#7078c0" transform="rotate(-180 638.67 568.42)"/><polygon fill="#7078c0" points="946.74 565.14 934.11 572.21 883 437.84 895.63 434.77 946.74 565.14"/><rect width="134" height="11" x="939.34" y="561" fill="#7078c0"/></g><g><path fill="#ffc0ad" d="M1170,430.25s-12-3.7-17.69-7.18-15.71-4.95-18-6.34-8-4.87-8.86-4.65-1.18,3.19.4,5.71a19,19,0,0,0,8.38,6.71c3.19,1.17,5.24,1.64,5.46,2.56s-4.14,2.93-9.41,5.16-29.3,7-31.83,8.61-1.43,4,3.15,5.05c2.05.48,17.62-3.26,22.63-2.53,1.32.2-9.85,3.34-13.51,4.21s-11.68,3.78-13.29,5.13-2.31,2.49-2.09,3.41,16-1.91,16-1.91a48.05,48.05,0,0,0-8.93,3.12c-3.45,1.79-1.65,5.23-.74,5l11.91-2.85a17.85,17.85,0,0,0-4.14,2.93,1,1,0,0,0,.44,1.83c2,.47,23.76-1.83,34.53-5.38s17.83-4.78,18.75-4.56c2,.47,7.29-1.88,7.29-1.88Z"/><path fill="none" stroke="#df8569" stroke-miterlimit="10" d="M1117.47,458.56a32.54,32.54,0,0,0,10.72-2.2"/><path fill="none" stroke="#df8569" stroke-miterlimit="10" d="M1113,453.87a104.51,104.51,0,0,0,14.22-2.8"/><path fill="#f47a4a" d="M1228.94,427.51s-33.42,199.78-22.86,252.22c8.14,40.45,77.26,26.81,85.46,22.84s6.26-108.78,6.26-108.78l7.16-103S1256.91,403,1228.94,427.51Z"/><path fill="#ffc0ad" d="M1267.64,869.44s-3.91,94-7,96.57-30.62-2.76-30.62-2.76-11.56-100-6-103S1267.64,869.44,1267.64,869.44Z"/><path fill="#f47a4a" d="M1293.22,699.26s-15.14,218.28-18.5,223.91-37.9,3.27-45.71,4-11.4,1.17-11.4,1.17-29.71-298.9-5.36-309.23S1293.22,699.26,1293.22,699.26Z"/><path fill="none" stroke="#7f3e24" stroke-miterlimit="10" d="M1275.83,717c-1.25,60.79-6.29,113.15-6.14,173.82"/><path fill="#b74b20" d="M1261.93,957.48s-18.35,5.13-25.31,4.35-6.24-4.56-6.24-4.56-61.51,21.75-64.45,34.22c-1.1,4.63,5,8.09,15.47,10.86,17.77,4.7,55.9,2.32,58,2.91,3.4.93,22.52,3,26.48-1.79S1268.22,957.76,1261.93,957.48Z"/><path fill="#f47a4a" d="M1366.25,486.47s64.86,205.89,29.52,239.54c-23.36,22.23-57.57,8.21-63.32-.92-10.78-17.11-25.85-91.55-25.85-91.55L1267.52,493S1336.8,457.2,1366.25,486.47Z"/><path fill="none" stroke="#7f3e24" stroke-miterlimit="10" d="M1383.94,550.25c14.22,49.06,21,90.19,22.35,138.79"/><path fill="#ffc0ad" d="M1420.27,875.27s4.81,83.58,1.38,86.11-29.83,10.75-29.83,10.75-26-95.26-19.59-98.54S1420.27,875.27,1420.27,875.27Z"/><path fill="#f47a4a" d="M1404.88,672.59s30.79,236.87,26.91,241.59-25.7,10-35,11.77-23.66,9.26-23.66,9.26S1321,727,1321.83,692.87C1323.72,614.85,1404.88,672.59,1404.88,672.59Z"/><path fill="#b74b20" d="M1422.67,952.21s-3.35,4.76-23.91,7.51c-8.81,1.17-12.08-4.56-12.08-4.56s-21.65,12.42-38,18.23c-11.41,4.05-20.29,7.58-20.46,11.65-.41,9.91,17.6,21.8,34.75,21.37s68.89-13.79,72.52-18.78S1430.45,949.81,1422.67,952.21Z"/><path fill="#f47a4a" d="M1363.46,482.75s5.64,11,5.88,31.24c0,.2,0,.4,0,.6a29.19,29.19,0,0,1-20.41,28c-25.41,8-74.5,23.14-78.13,20.78-4.92-3.19-57.63-28.18-56.71-33.8s-.94-30,0-35.2S1363.46,482.75,1363.46,482.75Z"/><path fill="none" stroke="#7f3e24" stroke-miterlimit="10" d="M1270.49,511.39q-1,12-1.93,24a19.46,19.46,0,0,0,.06,5.28,19,19,0,0,0,3.52,7.11"/><path fill="none" stroke="#7f3e24" stroke-miterlimit="10" d="M1315.8,511c-.11,6,.84,7.36,4.65,12"/><path fill="none" stroke="#7f3e24" stroke-miterlimit="10" d="M1222.92,535a23.66,23.66,0,0,0,10.24-9.72,46.24,46.24,0,0,0,4.89-13.43"/><path fill="#39eaea" d="M1195.68,289.25c-18.82,14.64-47.31,54.45-54.7,59-3.23,2-20.7,47.62-9.29,57.08a46.29,46.29,0,0,0,24.6,10c9.47.44,94-61.53,108.3-72C1279.62,332.32,1203.34,283.29,1195.68,289.25Z"/><path fill="#ffc0ad" d="M1107.64,329.21S1071,307,1067,308.2s-20.27,16.19-18.54,18.16,27.41,32.43,34.9,29.74S1107.64,329.21,1107.64,329.21Z"/><path fill="#39eaea" d="M1163.35,353.65c-10.94-8.19-67.8-35.66-73.41-31.92s-24,23.36-23.8,25.25,79.24,77.47,93.77,67.41S1163.35,353.65,1163.35,353.65Z"/><path fill="#ffc0ad" d="M1048.78,285.7l-40.3-23.84s-4.64,1.81.39,7.87l17.63,15-4.44-.41s-1.41,3.23,1.61,6.86c0,0-7.66-1.82-5.25,8.46,0,0-6.86,1.61-2.84,6.45,0,0-5.64.6.4,7.87,0,0,13.29,13.53,17.34,6.07,0,0,15.45,15.71,26.15,8.87,5.47-3.51,10.15-8.12,12.6-12.05,3.64-5.83-6.26-16.33-11.44-20.85Z"/><path fill="none" stroke="#df8569" stroke-miterlimit="10" d="M1015.69,305s10.87,15.54,20.15,11.92c0,0,1.31-2.12.31-3.33,0,0,5.44,1.62,3.83-5.24l-7.19-6.5a21.73,21.73,0,0,1-2-2.08l-6.12-7.37"/><path fill="none" stroke="#df8569" stroke-miterlimit="10" d="M1018.52,298.58s12.08,14.53,17.73,13.93"/><path fill="none" stroke="#df8569" stroke-miterlimit="10" d="M1051.07,309.4c-8.07,2.61-16.72-12.72-16.72-12.72-4.44-.41-10.68-5.46-10.68-5.46s-1.81-4.64-1.61-6.86l13.31,1.23s6.86-1.61,10.89,3.24"/><path fill="#664239" d="M1220.84,171.48c17.27-8.47,36-13.26,52.85-3.89,10.88,6,26.28,27.11,38.15,30,9.52,2.33,19.44.07,28.83-2.86s18.74-6.54,28.48-7,20.21,2.88,26.19,11.46c7.56,10.86,6.37,27.47,15,37.27,5.84,6.62,14.8,8.44,21.52,13.94s10.82,14.64,11.71,23.94-1.17,18.76-4.85,27.17c-2.35,5.37-5.5,10.53-10,13.7-7.52,5.24-17.11,4-25.85,5.72a42,42,0,0,0-23.42,13.76c-5.63,6.44-10.08,15-17.73,17.85-9.81,3.66-20-3.8-27.42-11.88A132,132,0,0,1,1320.15,322c-2-3.24-4-6.66-6.92-8.9-4.88-3.76-11.3-3.46-17.23-3.24-11.12.42-22.51,0-32.94-4.31-12.92-5.35-23.56-16.56-30.32-30s-9.8-28.86-10.12-44.23c-.39-18.34,3.39-37.56,14.19-51.4"/><path fill="none" stroke="#351c19" stroke-miterlimit="10" stroke-width="2" d="M1278.27,186.91c10.07,17.9,30.32,27.91,49,24.21,10.41-2.06,19.92-7.89,30.19-10.69s22.64-1.71,29.26,7.48c7.78,10.8,4.93,28.89,14.7,37.43,4.28,3.75,10,4.6,15,6.9,12.11,5.51,20.13,20.53,18.71,35"/><path fill="none" stroke="#351c19" stroke-miterlimit="10" stroke-width="2" d="M1326.25,235.07c6.1-7.15,15.42-10.71,24.18-9.24s16.72,7.93,20.67,16.77c3,6.66,3.91,14.71,8.73,19.85s11.72,5.8,18,7.61,13.18,6.17,13.77,13.39"/><path fill="none" stroke="#351c19" stroke-miterlimit="10" stroke-width="2" d="M1267.48,219.49c8.61,28,36.57,46.79,62.81,42.21,2.72-.47,5.47-1.17,8.2-.74,9.13,1.43,12.78,13.45,17.58,22.22,8,14.58,24,23.1,39.22,20.82"/><path fill="none" stroke="#351c19" stroke-miterlimit="10" stroke-width="2" d="M1326.83,300.94a47.45,47.45,0,0,0,18.7,26.47c3.08,2.07,6.54,3.73,10.14,3.58a9.1,9.1,0,0,0,8.38-6.32"/><path fill="none" stroke="#351c19" stroke-miterlimit="10" stroke-width="2" d="M1240,244.23c-1.48,10.41,1.78,21.2,7.39,29.68s13.42,14.89,21.64,20.1c3.49,2.2,7.18,4.25,11.16,4.71,6.06.69,11.91-2.35,17.39-5.32"/><path fill="#664239" d="M1204.48,191.75c.38,5.18,2.2,10.61-.14,15.36-1.56,3.18-4.75,5.49-7.64,7.88-8,6.64-14.56,14.89-17.29,24.21s-1.35,19.76,5,27.72c4.74,5.91,12,10.17,19.78,12.62a75.78,75.78,0,0,0,24.55,3c7.42-.18,15.26-1.27,20.85-5.43a27.12,27.12,0,0,0,6.66-7.71c8.84-14.26,10.79-31.21,8-47.28-2-12-6.87-24.12-16.57-33a44.72,44.72,0,0,0-28.71-11.58C1207.31,177.28,1203.74,181.5,1204.48,191.75Z"/><path fill="none" stroke="#351c19" stroke-miterlimit="10" stroke-width="2" d="M1208.06,205.73c-1.27,8.48-10.37,14.1-16.28,20.94a32.34,32.34,0,0,0-7.51,27.56c.84,4.09,2.92,8.46,7.3,10.25"/><path fill="none" stroke="#351c19" stroke-miterlimit="10" stroke-width="2" d="M1212.61,220.37c-7.33,7.35-12.38,16.66-12.57,26.39a28.62,28.62,0,0,0,14.46,25.15"/><path fill="#ffc0ad" d="M1211.12,284.13s24.42,2.82,35.2.84,58.26-16.41,58.26-16.41-30.79,54-61.41,58.34C1219.65,330.21,1211.59,287.08,1211.12,284.13Z"/><path fill="#39eaea" d="M1212.71,284.54s-10.38-1.07-17,4.71c-5.66,4.91-8.87,64.69-6.11,75.81s18.71,45.66,16.79,52.05c-.72,2.41-2.13,88.65-2.49,102.42-.26,10.28,67.38,7.48,96.17,0s82.42-26.19,78.65-37.56c-.9-2.71-27.65-76.86-30-80.73s-5.83-115-12.13-123.51-31.46-11-36-7-46.45,48.88-59.91,49.76C1234.37,320.85,1212.71,284.54,1212.71,284.54Z"/><path fill="#26bfbb" d="M1342.86,311.3s-39.52,12.41-35.55,26.6,62.36,124.29,60.19,118.64-17-47.13-18.84-55.31S1342.86,311.3,1342.86,311.3Z"/><path fill="none" stroke="#229390" stroke-miterlimit="10" d="M1193.09,310.26c-.21,12.8-5.59,42.08-3.47,54.74,2.77,16.53,12.34,28.72,14.46,38.72,5.21,24.55-1.35,85.38-.46,110.27"/><path fill="#39eaea" d="M1331,274.56s-23.3-6.46-32.26,14.52c-6.3,14.77-17.83,91.68-17.23,93.15s-7.81,31.17,6.58,32.52,18.45,34.69,29,24.94c13.78-12.75,32.46-101.6,30.71-126C1347,303.32,1339.83,278.73,1331,274.56Z"/><path fill="none" stroke="#229390" stroke-miterlimit="10" d="M1281.51,381.88c-1.64-20.21,15.26-89.56,17.67-92.2"/><path fill="none" stroke="#229390" stroke-miterlimit="10" d="M1347,327.37c.14,19.86-5.64,43.76-9.78,58.59-6.29,22.54-16.28,51.34-20.56,53.13"/><path fill="#ffc0ad" d="M1211.41,416.83s-55.88,9.68-57.82,13.41.22,25.1,3.2,25.1,38.4-4.63,57.3-6.09C1222.46,448.6,1211.41,416.83,1211.41,416.83Z"/><path fill="#29d6d1" d="M1216.87,410.4s-22.75,8.49-25.35,10.22c-1.27.85-3.34,8.7-2.54,16,.83,7.62,4.58,14.66,5.58,14.55,2-.23,41.12,7,44.69-1S1216.87,410.4,1216.87,410.4Z"/><path fill="#39eaea" d="M1278.56,391.53c-17,7.56-66.83,13.29-71.22,24.39-2.42,6.13,3.57,35.31,10.39,37.71,22,7.77,77.3-1.65,92.1-10.51,15.73-9.41,13.47-13.05,8.86-22.24C1311.2,406,1278.56,391.53,1278.56,391.53Z"/><path fill="none" stroke="#229390" stroke-miterlimit="10" d="M1287.3,394.25a15.89,15.89,0,0,0-10.12-1.45c-7.79.64-14.71,3.39-22.45,5.42-31.81,8.38-42.59,12.24-46.8,18.13"/><path fill="none" stroke="#229390" stroke-miterlimit="10" d="M1211.43,412.61q-9.09,3.52-18,7.59a7.08,7.08,0,0,0-2.59,1.68,6.61,6.61,0,0,0-1.2,3.34,47,47,0,0,0,1.63,21.23c.52,1.63,1.2,3.34,2.62,4.29a8.35,8.35,0,0,0,4,1l13.47,1.19"/><path fill="none" stroke="#229390" stroke-miterlimit="10" d="M1199,446.54a50.1,50.1,0,0,0,10.09.64"/><path fill="none" stroke="#229390" stroke-miterlimit="10" d="M1199.4,437.73a31.53,31.53,0,0,0,6.35-.8"/><path fill="none" stroke="#229390" stroke-miterlimit="10" d="M1197.38,427.66l5.87-1.71"/><path fill="none" stroke="#229390" stroke-miterlimit="10" d="M1208.85,436.48s2.66,16,14.14,18.57,77.48-.79,95.32-17.91"/><path fill="#ffc0ad" d="M1257.51,225.81l14.25,53.13-40,18.91-3.16-50s-1-8.11,2.85-12.46C1236.81,229.44,1254.36,217.4,1257.51,225.81Z"/><path fill="#df8569" d="M1230.7,273.26s12.53-13.31,20.19-26.64c3.5-6.09,6.62-20.81,6.62-20.81l-28.68,25.26Z"/><path fill="none" stroke="#fff" stroke-miterlimit="10" stroke-width="2" d="M1202.76,233.48c6-4.43,14.3-2.61,18.55,4.07s2.83,15.68-3.17,20.11"/><path fill="none" stroke="#fff" stroke-miterlimit="10" stroke-width="2" d="M1218.14,257.66c-6,4.43-14.3,2.6-18.55-4.07s-2.83-15.68,3.17-20.11"/><path fill="#ffc0ad" d="M1205.31,220c.15,22.32,4.4,37.94,24.89,37.17,14.87-.56,27.56-12.52,29.73-34.69,2.22-22.64-9-40.08-23.89-41.5C1212,178.65,1205.15,195,1205.31,220Z"/><path fill="#56332c" d="M1240.24,193.75c-10.37,4.7-24,7.32-33.52,2.84-8.06-3.82-11.44-14.81-7.59-22.85s13.79-12.35,22.5-10.44c5.81,1.28,12,4.49,17.31,7,5,2.42,9.23,6.46,15.2,6.35,2.95-.06,6.32-1.07,8.58.83a7.33,7.33,0,0,1,1.83,2.79,42.27,42.27,0,0,1,1.43,30.09c-1.15,3.49-2.58,10.32-6.32,7.81-4.2-2.81-3.06-8.13-3.72-12.18-1-5.93-4.47-11.82-8.3-16.34A51.21,51.21,0,0,1,1240.24,193.75Z"/><path fill="none" stroke="#351c19" stroke-miterlimit="10" stroke-width="2" d="M1207.16,178.48a14.56,14.56,0,0,0,9.5,14.25,22,22,0,0,0,10.64.46c6.2-1,12.81-3.7,15.38-9.42"/><path fill="none" stroke="#351c19" stroke-miterlimit="10" stroke-width="2" d="M1214.88,176.56a4.42,4.42,0,0,0,.48,3.27c1.37,2.49,4.51,3.62,7.35,3.3a16.06,16.06,0,0,0,7.66-3.55"/><path fill="none" stroke="#351c19" stroke-miterlimit="10" stroke-width="2" d="M1254.9,183.63a43.29,43.29,0,0,1,6.48,25"/><path fill="none" stroke="#351c19" stroke-miterlimit="10" stroke-width="2" d="M1262.48,184.6a33.13,33.13,0,0,1,2.24,14.74"/><path fill="#f47a4a" d="M1228,165.92,1245.4,163s14.07,1.34,19.15,17.26a113,113,0,0,1,5.26,29.64l-5.63.37S1244.48,165.65,1228,165.92Z"/><path fill="#7c3d33" d="M1239.52,204.11a13.13,13.13,0,0,1,4.19,5,3.34,3.34,0,0,0-.13-2.71,8.16,8.16,0,0,0-3.76-4.33c-1.72-.87-5.38-1.29-6.52.74.74.54,1.92.08,2.81.14A7.18,7.18,0,0,1,1239.52,204.11Z"/><path fill="#7c3d33" d="M1214.59,202.27a5.46,5.46,0,0,1,5.33,1.46,5.38,5.38,0,0,0-4.57-3.39c-1.69-.14-6.18,1.25-6.11,3.6C1209.3,205.8,1213.42,202.55,1214.59,202.27Z"/><path fill="none" stroke="#d27254" stroke-miterlimit="10" stroke-width="2" d="M1223.89,213a6.09,6.09,0,0,1-2.47,5.37,15.11,15.11,0,0,1-5.61,2.49,6.49,6.49,0,0,0,7.6,7.35"/><path fill="none" stroke="#fff" stroke-miterlimit="10" stroke-width="2" d="M1268.31,226.67c7.9-1,15.25,5.33,16.43,14.12s-4.28,16.71-12.18,17.7"/><path fill="#ffc0ad" d="M1257.77,213.86a11.92,11.92,0,0,1,9-7.39,9.62,9.62,0,0,1,9.27,3.42c2,2.77,2,6.53,1.26,9.86a14,14,0,0,1-3.48,7,11.54,11.54,0,0,1-7,3.11,14.58,14.58,0,0,1-12.79-5.51"/><path fill="none" stroke="#dc8f5b" stroke-miterlimit="10" d="M1270,212.83a9.36,9.36,0,0,0-9.33,6.65l1.52-1a7.74,7.74,0,0,1,4-1.66c1.47,0,3,1.25,2.79,2.7"/><path fill="none" stroke="#fff" stroke-miterlimit="10" stroke-width="2" d="M1272.56,258.49c-7.9,1-15.26-5.33-16.43-14.12s4.28-16.72,12.18-17.7"/><path fill="#3d2e2c" d="M1233,212.67c-.44,1.88.39,3.65,1.85,4s3-1,3.44-2.87-.39-3.66-1.85-3.95S1233.45,210.78,1233,212.67Z"/><path fill="#3d2e2c" d="M1210.89,210.55c-.31,2,.57,3.79,2,3.95s2.78-1.35,3.09-3.37-.57-3.79-2-3.95S1211.2,208.54,1210.89,210.55Z"/><line x1="1388.5" x2="1422.32" y1="693.5" y2="919.22" fill="none" stroke="#7f3e24" stroke-miterlimit="10"/><path fill="#fff" d="M1230.55,230.94s-13.26,7.52-17.47,4.41c0,0,6.23,8.86,9.86,8.7C1232.15,243.64,1230.55,230.94,1230.55,230.94Z"/></g></svg>